<?xml version="1.0" encoding="UTF-8"?>
<svg xmlns="http://www.w3.org/2000/svg" xmlns:xlink="http://www.w3.org/1999/xlink" width="512" height="512" viewBox="0 0 60 60" version="1.1"><!-- Generator: Sketch 51.3 (57544) - http://www.bohemiancoding.com/sketch --><title>002 - Business Insurance</title><desc>Created with Sketch.</desc><defs/><g id="Page-1" stroke="none" stroke-width="1" fill="none" fill-rule="evenodd"><g id="002---Business-Insurance" fill="#000000" fill-rule="nonzero"><path d="M55.4,31.759 L45.4,27.439 C45.1472508,27.3300007 44.8607492,27.3300007 44.608,27.439 L34.608,31.759 C34.2430788,31.9182641 34.007409,32.278839 34.008,32.677 L34.008,44.509 C34.017086,46.503312 34.9883344,48.3705817 36.616,49.523 L44.428,55.084 C44.7751643,55.331178 45.2408357,55.331178 45.588,55.084 L53.4,49.523 C55.0243787,48.3686152 55.992425,46.5017752 56,44.509 L56,32.677 C56.000591,32.278839 55.7649212,31.9182641 55.4,31.759 Z M54,44.509 C53.9926973,45.8587211 53.3337961,47.1217704 52.231,47.9 L45,53.042 L37.769,47.894 C36.6675346,47.1173365 36.0087381,45.8567225 36,44.509 L36,33.334 L45,29.447 L54,33.334 L54,44.509 Z" id="Shape"/><path d="M39.6,42.2 C39.3141875,41.9856406 38.9357266,41.9400436 38.6071797,42.0803848 C38.2786328,42.2207259 38.0499141,42.5256842 38.0071797,42.8803848 C37.9644453,43.2350853 38.1141875,43.5856406 38.4,43.8 L42.4,46.8 C42.8320438,47.1242308 43.4434866,47.0467489 43.781,46.625 L51.781,36.625 C52.126178,36.1936656 52.0563344,35.564178 51.625,35.219 C51.1936656,34.873822 50.564178,34.9436656 50.219,35.375 L42.825,44.619 L39.6,42.2 Z" id="Shape"/><path d="M55,8 L42.941,8 C42.4270973,3.44848433 38.5804308,0.00666213206 34,0 L26,0 C21.4195692,0.00666213206 17.5729027,3.44848433 17.059,8 L5,8 C2.23994685,8.00330612 0.00330611633,10.2399468 0,13 L0,51 C0.00299828742,53.3751008 1.6735832,55.4215673 4,55.9 L4,57 C4,58.6568542 5.34314575,60 7,60 L13,60 C14.6568542,60 16,58.6568542 16,57 L16,56 L38.809,56 L43.959,59.664 C44.5815312,60.1094181 45.4184688,60.1094181 46.041,59.664 L55.709,52.785 C57.4076374,51.5760946 58.6956414,49.8763201 59.4,47.914 C59.7635914,47.7553172 59.9990017,47.3967089 60,47 L60,13 C59.9966939,10.2399468 57.7600532,8.00330612 55,8 Z M52.336,26.082 L49.4,24.813 L48,24.213 L48,17 C48,15.3431458 46.6568542,14 45,14 L41,14 C39.3431458,14 38,15.3431458 38,17 L38,25.935 L37.851,26 L24,26 L24,25 C23.9947486,23.7332146 23.1943509,22.6062546 22,22.184 L22,17 C22,15.3431458 20.6568542,14 19,14 L15,14 C13.3431458,14 12,15.3431458 12,17 L12,22.184 C10.8056491,22.6062546 10.0052514,23.7332146 10,25 L10,26 L2,26 L2,18 L4,18 C5.1045695,18 6,17.1045695 6,16 L6,14 L8,14 C9.1045695,14 10,13.1045695 10,12 L10,10 L50,10 L50,12 C50,13.1045695 50.8954305,14 52,14 L54,14 L54,16 C54,17.1045695 54.8954305,18 56,18 L58,18 L58,28.529 L52.336,26.082 Z M45.397,23.082 C45.1436747,22.9724248 44.8563253,22.9724248 44.603,23.082 L40,25.071 L40,17 C40,16.4477153 40.4477153,16 41,16 L45,16 C45.5522847,16 46,16.4477153 46,17 L46,23.343 L45.397,23.082 Z M14,32 L20,32 L20,38.586 L17,41.586 L14,38.586 L14,32 Z M21,30 L13,30 C12.4477153,30 12,29.5522847 12,29 L12,25 C12,24.4477153 12.4477153,24 13,24 L21,24 C21.5522847,24 22,24.4477153 22,25 L22,29 C22,29.5522847 21.5522847,30 21,30 Z M20,22 L14,22 L14,17 C14,16.4477153 14.4477153,16 15,16 L19,16 C19.5522847,16 20,16.4477153 20,17 L20,22 Z M23.184,8 C23.6062546,6.80564913 24.7332146,6.00525139 26,6 L34,6 C35.2667854,6.00525139 36.3937454,6.80564913 36.816,8 L23.184,8 Z M58,13 L58,16 L56,16 L56,14 C56,12.8954305 55.1045695,12 54,12 L52,12 L52,10 L55,10 C56.6568542,10 58,11.3431458 58,13 Z M26,2 L34,2 C37.478237,2.00432796 40.4274337,4.55811349 40.929,8 L38.9,8 C38.421918,5.67337089 36.3752386,4.00261226 34,4 L26,4 C23.6247614,4.00261226 21.578082,5.67337089 21.1,8 L19.07,8 C19.5716216,4.55773843 22.5213833,2.00383218 26,2 Z M5,10 L8,10 L8,12 L6,12 C4.8954305,12 4,12.8954305 4,14 L4,16 L2,16 L2,13 C2,11.3431458 3.34314575,10 5,10 Z M2,51 L2,48 L4,48 L4,50 C4,51.1045695 4.8954305,52 6,52 L8,52 L8,54 L5,54 C3.34314575,54 2,52.6568542 2,51 Z M14,57 C14,57.5522847 13.5522847,58 13,58 L7,58 C6.44771525,58 6,57.5522847 6,57 L6,56 L14,56 L14,57 Z M15,54 L10,54 L10,52 C10,50.8954305 9.1045695,50 8,50 L6,50 L6,48 C6,46.8954305 5.1045695,46 4,46 L2,46 L2,28 L10,28 L10,29 C10.0052514,30.2667854 10.8056491,31.3937454 12,31.816 L12,39 C12.0000566,39.2651948 12.1054506,39.5195073 12.293,39.707 L16.293,43.707 C16.6834999,44.0973819 17.3165001,44.0973819 17.707,43.707 L21.707,39.707 C21.8945494,39.5195073 21.9999434,39.2651948 22,39 L22,31.816 C23.1943509,31.3937454 23.9947486,30.2667854 24,29 L24,28 L33.223,28 L30.6,29.132 C30.2350788,29.2912641 29.999409,29.651839 30,30.05 L30,44.51 C30.0102932,47.7993804 31.6084354,50.8813255 34.291,52.785 L36,54 L15,54 Z M54.55,51.156 L45,57.95 L35.45,51.156 C33.2947817,49.6273063 32.0099852,47.1523041 32,44.51 L32,30.71 L39.357,27.53 C39.379,27.522 39.399,27.513 39.42,27.503 L45,25.089 L46.589,25.777 L46.634,25.796 L48.603,26.648 L51.542,27.918 L58,30.707 L58,44.507 C58.0005258,45.2573062 57.8954966,46.0039558 57.688,46.725 C57.1751723,48.5153211 56.0685495,50.0779233 54.55,51.156 Z" id="Shape"/><circle id="Oval" cx="17" cy="36" r="1"/><path d="M19,26 L15,26 C14.4477153,26 14,26.4477153 14,27 C14,27.5522847 14.4477153,28 15,28 L19,28 C19.5522847,28 20,27.5522847 20,27 C20,26.4477153 19.5522847,26 19,26 Z" id="Shape"/></g></g></svg>
