<?xml version="1.0" encoding="UTF-8"?>
<svg xmlns="http://www.w3.org/2000/svg" xmlns:xlink="http://www.w3.org/1999/xlink" width="512" height="512" viewBox="0 0 60 60" version="1.1"><!-- Generator: Sketch 51.3 (57544) - http://www.bohemiancoding.com/sketch --><title>004 - Family Cover</title><desc>Created with Sketch.</desc><defs/><g id="Page-1" stroke="none" stroke-width="1" fill="none" fill-rule="evenodd"><g id="004---Family-Cover" transform="translate(-1.000000, 0.000000)" fill="#000000" fill-rule="nonzero"><path d="M54.972,41.256 C57.6383557,39.1407203 58.6744418,35.5699956 57.5544194,32.3560555 C56.4343971,29.1421154 53.4035072,26.9886867 50,26.9886867 C46.5964928,26.9886867 43.5656029,29.1421154 42.4455806,32.3560555 C41.3255582,35.5699956 42.3616443,39.1407203 45.028,41.256 C41.4868815,42.159235 39.0066574,45.3455084 39,49 L39,49.726 C38.0512404,48.6437277 36.8283704,47.8371171 35.46,47.391 C37.7354063,45.510018 38.5861179,42.4036795 37.5865978,39.6258158 C36.5870777,36.8479522 33.9522139,34.9957799 31,34.9957799 C28.0477861,34.9957799 25.4129223,36.8479522 24.4134022,39.6258158 C23.4138821,42.4036795 24.2645937,45.510018 26.54,47.391 C25.1716296,47.8371171 23.9487596,48.6437277 23,49.726 L23,49 C22.9933426,45.3455084 20.5131185,42.159235 16.972,41.256 C19.6383557,39.1407203 20.6744418,35.5699956 19.5544194,32.3560555 C18.4343971,29.1421154 15.4035072,26.9886867 12,26.9886867 C8.59649282,26.9886867 5.56560293,29.1421154 4.44558055,32.3560555 C3.32555817,35.5699956 4.36164427,39.1407203 7.028,41.256 C3.48688152,42.159235 1.00665735,45.3455084 1,49 L1,58 C1,59.1045695 1.8954305,60 3,60 L59,60 C60.1045695,60 61,59.1045695 61,58 L61,49 C60.9933426,45.3455084 58.5131185,42.159235 54.972,41.256 Z M52.059,47.162 C50.9136381,48.2772533 49.0883619,48.2772533 47.943,47.162 C47.032,46.114 46.884,44.231 46.925,43.001 C46.95,43.001 46.975,43.001 47,43.001 L53,43.001 C53.026,43.001 53.051,43.001 53.077,43.001 C53.119,44.23 52.973,46.107 52.059,47.162 Z M44,35 C44,31.6862915 46.6862915,29 50,29 C53.3137085,29 56,31.6862915 56,35 C56,38.3137085 53.3137085,41 50,41 C46.6876624,40.9966926 44.0033074,38.3123376 44,35 Z M32.234,49 L31,51.056 L29.766,49 L32.234,49 Z M26,42 C26,39.2385763 28.2385763,37 31,37 C33.7614237,37 36,39.2385763 36,42 C36,44.7614237 33.7614237,47 31,47 C28.2399468,46.9966939 26.0033061,44.7600532 26,42 Z M21,49 L21,58 L13,58 L13,47.277 L15.549,43.028 C18.6345549,43.3143509 20.9957163,45.9011893 21,49 Z M13.234,43 L12,45.056 L10.766,43 L13.234,43 Z M6,35 C6,31.6862915 8.6862915,29 12,29 C15.3137085,29 18,31.6862915 18,35 C18,38.3137085 15.3137085,41 12,41 C8.68766243,40.9966926 6.00330738,38.3123376 6,35 Z M3,49 C3.00428367,45.9011893 5.36544506,43.3143509 8.451,43.028 L11,47.277 L11,58 L3,58 L3,49 Z M23,55 C23.0049523,52.2499042 24.8774195,49.8546294 27.545,49.186 L30.145,53.515 C30.3258357,53.8157398 30.6510784,53.9996836 31.002,53.9996836 C31.3529216,53.9996836 31.6781643,53.8157398 31.859,53.515 L34.459,49.186 C37.1249925,49.8561785 38.9955096,52.2510666 39,55 L39,58 L23,58 L23,55 Z M59,58 L41,58 L41,49 C41.0043508,46.4914836 42.5675406,44.2499812 44.92,43.379 C44.8263605,45.1993622 45.3592895,46.9968505 46.43,48.472 C47.0908621,49.2385187 48.0009176,49.7473708 49,49.909 L49,51 C49,51.5522847 49.4477153,52 50,52 C50.5522847,52 51,51.5522847 51,51 L51,49.909 C51.9990824,49.7473708 52.9091379,49.2385187 53.57,48.472 C54.6407105,46.9968505 55.1736395,45.1993622 55.08,43.379 C57.4324594,44.2499812 58.9956492,46.4914836 59,49 L59,58 Z" id="Shape"/><path d="M1.556,25.9 C1.94048268,26.0904525 2.40361111,26.0144044 2.707,25.711 C2.923,25.494 8.047,20.466 12.293,24.711 C12.3312055,24.7407533 12.3716601,24.7675 12.414,24.791 C12.4688613,24.837459 12.5289299,24.8773929 12.593,24.91 C12.6609914,24.9365795 12.7317766,24.9553661 12.804,24.966 C12.8488137,24.9810384 12.8945824,24.9930652 12.941,25.002 C12.9606878,25.0023318 12.9803798,25.0016643 13,25 C13.1282103,25.0000392 13.255215,24.9752495 13.374,24.927 C13.383,24.927 13.39,24.915 13.399,24.911 C13.5082781,24.8626426 13.6078877,24.794881 13.693,24.711 L13.706,24.703 C14.6752409,23.8099023 15.8194006,23.1278332 17.066,22.7 C19.666,21.832 22.094,22.509 24.293,24.708 C24.375464,24.7869678 24.4708425,24.8512299 24.575,24.898 C24.598613,24.9099535 24.6230011,24.9203101 24.648,24.929 C24.7572689,24.9723882 24.8734534,24.9957606 24.991,24.998 L25,25 C25.009,25 25.017,25 25.026,25 C25.0932324,24.9993353 25.1602307,24.9919655 25.226,24.978 C25.2642916,24.966702 25.3017214,24.9526658 25.338,24.936 C25.364,24.927 25.388,24.919 25.413,24.908 C25.5146076,24.8616088 25.607861,24.7987641 25.689,24.722 C25.703,24.708 25.713,24.692 25.727,24.677 C25.7925637,24.6050751 25.847152,24.5238666 25.889,24.436 C25.901734,24.4133734 25.9130881,24.3899974 25.923,24.366 C25.929,24.351 25.939,24.337 25.945,24.321 C26.3696,23.4777095 27.1071086,22.8338699 28,22.527 L28,30 C28,31.6568542 29.3431458,33 31,33 C32.6568542,33 34,31.6568542 34,30 L34,22.521 C34.8942079,22.8244445 35.6317159,23.4698988 36.051,24.316 C36.057,24.333 36.067,24.346 36.073,24.362 C36.079,24.378 36.095,24.406 36.106,24.429 C36.1480174,24.5186977 36.2036775,24.6013445 36.271,24.674 C36.284,24.688 36.293,24.703 36.307,24.716 C36.3878568,24.7938431 36.4815723,24.8571095 36.584,24.903 C36.608,24.914 36.632,24.922 36.657,24.931 C36.6936856,24.9475098 36.731437,24.9615413 36.77,24.973 C36.8357702,24.9868397 36.9027896,24.9938767 36.97,24.994 C36.981,24.994 36.989,25 36.999,25 L37.008,25 C37.1252118,24.9976628 37.2410509,24.9742917 37.35,24.931 C37.375,24.922 37.399,24.911 37.423,24.9 C37.5270906,24.8531099 37.6224498,24.7888608 37.705,24.71 C42.912,19.504 48.075,24.497 48.291,24.71 L48.305,24.719 C48.3840748,24.7924928 48.4745935,24.8526134 48.573,24.897 C48.591,24.906 48.606,24.923 48.624,24.93 L48.642,24.93 C48.7559673,24.9753067 48.877361,24.9990429 49,25 L49.057,25 C49.101756,24.991398 49.1458618,24.9797033 49.189,24.965 C49.3351455,24.951301 49.4728051,24.890197 49.581,24.791 C49.6239442,24.7667018 49.6650538,24.7392953 49.704,24.709 C53.931,20.483 59.074,25.496 59.291,25.709 C59.5943419,26.0145156 60.0591757,26.0915873 60.4448866,25.90032 C60.8305976,25.7090528 61.0505949,25.2923854 60.991,24.866 C60.96,24.639 57.636,2.6 32,2.027 L32,1 C32,0.44771525 31.5522847,3.38176876e-17 31,0 C30.4477153,-3.38176876e-17 30,0.44771525 30,1 L30,2.027 C4.364,2.6 1.04,24.639 1.009,24.865 C0.949244248,25.2918283 1.16968019,25.7089237 1.556,25.9 Z M14.356,21.726 C15.256,17.47 18.293,8.547 28.322,4.849 C25.072,10.183 24.263,18.17 24.063,21.927 C21.1698969,19.8961265 17.3362976,19.8151322 14.36,21.722 L14.356,21.726 Z M32,30 C32,30.5522847 31.5522847,31 31,31 C30.4477153,31 30,30.5522847 30,30 L30,22.054 C30.3321796,22.0187738 30.6659587,22.0007497 31,22 C31.3340105,22.0009097 31.6677645,22.0185987 32,22.053 L32,30 Z M31,20 C29.283964,19.9296438 27.5855336,20.369127 26.119,21.263 C26.412,17.024 27.438,8.9 31,4.5 C34.558,8.895 35.585,17.018 35.88,21.259 C34.4134116,20.3664961 32.7153188,19.9284021 31,20 Z M37.933,21.923 C37.733,18.165 36.923,10.173 33.671,4.839 C43.844,8.554 46.818,17.478 47.671,21.739 C44.6903337,19.8118003 40.8387357,19.8845764 37.933,21.923 Z M58.4,22.51 C56.028,21.085 52.762,20.201 49.747,22.122 C49.059,18.322 46.552,9.474 37.854,4.579 C52.165,7.139 56.927,17.548 58.4,22.51 Z M24.145,4.579 C15.445,9.479 12.945,18.318 12.252,22.122 C11.1352313,21.396545 9.83171101,21.0112561 8.5,21.013 C6.76173574,21.0647196 5.06934155,21.5827995 3.6,22.513 C5.073,17.548 9.835,7.139 24.145,4.579 Z" id="Shape"/></g></g></svg>
