<?xml version="1.0" encoding="UTF-8"?>
<svg xmlns="http://www.w3.org/2000/svg" xmlns:xlink="http://www.w3.org/1999/xlink" width="512" height="512" viewBox="0 0 60 60" version="1.1"><!-- Generator: Sketch 51.3 (57544) - http://www.bohemiancoding.com/sketch --><title>005 - Life Saver</title><desc>Created with Sketch.</desc><defs/><g id="Page-1" stroke="none" stroke-width="1" fill="none" fill-rule="evenodd"><g id="005---Life-Saver" fill="#000000" fill-rule="nonzero"><path d="M42,-1.77635684e-15 C38.8170028,-0.00486109202 35.6906356,0.841726706 32.945,2.452 C32.6822629,1.03219561 31.4439097,0.00197706374 30,0.00197706374 C28.5560903,0.00197706374 27.3177371,1.03219561 27.055,2.452 C21.4897081,-0.796039468 14.6121526,-0.819068474 9.02523401,2.39162861 C3.43831546,5.60232569 -0.00441074809,11.5562266 -3.32931382e-15,18 C-0.00486109202,21.1829972 0.841726706,24.3093644 2.452,27.055 C1.03219561,27.3177371 0.00197706374,28.5560903 0.00197706374,30 C0.00197706374,31.4439097 1.03219561,32.6822629 2.452,32.945 C-0.796039468,38.5102919 -0.819068474,45.3878474 2.39162861,50.974766 C5.60232569,56.5616845 11.5562266,60.0044107 18,60 C21.1829972,60.0048611 24.3093644,59.1582733 27.055,57.548 C27.3177371,58.9678044 28.5560903,59.9980229 30,59.9980229 C31.4439097,59.9980229 32.6822629,58.9678044 32.945,57.548 C40.0030022,61.6612934 48.9464706,60.5023556 54.7229131,54.7259131 C60.4993556,48.9494706 61.6582934,40.0060022 57.545,32.948 C58.9648044,32.6852629 59.9950229,31.4469097 59.9950229,30.003 C59.9950229,28.5590903 58.9648044,27.3207371 57.545,27.058 C60.7929691,21.4928197 60.8164463,14.615513 57.6065482,9.02828746 C54.3966502,3.4410619 48.4436424,-0.00271468921 42,-1.77635684e-15 Z M58,18 C58.0063284,20.8978415 57.2188402,23.7420678 55.723,26.224 C54.5610023,18.3879976 49.8969304,11.5063388 43.049,7.524 C43.03,7.512 43.02,7.492 43,7.481 C42.98,7.47 42.958,7.47 42.937,7.46 C40.1117847,5.82873511 37.002872,4.74797907 33.775,4.275 C38.7182958,1.31241777 44.8728862,1.23719436 49.8871137,4.07807252 C54.9013413,6.91895067 58.0003445,12.2369221 58,18 Z M42.849,50.255 L38.849,43.321 C43.0118112,40.5499102 45.6387979,35.9911632 45.949,31 L53.975,31 C53.961,31.335 53.938,31.668 53.91,32 C53.2786644,39.4792785 49.1864026,46.2331199 42.849,50.255 Z M32,53.91 C31.34,53.965 30.674,54 30,54 C29.326,54 28.66,53.965 28,53.91 C24.8132147,53.6473305 21.7119305,52.7457509 18.881,51.259 L22.891,44.313 C27.3634398,46.5623532 32.6365602,46.5623532 37.109,44.313 L41.119,51.259 C38.2880695,52.7457509 35.1867853,53.6473305 32,53.91 Z M6.09,32 C6.062,31.668 6.039,31.335 6.025,31 L14.051,31 C14.3612021,35.9911632 16.9881888,40.5499102 21.151,43.321 L17.151,50.255 C10.8135974,46.2331199 6.72133559,39.4792785 6.09,32 Z M17.151,9.745 L21.151,16.679 C16.9881888,19.4500898 14.3612021,24.0088368 14.051,29 L6.025,29 C6.039,28.665 6.062,28.332 6.09,28 C6.72133559,20.5207215 10.8135974,13.7668801 17.151,9.745 Z M28,6.09 C28.66,6.035 29.326,6 30,6 C30.674,6 31.34,6.035 32,6.09 C35.1867853,6.35266949 38.2880695,7.25424911 41.119,8.741 L37.109,15.687 C32.6365602,13.4376468 27.3634398,13.4376468 22.891,15.687 L18.881,8.741 C21.7119305,7.25424911 24.8132147,6.35266949 28,6.09 Z M53.91,28 C53.938,28.332 53.961,28.665 53.975,29 L45.949,29 C45.6387979,24.0088368 43.0118112,19.4500898 38.849,16.679 L42.849,9.745 C49.1864026,13.7668801 53.2786644,20.5207215 53.91,28 Z M30,44 C22.2680135,44 16,37.7319865 16,30 C16,22.2680135 22.2680135,16 30,16 C37.7319865,16 44,22.2680135 44,30 C43.9917327,37.7285595 37.7285595,43.9917327 30,44 Z M30,2 C30.5522847,2 31,2.44771525 31,3 L31,4.025 C30.668,4.013 30.335,4 30,4 C29.665,4 29.332,4.013 29,4.025 L29,3 C29,2.44771525 29.4477153,2 30,2 Z M18,2 C20.898071,1.99430441 23.742452,2.78173974 26.225,4.277 C22.9971684,4.75014425 19.8882861,5.83088975 17.063,7.462 C17.043,7.472 17.02,7.471 17,7.483 C16.98,7.495 16.97,7.514 16.951,7.526 C10.1030696,11.5083388 5.43899775,18.3899976 4.277,26.226 C1.31407917,21.2829561 1.23838535,15.1284217 4.07884064,10.1140028 C6.91929594,5.09958398 12.2369641,2.00016004 18,2 Z M2,30 C2,29.4477153 2.44771525,29 3,29 L4.025,29 C4.013,29.332 4,29.665 4,30 C4,30.335 4.013,30.668 4.025,31 L3,31 C2.44771525,31 2,30.5522847 2,30 Z M2,42 C1.99430441,39.101929 2.78173974,36.257548 4.277,33.775 C5.43899775,41.6110024 10.1030696,48.4926612 16.951,52.475 C16.97,52.487 16.98,52.507 17,52.518 C17.0299702,52.5322912 17.0606804,52.5449758 17.092,52.556 C19.9095422,54.1779936 23.0082576,55.2528573 26.225,55.724 C21.2818576,58.6864903 15.1274821,58.7618072 10.1133213,55.9211739 C5.09916061,53.0805406 2.00001573,47.762899 2,42 Z M30,58 C29.4477153,58 29,57.5522847 29,57 L29,55.975 C29.332,55.987 29.665,56 30,56 C30.335,56 30.668,55.987 31,55.975 L31,57 C31,57.5522847 30.5522847,58 30,58 Z M42,58 C39.101929,58.0056956 36.257548,57.2182603 33.775,55.723 C36.9917424,55.2518573 40.0904578,54.1769936 42.908,52.555 C42.9393196,52.5439758 42.9700298,52.5312912 43,52.517 C43.02,52.506 43.03,52.486 43.049,52.474 C49.8969304,48.4916612 54.5610023,41.6100024 55.723,33.774 C58.6859208,38.7170439 58.7616146,44.8715783 55.9211594,49.8859972 C53.0807041,54.900416 47.7630359,57.99984 42,58 Z M58,30 C58,30.5522847 57.5522847,31 57,31 L55.975,31 C55.987,30.668 56,30.335 56,30 C56,29.665 55.987,29.332 55.975,29 L57,29 C57.5522847,29 58,29.4477153 58,30 Z" id="Shape"/></g></g></svg>
