<?xml version="1.0" encoding="UTF-8"?>
<svg xmlns="http://www.w3.org/2000/svg" xmlns:xlink="http://www.w3.org/1999/xlink" width="512" height="512" viewBox="0 0 60 60" version="1.1"><!-- Generator: Sketch 51.3 (57544) - http://www.bohemiancoding.com/sketch --><title>008 - Delivery Insurance</title><desc>Created with Sketch.</desc><defs/><g id="Page-1" stroke="none" stroke-width="1" fill="none" fill-rule="evenodd"><g id="008---Delivery-Insurance" fill="#000000" fill-rule="nonzero"><path d="M36.608,26.522 L44.42,32.083 C44.7671643,32.330178 45.2328357,32.330178 45.58,32.083 L53.392,26.523 C55.0192795,25.3702451 55.9904167,23.5031892 56,21.509 L56,9.677 C56.000591,9.27883898 55.7649212,8.91826415 55.4,8.759 L45.4,4.439 C45.1472508,4.33000068 44.8607492,4.33000068 44.608,4.439 L34.608,8.759 C34.2430788,8.91826415 34.007409,9.27883898 34.008,9.677 L34.008,21.509 C34.0158969,23.5014219 34.9839074,25.3678205 36.608,26.522 Z M36,10.334 L45,6.446 L54,10.334 L54,21.509 C53.9910962,22.8566812 53.3323369,24.117224 52.231,24.894 L45,30.042 L37.769,24.894 C36.6675346,24.1173365 36.0087381,22.8567225 36,21.509 L36,10.334 Z" id="Shape"/><path d="M42.4,23.8 C42.8320438,24.1242308 43.4434866,24.0467489 43.781,23.625 L51.781,13.625 C52.1217114,13.1934254 52.0500699,12.5677379 51.6206245,12.2243466 C51.1911792,11.8809554 50.5650579,11.9487006 50.219,12.376 L42.819,21.619 L39.6,19.2 C39.3141875,18.9856406 38.9357266,18.9400436 38.6071797,19.0803848 C38.2786328,19.2207259 38.0499141,19.5256842 38.0071797,19.8803848 C37.9644453,20.2350853 38.1141875,20.5856406 38.4,20.8 L42.4,23.8 Z" id="Shape"/><path d="M3,60 L43,60 C44.6568542,60 46,58.6568542 46,57 L46,36.687 C46.011,36.679 46.024,36.677 46.035,36.669 L55.711,29.781 C58.3922055,27.8777289 59.9895318,24.797038 60,21.509 L60,7.047 C60.000591,6.64883898 59.7649212,6.28826415 59.4,6.129 L45.4,0.082 C45.1474495,-0.0279576698 44.8605505,-0.0279576698 44.608,0.082 L30.608,6.129 C30.2430788,6.28826415 30.007409,6.64883898 30.008,7.047 L30.008,14 L3,14 C1.34314575,14 2.02906125e-16,15.3431458 0,17 L0,57 C2.02906125e-16,58.6568542 1.34314575,60 3,60 Z M32,7.705 L45,2.089 L58,7.705 L58,21.505 C57.9902734,24.1463069 56.7057535,26.6203764 54.551,28.148 L45,34.951 L35.449,28.151 C33.294533,26.6235813 32.010049,24.1499534 32,21.509 L32,7.705 Z M30,16 L30,29.382 L23.447,26.105 C23.1655892,25.9643786 22.8344108,25.9643786 22.553,26.105 L16,29.382 L16,16 L30,16 Z M2,17 C2,16.4477153 2.44771525,16 3,16 L14,16 L14,31 C13.9998384,31.346618 14.1791823,31.6685998 14.4739691,31.8509316 C14.7687558,32.0332634 15.1369384,32.0499383 15.447,31.895 L23,28.118 L30.553,31.9 C30.8638588,32.0553431 31.2330764,32.0381628 31.5281664,31.8546237 C31.8232565,31.6710847 32.0019021,31.3475069 32,31 L32,27.509 C32.6379158,28.3827313 33.4105377,29.149615 34.289,29.781 L43.965,36.669 C43.976,36.677 43.989,36.679 44,36.687 L44,57 C44,57.5522847 43.5522847,58 43,58 L3,58 C2.44771525,58 2,57.5522847 2,57 L2,17 Z" id="Shape"/><path d="M10,55 L36,55 C37.1045695,55 38,54.1045695 38,53 L38,37 C38,35.8954305 37.1045695,35 36,35 L10,35 C8.8954305,35 8,35.8954305 8,37 L8,53 C8,54.1045695 8.8954305,55 10,55 Z M10,37 L36,37 L36,53 L10,53 L10,37 Z" id="Shape"/><path d="M33,40 L13,40 C12.4477153,40 12,40.4477153 12,41 C12,41.5522847 12.4477153,42 13,42 L33,42 C33.5522847,42 34,41.5522847 34,41 C34,40.4477153 33.5522847,40 33,40 Z" id="Shape"/><path d="M33,44 L13,44 C12.4477153,44 12,44.4477153 12,45 C12,45.5522847 12.4477153,46 13,46 L33,46 C33.5522847,46 34,45.5522847 34,45 C34,44.4477153 33.5522847,44 33,44 Z" id="Shape"/><path d="M33,48 L13,48 C12.4477153,48 12,48.4477153 12,49 C12,49.5522847 12.4477153,50 13,50 L33,50 C33.5522847,50 34,49.5522847 34,49 C34,48.4477153 33.5522847,48 33,48 Z" id="Shape"/></g></g></svg>
