<?xml version="1.0" encoding="UTF-8"?>
<svg xmlns="http://www.w3.org/2000/svg" xmlns:xlink="http://www.w3.org/1999/xlink" width="512" height="512" viewBox="0 0 60 59" version="1.1"><!-- Generator: Sketch 51.3 (57544) - http://www.bohemiancoding.com/sketch --><title>009 - Towing</title><desc>Created with Sketch.</desc><defs/><g id="Page-1" stroke="none" stroke-width="1" fill="none" fill-rule="evenodd"><g id="009---Towing" transform="translate(0.000000, -1.000000)" fill="#000000" fill-rule="nonzero"><path d="M11,47 C8.790861,47 7,48.790861 7,51 C7,53.209139 8.790861,55 11,55 C13.209139,55 15,53.209139 15,51 C15,48.790861 13.209139,47 11,47 Z M11,53 C9.8954305,53 9,52.1045695 9,51 C9,49.8954305 9.8954305,49 11,49 C12.1045695,49 13,49.8954305 13,51 C13,52.1045695 12.1045695,53 11,53 Z" id="Shape"/><path d="M59,28 L40,28 C37.790861,28 36,29.790861 36,32 L36,40 C36,42.209139 37.790861,44 40,44 L40,48 C40,48.5522847 40.4477153,49 41,49 L41.062,49 C40.6555726,52.4446131 42.2647542,55.8162298 45.1983915,57.6667202 C48.1320289,59.5172107 51.8679711,59.5172107 54.8016085,57.6667202 C57.7352458,55.8162298 59.3444274,52.4446131 58.938,49 L59,49 C59.5522847,49 60,48.5522847 60,48 L60,44 C60,43.73 59.983,43.465 59.959,43.2 C59.9801419,43.1350866 59.9938955,43.067996 60,43 L60,29 C60,28.4477153 59.5522847,28 59,28 Z M40,30 L40,31 C40,31.5522847 39.5522847,32 39,32 L38,32 C38,30.8954305 38.8954305,30 40,30 Z M58,44 L58,47 L42,47 L42,44 C42.0044086,40.1358343 45.1358343,37.0044086 49,37 L51,37 C54.8641657,37.0044086 57.9955914,40.1358343 58,44 Z M52,50 C52,51.1045695 51.1045695,52 50,52 C48.8954305,52 48,51.1045695 48,50 C48.0008366,49.6482392 48.0954162,49.3030581 48.274,49 L51.726,49 C51.9045838,49.3030581 51.9991634,49.6482392 52,50 Z M57,50 C57,53.8659932 53.8659932,57 50,57 C46.1340068,57 43,53.8659932 43,50 C43.0026859,49.6652572 43.0287494,49.3311108 43.078,49 L46.143,49 C45.6957299,50.6275081 46.3181743,52.3606273 47.698711,53.3316842 C49.0792477,54.3027411 50.9207523,54.3027411 52.301289,53.3316842 C53.6818257,52.3606273 54.3042701,50.6275081 53.857,49 L56.922,49 C56.9712506,49.3311108 56.9973141,49.6652572 57,50 Z M51,35 L49,35 C44.8038946,35.0069582 41.1680856,37.9096342 40.232,42 L40,42 C38.8954305,42 38,41.1045695 38,40 L38,34 L39,34 C40.6568542,34 42,32.6568542 42,31 L42,30 L58,30 L58,38.356 C56.2954226,36.2348278 53.7212047,35.0006742 51,35 Z" id="Shape"/><path d="M59.481,15.124 L42.862,5.987 C43.3883866,3.93612864 42.2228421,1.83086137 40.2053262,1.18837736 C38.1878102,0.545893359 36.019502,1.58948521 35.2630117,3.56707937 C34.5065214,5.54467353 35.424764,7.76896553 37.356,8.637 L30.523,48.12 L30.316,48.051 C29.7913295,47.876478 29.224522,48.1603295 29.05,48.685 C28.875478,49.2096705 29.1593295,49.776478 29.684,49.951 L30.178,50.116 L29.694,52.916 C29.5674282,53.6355696 29.1420413,54.2678782 28.5232195,54.6562856 C27.9043976,55.0446931 27.1500321,55.1528635 26.447,54.954 C25.3446645,54.6349402 24.5844562,53.6275726 24.58,52.48 C24.5786442,52.3066266 24.5960793,52.1336168 24.632,51.964 L24.84,50.908 C26.6823581,50.5122813 27.9986782,48.8843765 28,47 L28,37 C28,35.8954305 27.1045695,35 26,35 L20.161,35 C19.8026721,35.001065 19.4711631,34.8103233 19.292,34.5 L12.444,22.511 C11.9083034,21.5777791 10.9150434,21.0016502 9.839,21 L2,21 C0.8954305,21 1.3527075e-16,21.8954305 0,23 L0,49 C1.3527075e-16,50.1045695 0.8954305,51 2,51 L3,51 C3,55.418278 6.581722,59 11,59 C15.418278,59 19,55.418278 19,51 L22.783,51 L22.672,51.563 C22.6090752,51.8645661 22.5782369,52.171944 22.58,52.48 C22.5852515,54.8535527 24.404456,56.8290755 26.7695351,57.029528 C29.1346141,57.2299805 31.2603517,55.5888116 31.665,53.25 L32.097,50.75 L32.684,50.95 C33.2086705,51.124522 33.775478,50.8406705 33.95,50.316 C34.1245219,49.7913295 33.8406705,49.224522 33.316,49.05 L32.442,48.759 L39.329,8.967 C39.9611898,8.91781354 40.572324,8.71753161 41.111,8.383 L58.311,24.725 C58.6008373,25.0005361 59.026962,25.0768996 59.3944446,24.9191584 C59.7619272,24.7614172 60.0000955,24.3999072 60,24 L60,16 C59.9997371,15.6351914 59.8008353,15.2994729 59.481,15.124 Z M26,39 L24,39 L24,37 L26,37 L26,39 Z M2,27 L7.382,27 L11.382,35 L2,35 L2,27 Z M11,57 C7.6862915,57 5,54.3137085 5,51 C5,47.6862915 7.6862915,45 11,45 C14.3137085,45 17,47.6862915 17,51 C16.9966926,54.3123376 14.3123376,56.9966926 11,57 Z M18.737,49 C17.8300834,45.4681051 14.6464749,42.9986995 11,42.9986995 C7.35352508,42.9986995 4.16991662,45.4681051 3.263,49 L2,49 L2,37 L13,37 C13.346618,37.0001616 13.6685998,36.8208177 13.8509316,36.5260309 C14.0332634,36.2312442 14.0499383,35.8630616 13.895,35.553 L8.895,25.553 C8.72557542,25.2139484 8.37902596,24.9998234 8,25 L2,25 L2,22.9999956 L9.839,23 C10.1973279,22.998935 10.5288369,23.1896767 10.708,23.5 L17.556,35.485 C18.0906763,36.4197613 19.084129,36.9975274 20.161,37 L22,37 L22,39 C22,40.1045695 22.8954305,41 24,41 L26,41 L26,47 C26,48.1045695 25.1045695,49 24,49 L18.737,49 Z M39,3 C39.7975026,2.9969786 40.5200213,3.46966663 40.836695,4.20160741 C41.1533688,4.93354819 41.0032177,5.78379629 40.455,6.363 L40.445,6.371 C40.445,6.371 40.439,6.383 40.435,6.388 C40.0596972,6.77851428 39.541621,6.99946388 39,7 C38.8872312,6.99833988 38.7748153,6.98696446 38.664,6.966 L38.654,6.966 C37.6421581,6.77731126 36.9387517,5.85146083 37.0282083,4.82607062 C37.117665,3.80068041 37.9707698,3.01062243 39,3 Z M58,21.67 L45.312,9.615 L58,16.591 L58,21.67 Z" id="Shape"/></g></g></svg>
