<?xml version="1.0" encoding="UTF-8"?>
<svg xmlns="http://www.w3.org/2000/svg" xmlns:xlink="http://www.w3.org/1999/xlink" width="512" height="512" viewBox="0 0 60 60" version="1.1"><!-- Generator: Sketch 51.3 (57544) - http://www.bohemiancoding.com/sketch --><title>010 - Life Insurance</title><desc>Created with Sketch.</desc><defs/><g id="Page-1" stroke="none" stroke-width="1" fill="none" fill-rule="evenodd"><g id="010---Life-Insurance" transform="translate(-1.000000, 0.000000)" fill="#000000" fill-rule="nonzero"><path d="M60.4,6.129 L46.4,0.082 C46.1474495,-0.0279576698 45.8605505,-0.0279576698 45.608,0.082 L31.608,6.129 C31.2430788,6.28826415 31.007409,6.64883898 31.008,7.047 L31.008,15.492 C29.4356845,16.5894449 28.0779041,17.9658669 27.002,19.553 C24.3423486,15.4859077 19.8194627,13.0246495 14.96,13 C6.35,13 1,18.771 1,28.06 C0.944352447,31.1661674 1.65932878,34.237714 3.081,37 L2,37 C1.44771525,37 1,37.4477153 1,38 C1,38.5522847 1.44771525,39 2,39 L4.315,39 C5.67567951,40.8429405 7.22066388,42.5423898 8.926,44.072 C9.489,44.605 10.037,45.124 10.548,45.642 C14.235,49.379 25.856,59.342 26.348,59.76 C26.722224,60.0800877 27.273776,60.0800877 27.648,59.76 C28.142,59.337 39.763,49.379 43.448,45.642 C43.959,45.124 44.507,44.605 45.07,44.072 C46.9274837,42.4310984 48.5858409,40.577739 50.011,38.55 C51.1705554,36.7975747 52.0026868,34.8493844 52.467,32.8 L56.711,29.779 C59.3916324,27.8761389 60.9888869,24.7963313 61,21.509 L61,7.047 C61.000591,6.64883898 60.7649212,6.28826415 60.4,6.129 Z M3,28.06 C3,19.882 7.471,15 14.96,15 C22.449,15 25.751,21.234 26.1,21.945 C26.2696643,22.2864467 26.6187272,22.5017022 27,22.5 C27.379026,22.5001766 27.7255754,22.2860516 27.895,21.947 C28.678352,20.4590584 29.7311998,19.1295201 31,18.026 L31,21.509 C31.0104682,24.797038 32.6077945,27.8777289 35.289,29.781 L36.225,30.448 L34.257,37 L31,37 C30.620974,36.9998234 30.2744246,37.2139484 30.105,37.553 L28.583,40.6 L26.992,27.876 C26.9331591,27.4070617 26.5540527,27.0433445 26.0830797,27.003976 C25.6121067,26.9646075 25.1778772,27.2603381 25.042,27.713 L22.256,37 L19,37 C18.6852427,37 18.3888544,37.1481942 18.2,37.4 L16.627,39.5 L14.988,28.85 C14.9168657,28.3945949 14.5436711,28.0468035 14.0843889,28.0078974 C13.6251066,27.9689912 13.1987263,28.24905 13.052,28.686 L10.279,37 L5.379,37 C3.75354176,34.3062039 2.92839426,31.2053974 3,28.06 Z M48.345,37.45 C47.0042806,39.3491373 45.4452812,41.0843423 43.7,42.62 C43.119,43.169 42.555,43.704 42.029,44.238 C38.892,47.416 29.553,55.485 27,57.682 C24.447,55.482 15.108,47.416 11.972,44.238 C11.446,43.704 10.882,43.169 10.301,42.62 C9.05935226,41.4894397 7.89161437,40.2802832 6.805,39 L11,39 C11.4302393,38.9996733 11.8120445,38.7241936 11.948,38.316 L13.641,33.24 L15.012,42.152 C15.0733255,42.5496425 15.3669903,42.8718059 15.7572695,42.969594 C16.1475487,43.0673821 16.5584246,42.9217478 16.8,42.6 L19.5,39 L23,39 C23.4417682,39.0000307 23.8312125,38.7101833 23.958,38.287 L25.6,32.828 L27.012,44.128 C27.0664466,44.5652793 27.400708,44.9153805 27.835,44.99 C27.8896638,44.9975437 27.9448253,45.0008868 28,45 C28.379026,45.0001766 28.7255754,44.7860516 28.895,44.447 L31.618,39 L35,39 C35.4414931,39.0001632 35.83085,38.7107872 35.958,38.288 L37.626,32.739 L39.009,43.132 C39.0653142,43.5529464 39.3813721,43.8924055 39.7972313,43.9785928 C40.2130905,44.0647801 40.638027,43.8788928 40.857,43.515 L43.857,38.515 C44.0488041,38.2084974 44.0602165,37.8223288 43.8868476,37.5050342 C43.7134786,37.1877396 43.3823337,36.9887436 43.0207878,36.9845899 C42.659242,36.9804363 42.3236127,37.1717721 42.143,37.485 L40.614,40.033 L39.665,32.9 L44.965,36.673 C45.5844619,37.1142315 46.4155381,37.1142315 47.035,36.673 L49.784,34.716 C49.3958447,35.6726403 48.9138216,36.5884507 48.345,37.45 Z M59,21.509 C58.9902734,24.1503069 57.7057535,26.6243764 55.551,28.152 L46,34.951 L36.449,28.151 C34.294533,26.6235813 33.010049,24.1499534 33,21.509 L33,7.705 L46,2.089 L59,7.705 L59,21.509 Z" id="Shape"/><path d="M45.6,4.439 L35.6,8.759 C35.2350788,8.91826415 34.999409,9.27883898 35,9.677 L35,21.509 C35.0097397,23.5028766 35.980878,25.3695623 37.608,26.522 L45.42,32.083 C45.7671643,32.330178 46.2328357,32.330178 46.58,32.083 L54.392,26.523 C56.0192795,25.3702451 56.9904167,23.5031892 57,21.509 L57,9.677 C57.000591,9.27883898 56.7649212,8.91826415 56.4,8.759 L46.4,4.439 C46.1449495,4.32768685 45.8550505,4.32768685 45.6,4.439 Z M55,10.339 L55,21.509 C54.9910962,22.8566812 54.3323369,24.117224 53.231,24.894 L46,30.042 L38.769,24.894 C37.6675346,24.1173365 37.0087381,22.8567225 37,21.509 L37,10.334 L46,6.446 L55,10.339 Z" id="Shape"/><path d="M40.6,19.2 C40.3141875,18.9856406 39.9357266,18.9400436 39.6071797,19.0803848 C39.2786328,19.2207259 39.0499141,19.5256842 39.0071797,19.8803848 C38.9644453,20.2350853 39.1141875,20.5856406 39.4,20.8 L43.4,23.8 C43.8320438,24.1242308 44.4434866,24.0467489 44.781,23.625 L52.781,13.625 C53.1217114,13.1934254 53.0500699,12.5677379 52.6206245,12.2243466 C52.1911792,11.8809554 51.5650579,11.9487006 51.219,12.376 L43.819,21.619 L40.6,19.2 Z" id="Shape"/></g></g></svg>
