<?xml version="1.0" encoding="UTF-8"?>
<svg xmlns="http://www.w3.org/2000/svg" xmlns:xlink="http://www.w3.org/1999/xlink" width="512" height="512" viewBox="0 0 60 60" version="1.1"><!-- Generator: Sketch 51.3 (57544) - http://www.bohemiancoding.com/sketch --><title>011 - Travel Insurance</title><desc>Created with Sketch.</desc><defs/><g id="Page-1" stroke="none" stroke-width="1" fill="none" fill-rule="evenodd"><g id="011---Travel-Insurance" transform="translate(0.000000, -1.000000)" fill="#000000" fill-rule="nonzero"><path d="M22.808,40.589 C21.9578989,39.470916 20.7993346,38.6258906 19.475,38.158 C17.3688382,37.273094 15.4318729,36.0300529 13.75,34.484 C12.1888463,33.1982345 9.97101938,33.0829806 8.285,34.2 L6.122,29.146 C5.66202057,28.1040349 4.68110027,27.3866155 3.54874229,27.2639868 C2.4163843,27.1413582 1.30462076,27.6321504 0.632242236,28.5514868 C-0.0401362855,29.4708233 -0.170979487,30.6790349 0.289,31.721 L4.208,40.342 C4.7367119,41.509062 5.47222588,42.5708311 6.379,43.476 L12.542,49.64 C12.1949095,50.0078818 12.0010872,50.4942257 12,51 L12,59 C12,60.1045695 12.8954305,61 14,61 L25,61 C26.1045695,61 27,60.1045695 27,59 L27,51 C27,49.8954305 26.1045695,49 25,49 L25,47.139 C25.0306399,44.7706727 24.2579711,42.4618312 22.808,40.589 Z M25,59 L14,59 L14,51 L25,51 L25,59 Z M14.731,49 L7.793,42.062 C7.05613326,41.3261769 6.45820511,40.463331 6.028,39.515 L2.109,30.894 C1.94175327,30.5260467 1.97287988,30.0983304 2.19163714,29.7584681 C2.41039441,29.4186059 2.78682049,29.2131465 3.191,29.213 C3.66664654,29.2126156 4.09651136,29.4964366 4.283,29.934 L6.52,35.151 C7.11402167,36.5429028 7.97024427,37.8075456 9.042,38.876 L13.61,43.445 C13.8610745,43.7049566 14.2328779,43.8092126 14.5825073,43.7176972 C14.9321368,43.6261817 15.2051817,43.3531368 15.2966972,43.0035073 C15.3882126,42.6538779 15.2839566,42.2820745 15.024,42.031 L10.456,37.462 C9.99666328,37.0037722 9.5836624,36.5013381 9.223,35.962 C10.1833362,35.2230209 11.5268309,35.2454194 12.462,36.016 C14.3313425,37.731555 16.4918904,39.0996763 18.842,40.056 C19.7996453,40.4044679 20.6352544,41.0239652 21.247,41.839 C22.412398,43.3573757 23.0301832,45.2251802 23,47.139 L23,49 L14.731,49 Z" id="Shape"/><path d="M22,54 L21,54 C20.4477153,54 20,54.4477153 20,55 C20,55.5522847 20.4477153,56 21,56 L22,56 C22.5522847,56 23,55.5522847 23,55 C23,54.4477153 22.5522847,54 22,54 Z" id="Shape"/><path d="M55.792,40.342 L59.711,31.721 C60.1928642,30.6755112 60.0736536,29.4514456 59.3991191,28.5185774 C58.7245846,27.5857091 57.5995134,27.0889571 56.4556875,27.2189655 C55.3118616,27.348974 54.3269714,28.0855465 53.879,29.146 L51.721,34.181 C50.0292133,33.0691473 47.8100729,33.190833 46.25,34.481 C44.5681271,36.0270529 42.6311618,37.270094 40.525,38.155 C39.2006654,38.6228906 38.0421011,39.467916 37.192,40.586 C35.741385,42.4596396 34.9686796,44.7696481 35,47.139 L35,49 C33.8954305,49 33,49.8954305 33,51 L33,59 C33,60.1045695 33.8954305,61 35,61 L46,61 C47.1045695,61 48,60.1045695 48,59 L48,51 C47.9989128,50.4942257 47.8050905,50.0078818 47.458,49.64 L53.621,43.476 C54.5277741,42.5708311 55.2632881,41.509062 55.792,40.342 Z M46,59 L35,59 L35,51 L46,51 L46,59 Z M45.269,49 L37,49 L37,47.139 C36.9698168,45.2251802 37.587602,43.3573757 38.753,41.839 C39.3635264,41.0248642 40.1972635,40.4054671 41.153,40.056 C43.5035524,39.0999535 45.6644757,37.731809 47.534,36.016 C48.4681478,35.2395601 49.8154192,35.2134035 50.779,35.953 C50.4172837,36.4963142 50.0022252,37.0021563 49.54,37.463 L44.972,42.032 C44.5930278,42.4243789 44.5984476,43.0480848 44.9841814,43.4338186 C45.3699152,43.8195524 45.9936211,43.8249722 46.386,43.446 L50.954,38.877 C52.0257557,37.8085456 52.8819783,36.5439028 53.476,35.152 L55.713,29.934 C55.9000073,29.4970055 56.3296729,29.2137095 56.805,29.214 C57.2091795,29.2141465 57.5856056,29.4196059 57.8043629,29.7594681 C58.0231201,30.0993304 58.0542467,30.5270467 57.887,30.895 L53.968,39.516 C53.5377949,40.464331 52.9398667,41.3271769 52.203,42.063 L45.269,49 Z" id="Shape"/><path d="M39,54 L38,54 C37.4477153,54 37,54.4477153 37,55 C37,55.5522847 37.4477153,56 38,56 L39,56 C39.5522847,56 40,55.5522847 40,55 C40,54.4477153 39.5522847,54 39,54 Z" id="Shape"/><path d="M56.517,13.581 C54.822167,12.641288 52.9353043,12.1005721 51,12 L37.412,12 L33.071,6.728 C32.6911611,6.26712333 32.125231,6.00011292 31.528,6 L24.662,6 C23.9611956,6.00172531 23.3124183,6.37013363 22.9518864,6.9710883 C22.5913545,7.57204298 22.57167,8.31786416 22.9,8.937 L24.518,12 L15.2,12 L2.792,6.685 C2.17430431,6.41468187 1.46181501,6.47500596 0.898360197,6.84532816 C0.334905381,7.21565036 -0.00310611446,7.84575211 -1.62515129e-16,8.52 L-1.62515129e-16,12.51 C-0.00362485385,13.1307388 0.28538765,13.7169154 0.78,14.092 L13.116,23.58 C13.4655558,23.8529317 13.8965135,24.0008093 14.34,24 L26.222,24 L20.9,34.057 C20.5688973,34.6762722 20.5868332,35.4238259 20.9472538,36.0265066 C21.3076744,36.6291872 21.9577712,36.9986902 22.66,37 L29.53,37 C30.1262216,37.0005743 30.6916107,36.7351127 31.072,36.276 L34.592,32 L40,32 C41.6534434,31.9917942 42.9917942,30.6534434 43,29 C43,27.3431458 41.6568542,26 40,26 L39.53,26 L41.177,24 L51,24 C54.161,24 60,21.526 60,18 C60,16.389 58.765,14.821 56.517,13.581 Z M24.662,8 L31.528,8 L34.821,12 L26.782,12 L24.662,8 Z M51,22 L42.824,22 L44.772,19.636 C45.1232531,19.2096362 45.0623638,18.5792531 44.636,18.228 C44.2096362,17.8767469 43.5792531,17.9376362 43.228,18.364 L36.638,26.364 C36.6140581,26.4020379 36.5929991,26.4418159 36.575,26.483 C36.5352039,26.5398848 36.5016756,26.6009061 36.475,26.665 C36.4541585,26.7299924 36.4404118,26.7970495 36.434,26.865 C36.4223604,26.9092765 36.4143341,26.9544248 36.41,27 C36.41,27.017 36.419,27.03 36.42,27.047 C36.439175,27.1751957 36.4699684,27.301382 36.512,27.424 C36.5405778,27.4766983 36.5740592,27.5265856 36.612,27.573 C36.649774,27.6315103 36.6936898,27.6858183 36.743,27.735 C36.755,27.746 36.761,27.761 36.773,27.772 C36.8219478,27.8055981 36.8738243,27.8347159 36.928,27.859 C36.9661658,27.8847608 37.0062882,27.9074968 37.048,27.927 C37.1630883,27.9735959 37.2858478,27.9983512 37.41,28 L40,28 C40.5522847,28 41,28.4477153 41,29 C41.0008733,29.2694422 40.8900917,29.5272084 40.694,29.712 C40.5116037,29.8985985 40.2609224,30.0026276 40,30 L34.12,30 C34.104,30 34.09,30.009 34.074,30.009 C34.0026807,30.0158956 33.9322898,30.030309 33.864,30.052 C33.8069432,30.0631561 33.751039,30.0795591 33.697,30.101 C33.643377,30.1296067 33.5924964,30.1630808 33.545,30.201 C33.4871412,30.2384457 33.4334967,30.2820318 33.385,30.331 C33.374,30.343 33.359,30.348 33.348,30.361 L29.53,35 L22.664,35 L30.884,19.47 C31.1424693,18.9817803 30.9562197,18.3764693 30.468,18.118 C29.9797803,17.8595307 29.3744693,18.0457803 29.116,18.534 L27.281,22 L14.34,22 L2,12.51 L2,8.52 L14.452,13.853 C14.6932912,13.9488327 14.9503779,13.9986899 15.21,14 L51,14 C52.5994047,14.1004217 54.1562406,14.5565059 55.557,15.335 C57.087,16.179 58,17.175 58,18 C58,19.944 53.448,22 51,22 Z" id="Shape"/><path d="M18,16 C17.4477153,16 17,16.4477153 17,17 L17,19 C17,19.5522847 17.4477153,20 18,20 C18.5522847,20 19,19.5522847 19,19 L19,17 C19,16.4477153 18.5522847,16 18,16 Z" id="Shape"/><path d="M22,16 C21.4477153,16 21,16.4477153 21,17 L21,19 C21,19.5522847 21.4477153,20 22,20 C22.5522847,20 23,19.5522847 23,19 L23,17 C23,16.4477153 22.5522847,16 22,16 Z" id="Shape"/><path d="M26,16 C25.4477153,16 25,16.4477153 25,17 L25,19 C25,19.5522847 25.4477153,20 26,20 C26.5522847,20 27,19.5522847 27,19 L27,17 C27,16.4477153 26.5522847,16 26,16 Z" id="Shape"/><path d="M48,16 C47.4477153,16 47,16.4477153 47,17 L47,19 C47,19.5522847 47.4477153,20 48,20 C48.5522847,20 49,19.5522847 49,19 L49,17 C49,16.4477153 48.5522847,16 48,16 Z" id="Shape"/><path d="M56,4 C54.9423216,4.0040086 53.9294874,4.42770133 53.184,5.178 C51.8544375,4.02342545 50.0006576,3.68672318 48.35,4.3 C47.1022092,1.81642763 44.3107713,0.516445478 41.6068174,1.15967682 C38.9028634,1.80290815 36.9958048,4.22059432 37,7 C37,7.55228475 37.4477153,8 38,8 C38.5522847,8 39,7.55228475 39,7 C38.9982887,5.11941288 40.3068186,3.49159274 42.143822,3.08906404 C43.9808254,2.68653533 45.8501554,3.61801497 46.635,5.327 C45.5968055,6.26626264 45.0031137,7.59998125 45,9 C45,9.55228475 45.4477153,10 46,10 C46.5522847,10 47,9.55228475 47,9 C47.0000001,7.3431458 48.3431458,6.00000013 50,6.00000013 C51.6568542,6.00000013 52.9999999,7.3431458 53,9 C53,9.55228475 53.4477153,10 54,10 C54.5522847,10 55,9.55228475 55,9 C54.994553,8.22160914 54.8054237,7.45549859 54.448,6.764 C54.8207478,6.28474362 55.3928608,6.00311068 56,6 C57.1045695,6 58,6.8954305 58,8 C58,8.55228475 58.4477153,9 59,9 C59.5522847,9 60,8.55228475 60,8 C60,6.93913404 59.5785726,5.92171839 58.8284271,5.17157288 C58.0782816,4.42142736 57.060866,4 56,4 Z" id="Shape"/><path d="M16,7 C16.5522847,7 17,6.55228475 17,6 C16.9997703,5.16533219 17.5179075,4.41828775 18.2997421,4.12604643 C19.0815768,3.8338051 19.9626876,4.05782575 20.51,4.688 C20.7420488,4.96583927 21.1061343,5.09657851 21.4619226,5.02982532 C21.8177109,4.96307213 22.1096449,4.70925019 22.2252008,4.36619314 C22.3407567,4.02313609 22.2618903,3.64441313 22.019,3.376 C21.3325045,2.57923857 20.357452,2.08803294 19.3085934,2.01056896 C18.2597349,1.93310498 17.2230989,2.27573634 16.427,2.963 C15.0652301,1.46279582 13.0373836,0.752661341 11.0371879,1.07553394 C9.03699213,1.39840654 7.33557794,2.71052014 6.515,4.563 C6.36268548,4.89053876 6.39885164,5.27476175 6.60961045,5.56812513 C6.82036927,5.86148851 7.172957,6.01838715 7.53197793,5.97857108 C7.89099887,5.93875501 8.20064101,5.70841388 8.342,5.376 C8.92378307,4.06733746 10.1608217,3.16957088 11.5853706,3.02216104 C13.0099195,2.8747512 14.4045772,3.50019442 15.242,4.662 C15.0844622,5.09062149 15.0025783,5.54335144 15,6 C15,6.55228475 15.4477153,7 16,7 Z" id="Shape"/><path d="M34,16 C33.4477153,16 33,16.4477153 33,17 L33,19 C33,19.5522847 33.4477153,20 34,20 C34.5522847,20 35,19.5522847 35,19 L35,17 C35,16.4477153 34.5522847,16 34,16 Z" id="Shape"/><path d="M38,16 C37.4477153,16 37,16.4477153 37,17 L37,19 C37,19.5522847 37.4477153,20 38,20 C38.5522847,20 39,19.5522847 39,19 L39,17 C39,16.4477153 38.5522847,16 38,16 Z" id="Shape"/></g></g></svg>
