<?xml version="1.0" encoding="UTF-8"?>
<svg xmlns="http://www.w3.org/2000/svg" xmlns:xlink="http://www.w3.org/1999/xlink" width="512" height="512" viewBox="0 0 60 60" version="1.1"><!-- Generator: Sketch 51.3 (57544) - http://www.bohemiancoding.com/sketch --><title>012 - Money Cover</title><desc>Created with Sketch.</desc><defs/><g id="Page-1" stroke="none" stroke-width="1" fill="none" fill-rule="evenodd"><g id="012---Money-Cover" fill="#000000" fill-rule="nonzero"><path d="M59.4,6.13 L45.4,0.082 C45.1472508,-0.0269993194 44.8607492,-0.0269993194 44.608,0.082 L30.6,6.13 C30.2350788,6.28926415 29.999409,6.64983898 30,7.048 L30,21.509 C30,21.576 30.011,21.64 30.012,21.709 C25.6840816,20.6783494 21.1625851,20.7903444 16.891,22.034 C15.5775082,19.5008408 12.9933107,17.8794961 10.141,17.799 C9.06410282,17.6901495 8.0284565,18.2439436 7.521,19.2 C7.21529042,20.1126563 7.52593128,21.1186176 8.293,21.7 C9.29452297,22.7796201 9.91724972,24.1560077 10.067,25.621 C7.84730098,27.4057272 6.12321749,29.7306746 5.06,32.373 C4.9124165,32.7520743 4.54678818,33.0012579 4.14,33 L3,33 C1.34314575,33 2.02906125e-16,34.3431458 0,36 L0,42 C2.02906125e-16,43.6568542 1.34314575,45 3,45 L5.1,45 C5.47874663,45.0150884 5.81949303,45.2344678 5.99,45.573 C6.87213354,47.0145116 7.9911749,48.2968451 9.3,49.366 C9.85152578,49.8383797 10.1088846,50.5692786 9.975,51.283 L8.94,56.411 C8.76357205,57.2921242 8.99141624,58.2059348 9.56086365,58.9010868 C10.1303111,59.5962387 10.9813864,59.9995173 11.88,60 L16.04,60 C17.1938298,59.9990001 18.2456187,59.3387191 18.748,58.3 C19.444,56.794 21,55 24.44,55 C27.88,55 29.44,56.794 30.14,58.312 C30.6424911,59.3452857 31.6910109,60.0008048 32.84,60 L37,60 C37.8981865,59.9993978 38.7488504,59.5963872 39.3182171,58.9017211 C39.8875837,58.207055 40.1157454,57.2938251 39.94,56.413 L39.052,52 C38.9124253,51.2356018 39.215284,50.4577618 39.835,49.989 C43.6614881,47.1849282 45.9453087,42.7436103 46,38 C45.9980596,37.5734031 45.9743622,37.1471827 45.929,36.723 C45.963,36.702 46.002,36.694 46.035,36.67 L47.8,35.414 C47.9277344,35.5828574 47.9978454,35.7882826 48,36 L48,38 C48,38.5522847 48.4477153,39 49,39 C49.5522847,39 50,38.5522847 50,38 L50,36 C49.9988692,35.3719957 49.7997643,34.7603342 49.431,34.252 L55.711,29.782 C58.3923631,27.8784118 59.9896883,24.7973506 60,21.509 L60,7.048 C60.000591,6.64983898 59.7649212,6.28926415 59.4,6.13 Z M38.6,48.412 C37.3837947,49.3438249 36.7971805,50.881946 37.084,52.387 L37.975,56.809 C38.0337313,57.1000435 37.9580456,57.4020514 37.769,57.631 C37.5806072,57.8626336 37.2985664,57.9979692 37,58 L32.84,58 C32.4633059,58.0074667 32.1160226,57.7972279 31.948,57.46 C31.177,55.794 29.176,53 24.44,53 C19.704,53 17.703,55.794 16.94,57.448 C16.7732288,57.7916869 16.4219455,58.0071406 16.04,58 L11.88,58 C11.5811729,57.9996418 11.2981653,57.8656623 11.1084837,57.634754 C10.9188021,57.4038456 10.8423261,57.1002089 10.9,56.807 L11.932,51.672 C12.2039561,50.255614 11.6996334,48.8017311 10.609,47.858 C9.47692538,46.9389243 8.50566305,45.83789 7.735,44.6 C7.21307115,43.6270889 6.20397448,43.0143547 5.1,43 L3,43 C2.44771525,43 2,42.5522847 2,42 L2,36 C2,35.4477153 2.44771525,35 3,35 L4.14,35 C5.3692751,35.0038596 6.4743328,34.2512601 6.921,33.106 C7.92668479,30.6273684 9.58849476,28.46947 11.728,26.864 C11.9979614,26.6574103 12.1444852,26.327826 12.117,25.989 C12.0104732,23.864365 11.1569383,21.8456312 9.707,20.289 C9.59828182,20.1857787 9.50438916,20.0679922 9.428,19.939 C9.9009696,19.7638471 10.415116,19.7321913 10.906,19.848 C12.9746176,20.2683167 14.6931342,21.7008523 15.479,23.66 C15.6936886,24.1328545 16.2345966,24.3626861 16.724,24.189 C21.1094202,22.7422758 25.8236861,22.6184633 30.279,23.833 C30.4706274,24.6400188 30.7604553,25.4205055 31.142,26.157 C28.8381755,25.3933058 26.4271029,25.0027134 24,25 C23.4477153,25 23,25.4477153 23,26 C23,26.5522847 23.4477153,27 24,27 C27.6117575,26.9895584 31.1603876,27.9467252 34.277,29.772 L34.289,29.782 L43.9,36.624 C43.9635723,37.0799668 43.9969782,37.5396327 44,38 C43.9374386,42.1267204 41.9371442,45.9835842 38.6,48.412 Z M58,21.509 C57.9902639,24.1505786 56.7057822,26.624947 54.551,28.153 L45,34.952 L35.631,28.282 C35.5973153,28.2458901 35.5608719,28.2124559 35.522,28.182 C35.48,28.156 35.434,28.134 35.392,28.108 C33.2709913,26.5774345 32.0101764,24.1245697 32,21.509 L32,7.705 L45,2.089 L58,7.705 L58,21.509 Z" id="Shape"/><path d="M44.6,4.439 L34.6,8.759 C34.2350788,8.91826415 33.999409,9.27883898 34,9.677 L34,21.509 C34.009086,23.503312 34.9803344,25.3705817 36.608,26.523 L44.42,32.084 C44.7671643,32.331178 45.2328357,32.331178 45.58,32.084 L53.392,26.523 C55.0194082,25.3703573 55.9905824,23.5032302 56,21.509 L56,9.677 C56.000591,9.27883898 55.7649212,8.91826415 55.4,8.759 L45.4,4.439 C45.1449495,4.32768685 44.8550505,4.32768685 44.6,4.439 Z M54,10.339 L54,21.509 C53.9926973,22.8587211 53.3337961,24.1217704 52.231,24.9 L45,30.042 L37.769,24.894 C36.6675346,24.1173365 36.0087381,22.8567225 36,21.509 L36,10.334 L45,6.447 L54,10.339 Z" id="Shape"/><path d="M39.6,19.2 C39.3141875,18.9856406 38.9357266,18.9400436 38.6071797,19.0803848 C38.2786328,19.2207259 38.0499141,19.5256842 38.0071797,19.8803848 C37.9644453,20.2350853 38.1141875,20.5856406 38.4,20.8 L42.4,23.8 C42.8320438,24.1242308 43.4434866,24.0467489 43.781,23.625 L51.781,13.625 C52.126178,13.1936656 52.0563344,12.564178 51.625,12.219 C51.1936656,11.873822 50.564178,11.9436656 50.219,12.375 L42.825,21.619 L39.6,19.2 Z" id="Shape"/></g></g></svg>
