<?xml version="1.0" encoding="UTF-8"?>
<svg xmlns="http://www.w3.org/2000/svg" xmlns:xlink="http://www.w3.org/1999/xlink" width="512" height="512" viewBox="0 0 60 60" version="1.1"><!-- Generator: Sketch 51.3 (57544) - http://www.bohemiancoding.com/sketch --><title>013 - Life Cover</title><desc>Created with Sketch.</desc><defs/><g id="Page-1" stroke="none" stroke-width="1" fill="none" fill-rule="evenodd"><g id="013---Life-Cover" transform="translate(-1.000000, 0.000000)" fill="#000000" fill-rule="nonzero"><path d="M31,0 C30.4477153,-3.38176876e-17 30,0.44771525 30,1 L30,2.027 C4.364,2.6 1.04,24.639 1.009,24.865 C0.94994128,25.2911992 1.17012866,25.7073964 1.55569834,25.8983668 C1.94126802,26.0893372 2.40577002,26.0122626 2.709,25.707 C2.925,25.491 8.048,20.463 12.295,24.707 C12.3332055,24.7367533 12.3736601,24.7635 12.416,24.787 C12.4708613,24.833459 12.5309299,24.8733929 12.595,24.906 C12.6629914,24.9325795 12.7337766,24.9513661 12.806,24.962 C12.8508137,24.9770384 12.8965824,24.9890652 12.943,24.998 C12.9619559,24.9995978 12.9809787,25.0002653 13,25 C13.1282103,25.0000392 13.255215,24.9752495 13.374,24.927 C13.383,24.927 13.39,24.915 13.399,24.911 C13.5082781,24.8626426 13.6078877,24.794881 13.693,24.711 L13.706,24.703 C14.6752409,23.8099023 15.8194006,23.1278332 17.066,22.7 C19.666,21.833 22.094,22.509 24.293,24.708 C24.3755502,24.7868608 24.4709094,24.8511099 24.575,24.898 C24.599,24.909 24.623,24.92 24.648,24.929 C24.7572689,24.9723882 24.8734534,24.9957606 24.991,24.998 L25,25 C25.01,25 25.017,25 25.027,25 C25.0942396,24.9994572 25.1612502,24.992086 25.227,24.978 C25.2652916,24.966702 25.3027214,24.9526658 25.339,24.936 C25.365,24.927 25.389,24.919 25.414,24.908 C25.5156076,24.8616088 25.608861,24.7987641 25.69,24.722 C25.704,24.708 25.714,24.692 25.728,24.677 C25.7935637,24.6050751 25.848152,24.5238666 25.89,24.436 C25.902734,24.4133734 25.9140881,24.3899974 25.924,24.366 C25.93,24.351 25.94,24.337 25.946,24.321 C26.3703649,23.4779063 27.1074834,22.834094 28,22.527 L28,28 C28,29.6568542 29.3431458,31 31,31 C32.6568542,31 34,29.6568542 34,28 L34,22.521 C34.8942079,22.8244445 35.6317159,23.4698988 36.051,24.316 C36.057,24.333 36.067,24.346 36.073,24.362 C36.079,24.378 36.095,24.406 36.106,24.429 C36.1480174,24.5186977 36.2036775,24.6013445 36.271,24.674 C36.284,24.688 36.293,24.703 36.307,24.716 C36.3878568,24.7938431 36.4815723,24.8571095 36.584,24.903 C36.608,24.914 36.632,24.922 36.657,24.931 C36.6936856,24.9475098 36.731437,24.9615413 36.77,24.973 C36.8357735,24.9868188 36.9027907,24.9938556 36.97,24.994 C36.9798832,24.9965452 36.9898981,24.9985482 37,25 L37.009,25 C37.1258986,24.997761 37.241427,24.9743843 37.35,24.931 C37.376,24.921 37.4,24.911 37.425,24.899 C37.5289444,24.8528194 37.6240363,24.7888608 37.706,24.71 C42.913,19.504 48.077,24.497 48.292,24.71 L48.306,24.719 C48.3850748,24.7924928 48.4755935,24.8526134 48.574,24.897 C48.592,24.906 48.607,24.923 48.625,24.93 L48.643,24.93 C48.7566544,24.9751854 48.8776977,24.9989193 49,25 L49.057,25 C49.101756,24.991398 49.1458618,24.9797033 49.189,24.965 C49.3351455,24.951301 49.4728051,24.890197 49.581,24.791 C49.6239442,24.7667018 49.6650538,24.7392953 49.704,24.709 C53.931,20.483 59.075,25.495 59.291,25.709 C59.5943419,26.0145156 60.0591757,26.0915873 60.4448866,25.90032 C60.8305976,25.7090528 61.0505949,25.2923854 60.991,24.866 C60.96,24.639 57.636,2.6 32,2.027 L32,1 C32,0.44771525 31.5522847,3.38176876e-17 31,0 Z M3.6,22.51 C5.073,17.548 9.835,7.139 24.145,4.579 C15.445,9.479 12.945,18.318 12.252,22.122 C11.1352313,21.396545 9.83171101,21.0112561 8.5,21.013 C6.762018,21.0638189 5.06964477,21.5808562 3.6,22.51 Z M14.361,21.722 C15.261,17.466 18.298,8.543 28.327,4.845 C25.077,10.179 24.268,18.166 24.068,21.923 C21.1729637,19.8911277 17.3366573,19.8116986 14.36,21.722 L14.361,21.722 Z M32,28 C32,28.5522847 31.5522847,29 31,29 C30.4477153,29 30,28.5522847 30,28 L30,22.054 C30.3321796,22.0187738 30.6659587,22.0007497 31,22 C31.3340105,22.0009097 31.6677645,22.0185987 32,22.053 L32,28 Z M31,20 C29.283964,19.9296438 27.5855336,20.369127 26.119,21.263 C26.412,17.024 27.438,8.9 31,4.5 C34.558,8.895 35.585,17.018 35.88,21.259 C34.4134116,20.3664961 32.7153188,19.9284021 31,20 Z M37.933,21.923 C37.733,18.165 36.923,10.173 33.671,4.839 C43.844,8.554 46.818,17.479 47.671,21.739 C44.6901765,19.8123519 40.8389135,19.8851217 37.933,21.923 Z M58.4,22.51 C56.028,21.085 52.762,20.2 49.747,22.121 C49.059,18.321 46.552,9.474 37.854,4.579 C52.165,7.139 56.927,17.548 58.4,22.51 Z" id="Shape"/><path d="M12,46 C12,46.5522847 12.4477153,47 13,47 L16.006,47 C16.9432376,48.2421687 18.0214481,49.371387 19.219,50.365 C19.573,50.678 19.919,50.983 20.237,51.288 C22.611,53.541 30.058,59.526 30.374,59.78 C30.7397062,60.0735693 31.2602938,60.0735693 31.626,59.78 C31.942,59.526 39.389,53.541 41.763,51.288 C42.084,50.988 42.427,50.678 42.781,50.365 C43.9785519,49.371387 45.0567624,48.2421687 45.994,47 L49,47 C49.5522847,47 50,46.5522847 50,46 C50,45.4477153 49.5522847,45 49,45 L47.116,45 C47.7205626,43.5560962 48.0214719,42.0032134 48,40.438 C48,34.616 44.438,31 38.7,31 C35.6952977,30.9776664 32.8505197,32.3516572 31,34.719 C29.1494803,32.3516572 26.3047023,30.9776664 23.3,31 C17.566,31 14,34.616 14,40.438 C13.9785281,42.0032134 14.2794374,43.5560962 14.884,45 L13,45 C12.4477153,45 12,45.4477153 12,46 Z M41.453,48.869 C41.083,49.198 40.723,49.518 40.386,49.837 C38.464,51.661 32.881,56.2 31,57.715 C29.119,56.196 23.536,51.661 21.614,49.837 C21.277,49.518 20.914,49.198 20.547,48.869 C19.878,48.275 19.21,47.669 18.591,47 L26,47 C26.4306074,47.0001037 26.8129281,46.7245428 26.949,46.316 L27.9,43.45 L30.031,51.263 C30.1451355,51.6817827 30.5163982,51.9791161 30.95,51.999 L31,51.999 C31.4171213,51.9992605 31.7905905,51.7405823 31.937,51.35 L34.03,45.767 L35.071,48.367 C35.2174921,48.732361 35.5646986,48.9777933 35.958,48.994 C36.3506192,49.0059757 36.7151645,48.7912169 36.895,48.442 L37.618,47 L43.409,47 C42.79,47.667 42.122,48.275 41.453,48.869 Z M16,40.438 C16,35.78 18.728,33 23.3,33 C26.1247929,32.9847209 28.7355158,34.503144 30.119,36.966 C30.3087847,37.2724179 30.6435695,37.4588613 31.004,37.4588613 C31.3644305,37.4588613 31.6992153,37.2724179 31.889,36.966 C33.2710914,34.5056566 35.8780657,32.9876328 38.7,33 C43.268,33 46,35.78 46,40.438 C46.0329164,42.0307898 45.6459496,43.604179 44.878,45 L37,45 C36.6191744,44.9979212 36.2702259,45.2123306 36.1,45.553 L36.1,45.561 L34.927,42.628 C34.775144,42.2490805 34.4082156,42.0005033 34,42 L33.989,42 C33.5759094,42.0042946 33.2079803,42.2621629 33.063,42.649 L31.15,47.749 L28.965,39.735 C28.8485024,39.3104589 28.4680702,39.0120409 28.028,39 C27.5836609,38.9757502 27.1802457,39.2581822 27.051,39.684 L25.279,45 L17.122,45 C16.3540504,43.604179 15.9670836,42.0307898 16,40.438 Z" id="Shape"/></g></g></svg>
