<?xml version="1.0" encoding="UTF-8"?>
<svg xmlns="http://www.w3.org/2000/svg" xmlns:xlink="http://www.w3.org/1999/xlink" width="512" height="512" viewBox="0 0 60 60" version="1.1"><!-- Generator: Sketch 51.3 (57544) - http://www.bohemiancoding.com/sketch --><title>014 - Device Cover</title><desc>Created with Sketch.</desc><defs/><g id="Page-1" stroke="none" stroke-width="1" fill="none" fill-rule="evenodd"><g id="014---Device-Cover" fill="#000000" fill-rule="nonzero"><path d="M59.4,29.129 L45.4,23.082 C45.1474495,22.9720423 44.8605505,22.9720423 44.608,23.082 L42,24.206 L42,5 C41.9966939,2.23994685 39.7600532,0.00330611633 37,0 L7,0 C4.23994685,0.00330611633 2.00330612,2.23994685 2,5 L2,8 L1,8 C0.44771525,8 6.76353751e-17,8.44771525 0,9 L0,13 C6.76353751e-17,13.5522847 0.44771525,14 1,14 L2,14 L2,16 L1,16 C0.44771525,16 6.76353751e-17,16.4477153 0,17 L0,21 C6.76353751e-17,21.5522847 0.44771525,22 1,22 L2,22 L2,55 C2.00330612,57.7600532 4.23994685,59.9966939 7,60 L37,60 C38.7012986,60.0023962 40.2857068,59.134744 41.2,57.7 L43.967,59.67 C44.5868485,60.1100206 45.4171515,60.1100206 46.037,59.67 L55.712,52.782 C58.3933714,50.8785305 59.9904167,47.7972909 60,44.509 L60,30.047 C60.000591,29.648839 59.7649212,29.2882641 59.4,29.129 Z M30.608,29.129 C30.2430788,29.2882641 30.007409,29.648839 30.008,30.047 L30.008,44.509 C30.0136578,47.3601723 31.2160203,50.0780049 33.322,52 L4,52 L4,8 L40,8 L40,25.07 L30.608,29.129 Z M7,2 L37,2 C38.6568542,2 40,3.34314575 40,5 L40,6 L4,6 L4,5 C4,3.34314575 5.34314575,2 7,2 Z M37,58 L23,58 L23,57 C23,56.4477153 22.5522847,56 22,56 C21.4477153,56 21,56.4477153 21,57 L21,58 L7,58 C5.34314575,58 4,56.6568542 4,55 L4,54 L36,54 L39.568,56.54 C39.0296835,57.4458011 38.0536887,58.0006891 37,58 Z M58,44.509 C57.9902734,47.1503069 56.7057535,49.6243764 54.551,51.152 L45,57.951 L35.449,51.151 C33.294533,49.6235813 32.010049,47.1499534 32,44.509 L32,30.709 L41.377,26.658 L41.4,26.648 L45,25.089 L58,30.705 L58,44.509 Z" id="Shape"/><path d="M44.6,27.439 L34.6,31.759 C34.2350788,31.9182641 33.999409,32.278839 34,32.677 L34,44.509 C34.0094083,46.5029585 34.9806207,48.3697867 36.608,49.522 L44.42,55.083 C44.7671643,55.330178 45.2328357,55.330178 45.58,55.083 L53.392,49.523 C55.0192795,48.3702451 55.9904167,46.5031892 56,44.509 L56,32.677 C56.000591,32.278839 55.7649212,31.9182641 55.4,31.759 L45.4,27.439 C45.1449495,27.3276869 44.8550505,27.3276869 44.6,27.439 Z M54,33.339 L54,44.509 C53.9910962,45.8566812 53.3323369,47.117224 52.231,47.894 L45,53.042 L37.769,47.894 C36.6675346,47.1173365 36.0087381,45.8567225 36,44.509 L36,33.334 L45,29.446 L54,33.339 Z" id="Shape"/><path d="M39.6,42.2 C39.3141875,41.9856406 38.9357266,41.9400436 38.6071797,42.0803848 C38.2786328,42.2207259 38.0499141,42.5256842 38.0071797,42.8803848 C37.9644453,43.2350853 38.1141875,43.5856406 38.4,43.8 L42.4,46.8 C42.8320438,47.1242308 43.4434866,47.0467489 43.781,46.625 L51.781,36.625 C52.1217114,36.1934254 52.0500699,35.5677379 51.6206245,35.2243466 C51.1911792,34.8809554 50.5650579,34.9487006 50.219,35.376 L42.825,44.619 L39.6,42.2 Z" id="Shape"/><path d="M7,15 C7.26519481,14.9999434 7.51950727,14.8945494 7.707,14.707 L10.707,11.707 C11.0859722,11.3146211 11.0805524,10.6909152 10.6948186,10.3051814 C10.3090848,9.91944763 9.68537889,9.91402779 9.293,10.293 L6.293,13.293 C6.00709208,13.5789943 5.92157809,14.0090366 6.07632202,14.3826546 C6.23106595,14.7562725 6.5956041,14.9999137 7,15 Z" id="Shape"/><path d="M7,22 C7.26519481,21.9999434 7.51950727,21.8945494 7.707,21.707 L17.707,11.707 C18.0859722,11.3146211 18.0805524,10.6909152 17.6948186,10.3051814 C17.3090848,9.91944763 16.6853789,9.91402779 16.293,10.293 L6.293,20.293 C6.00709208,20.5789943 5.92157809,21.0090366 6.07632202,21.3826546 C6.23106595,21.7562725 6.5956041,21.9999137 7,22 Z" id="Shape"/><path d="M23.293,10.293 L6.293,27.293 C6.03304342,27.5440745 5.9287874,27.9158779 6.02030284,28.2655073 C6.11181828,28.6151368 6.38486324,28.8881817 6.73449268,28.9796972 C7.08412211,29.0712126 7.45592553,28.9669566 7.707,28.707 L24.707,11.707 C25.0859722,11.3146211 25.0805524,10.6909152 24.6948186,10.3051814 C24.3090848,9.91944763 23.6853789,9.91402779 23.293,10.293 Z" id="Shape"/></g></g></svg>
