<?xml version="1.0" encoding="UTF-8"?>
<svg xmlns="http://www.w3.org/2000/svg" xmlns:xlink="http://www.w3.org/1999/xlink" width="512" height="512" viewBox="0 0 60 60" version="1.1"><!-- Generator: Sketch 51.3 (57544) - http://www.bohemiancoding.com/sketch --><title>016 - Money Cover</title><desc>Created with Sketch.</desc><defs/><g id="Page-1" stroke="none" stroke-width="1" fill="none" fill-rule="evenodd"><g id="016---Money-Cover" fill="#000000" fill-rule="nonzero"><path d="M5.729,58.407 C9.12,60 13.746,59.991 18.641,60 L19.7,60 C24.468,60 28.955,59.964 32.266,58.407 C36.18,56.568 38,52.943 38,47 C37.9615158,43.9973062 37.5926278,41.0079715 36.9,38.086 L41.9,41.647 C42.5587483,42.1147422 43.4412517,42.1147422 44.1,41.647 L55.157,33.776 C58.1834633,31.6275378 59.9869671,28.1504957 60,24.439 L60,7.912 C60.000591,7.51383898 59.7649212,7.15326415 59.4,6.994 L43.4,0.082 C43.1472508,-0.0269993194 42.8607492,-0.0269993194 42.608,0.082 L31.971,4.682 C31.8124226,3.15968987 30.5305452,2.00250535 29,2 L27,2 C23.6256103,2.00445053 20.5372204,3.89608931 19,6.9 C17.4627796,3.89608931 14.3743897,2.00445053 11,2 L9,2 C7.34314575,2 6,3.34314575 6,5 L6,7 C6.00753368,11.3730327 9.15476093,15.1089681 13.463,15.859 C5.673,21.106 0,36.362 0,47 C0,52.943 1.82,56.568 5.729,58.407 Z M43,2.089 L58,8.569 L58,24.439 C57.989395,27.5034632 56.4996486,30.3742044 54,32.147 L43,39.977 L32,32.147 C29.5006092,30.37398 28.010937,27.5033816 28,24.439 L28,8.569 L43,2.089 Z M27,4 L29,4 C29.5522847,4 30,4.44771525 30,5 L30,5.526 L26.6,6.994 C26.2350788,7.15326415 25.999409,7.51383898 26,7.912 L26,13.305 C25.0655312,13.761435 24.0399744,14.0007316 23,14.005 L21.414,14.005 L23.707,11.712 C24.0859722,11.3196211 24.0805524,10.6959152 23.6948186,10.3101814 C23.3090848,9.92444763 22.6853789,9.91902779 22.293,10.298 L20,12.586 L20,11 C20.0044086,7.13583434 23.1358343,4.00440864 27,4 Z M26,16.953 C25.5476267,16.5555652 25.0721287,16.1852511 24.576,15.844 C25.0603361,15.7572871 25.5366382,15.6305185 26,15.465 L26,16.953 Z M8,7 L8,5 C8,4.44771525 8.44771525,4 9,4 L11,4 C14.8641657,4.00440864 17.9955914,7.13583434 18,11 L18,12.586 L13.707,8.293 C13.3146211,7.91402779 12.6909152,7.91944763 12.3051814,8.30518142 C11.9194476,8.69091522 11.9140278,9.31462111 12.293,9.707 L16.586,14 L15,14 C11.1358343,13.9955914 8.00440864,10.8641657 8,7 Z M19,16 C21.34,16 23.693,17.26 26,19.722 L26,24.439 C26.0128026,28.1503138 27.8159154,31.62732 30.842,33.776 L34.378,36.294 C35.3850401,39.7762662 35.93037,43.3757125 36,47 C36,52.147 34.587,55.107 31.419,56.6 C28.433,58 24.229,58 19.359,58 L18.641,58 C13.805,58 9.567,58 6.581,56.6 C3.413,55.107 2,52.147 2,47 C2,35.321 9.945,16 19,16 Z" id="Shape"/><path d="M12,47 C11.4477153,47 11,47.4477153 11,48 C11,48.5522847 11.4477153,49 12,49 L18,49 L18,51 C18,51.5522847 18.4477153,52 19,52 C19.5522847,52 20,51.5522847 20,51 L20,49 L21.5,49 C24.5375661,49 27,46.5375661 27,43.5 C27,40.4624339 24.5375661,38 21.5,38 L20,38 L20,31 L26,31 C26.5522847,31 27,30.5522847 27,30 C27,29.4477153 26.5522847,29 26,29 L20,29 L20,27 C20,26.4477153 19.5522847,26 19,26 C18.4477153,26 18,26.4477153 18,27 L18,29 L16.5,29 C13.4624339,29 11,31.4624339 11,34.5 C11,37.5375661 13.4624339,40 16.5,40 L18,40 L18,47 L12,47 Z M16.5,38 C14.5670034,38 13,36.4329966 13,34.5 C13,32.5670034 14.5670034,31 16.5,31 L18,31 L18,38 L16.5,38 Z M20,40 L21.5,40 C23.4329966,40 25,41.5670034 25,43.5 C25,45.4329966 23.4329966,47 21.5,47 L20,47 L20,40 Z" id="Shape"/><path d="M33.161,30.518 L42.42,37.108 C42.7671643,37.355178 43.2328357,37.355178 43.58,37.108 L52.839,30.518 C54.8121891,29.1207335 55.989409,26.8567917 56,24.439 L56,10.539 C56.000591,10.140839 55.7649212,9.78026415 55.4,9.621 L43.4,4.437 C43.1472508,4.32800068 42.8607492,4.32800068 42.608,4.437 L30.608,9.621 C30.2430788,9.78026415 30.007409,10.140839 30.008,10.539 L30.008,24.439 C30.0174115,26.8551732 31.1913552,29.1185427 33.161,30.518 Z M32,11.2 L43,6.447 L54,11.2 L54,24.439 C53.9903181,26.2101023 53.1258669,27.8674947 51.679,28.889 L43,35.066 L34.321,28.889 C32.8749046,27.8668203 32.0106764,26.2098555 32,24.439 L32,11.2 Z" id="Shape"/><path d="M40.115,26.942 C40.5470438,27.2662308 41.1584866,27.1887489 41.496,26.767 L50.639,15.339 C50.8621124,15.0597969 50.9193236,14.6827736 50.7890829,14.3499511 C50.6588421,14.0171286 50.360936,13.7790706 50.0075829,13.7254511 C49.6542297,13.6718317 49.2991124,13.8107969 49.076,14.09 L40.539,24.761 L36.739,21.914 C36.2971722,21.5826292 35.6703708,21.6721722 35.339,22.114 C35.0076292,22.5558278 35.0971722,23.1826292 35.539,23.514 L40.115,26.942 Z" id="Shape"/></g></g></svg>
