<?xml version="1.0" encoding="UTF-8"?>
<svg xmlns="http://www.w3.org/2000/svg" xmlns:xlink="http://www.w3.org/1999/xlink" width="512" height="512" viewBox="0 0 60 60" version="1.1"><!-- Generator: Sketch 51.3 (57544) - http://www.bohemiancoding.com/sketch --><title>017 - Pet Insurance</title><desc>Created with Sketch.</desc><defs/><g id="Page-1" stroke="none" stroke-width="1" fill="none" fill-rule="evenodd"><g id="017---Pet-Insurance" transform="translate(0.000000, -1.000000)" fill="#000000" fill-rule="nonzero"><path d="M56.969,26.857 C61.299,25.262 59.934,19.464 59.269,16.626 C59.202,16.345 59.142,16.087 59.092,15.858 C58.9183322,14.2431939 57.6353281,12.97188 56.019,12.813 C54.964,12.637 53.901,12.544 52.873,12.454 C51.778,12.354 50.744,12.268 49.704,12.084 C47.544,11.712 46.764,11.007 46.61,9.284 L46.587,9.025 C46.5581197,8.00554931 46.3244866,7.00232135 45.9,6.075 C45.0526253,4.55914297 43.7217973,3.37090369 42.12,2.7 C39.6684885,1.7417553 37.0725215,1.20518332 34.442,1.113 C31.7734436,0.82359268 29.0749744,0.996116099 26.465,1.623 C24.2781102,2.31289489 22.1998427,3.3087665 20.292,4.581 C19.55,5.027 18.813,5.47 18.072,5.871 C14.98,7.55 12.785,10.858 11.891,15.188 L11.806,15.594 C11.5112801,16.7605792 11.3552017,17.957852 11.341,19.161 C11.414,20.979 13.021,21.975 13.884,22.511 C14.13,22.663 14.368,22.825 14.612,22.981 C14.885,25.646 12.812,30.065 8.75,35.457 C8.701,35.52 7.485,37.02 1.424,38.834 C0.578425564,39.0883 -0.000326325722,39.8670139 -1.11022302e-15,40.75 L-1.11022302e-15,59 C-9.74952286e-16,60.1045695 0.8954305,61 2,61 L39,61 C40.1045695,61 41,60.1045695 41,59 L41,57.88 L45,60.686 C45.6003496,61.10653 46.3996504,61.10653 47,60.686 L55.983,54.386 C58.4856315,52.6471798 59.9844787,49.7983627 60,46.751 L60,33.529 C60.0000139,33.1282008 59.7607213,32.7661133 59.392,32.609 L53.692,30.185 C55.1011602,29.4398352 56.2456842,28.277499 56.969,26.857 Z M32.262,48.905 C26.276,47.959 15.544,39.818 10.9,35.914 C11.47,35.136 12.044,34.314 12.6,33.459 C14.974,35.359 24.873,43.087 32,45.402 L32,46.751 C32.0012168,47.4768733 32.0891738,48.2000003 32.262,48.905 Z M39,59 L2,59 L2.007,40.748 C6.407,39.431 8.539,38.217 9.571,37.407 C12.734,40.059 25.863,50.707 33.04,50.985 C33.7442769,52.3419902 34.7663382,53.5084918 36.019,54.385 L39,56.479 L39,59 Z M58,46.751 C57.9849092,49.1475269 56.8031481,51.3864175 54.833,52.751 L46,58.942 L37.167,52.751 C35.1968519,51.3864175 34.0150908,49.1475269 34,46.751 L34,34.19 L46,29.09 L58,34.19 L58,46.751 Z M51.241,29.142 L46.392,27.08 C46.1415605,26.973287 45.8584395,26.973287 45.608,27.08 L32.608,32.609 C32.2392787,32.7661133 31.9999861,33.1282008 32,33.529 L32,43.285 C25.117,40.791 15.494,33.217 13.664,31.748 C15.1372534,29.4763635 16.1327889,26.9286637 16.59,24.26 C17.261,24.703 17.931,25.146 18.615,25.572 C21.3530361,27.2960144 24.2414842,28.7686878 27.245,29.972 C29.589,30.893 31.194,30.641 32.013,29.228 C32.865,27.776 32.398,25.818 32.09,24.522 L32.061,24.402 C31.4695808,22.2263713 30.7023907,20.1023852 29.767,18.051 C29.474,17.361 29.18,16.669 28.899,15.971 C27.551,12.582 27.565,10.571 28.941,10.005 C29.4365117,9.78509994 29.6665681,9.21041876 29.4596809,8.70933438 C29.2527938,8.20825 28.6843154,7.96326691 28.178,8.157 C25.591,9.227 25.209,12.105 27.042,16.714 C27.329,17.428 27.628,18.131 27.926,18.834 C28.8193,20.7837421 29.5520633,22.8031052 30.117,24.872 L30.144,24.986 C30.379,25.97 30.733,27.457 30.285,28.221 C30.035,28.652 29.257,28.614 27.974,28.109 C25.083234,26.9504166 22.3032327,25.5326361 19.668,23.873 C18.9,23.4 18.149,22.9 17.4,22.4 C16.586,21.863 15.772,21.325 14.943,20.812 C14.114,20.299 13.372,19.783 13.343,19.088 C13.3689322,18.0494487 13.5108122,17.0170454 13.766,16.01 L13.854,15.594 C14.301,13.427 15.569,9.51 19.03,7.631 C19.795,7.217 20.559,6.759 21.33,6.297 C23.0787262,5.12894149 24.9803467,4.20791242 26.981,3.56 C29.3722268,2.99264236 31.8430701,2.83975787 34.286,3.108 C36.6859509,3.18794568 39.0560612,3.66507652 41.3,4.52 C42.4897268,5.00643755 43.4836537,5.87511209 44.125,6.989 C44.4213811,7.6913386 44.5809052,8.44381721 44.595,9.206 L44.618,9.469 C44.918,12.861 47.318,13.702 49.36,14.055 C50.483,14.255 51.609,14.355 52.698,14.446 C53.733,14.537 54.711,14.623 55.687,14.786 C56.565,14.934 56.897,15.171 57.138,16.286 C57.19,16.525 57.253,16.795 57.322,17.086 C58.122,20.486 58.74,24.159 56.122,25.026 C56.0819836,25.0145222 56.041219,25.0058347 56,25 L51,25 C50.4477153,25 50,25.4477153 50,26 C50,26.5522847 50.4477153,27 51,27 L54.519,27 C53.622292,27.9764654 52.4953555,28.7128589 51.241,29.142 Z" id="Shape"/><path d="M45.608,31.426 L36.608,35.254 C36.2389441,35.4112556 35.999585,35.7738374 36,36.175 L36,46.751 C36.0147793,48.4951191 36.8782045,50.1227166 38.314,51.113 L45.426,56.1 C45.7705559,56.3415263 46.2294441,56.3415263 46.574,56.1 L53.687,51.115 C55.1228609,50.1239741 55.9859288,48.4956005 56,46.751 L56,36.175 C56.000415,35.7738374 55.7610559,35.4112556 55.392,35.254 L46.392,31.426 C46.1414198,31.3199782 45.8585802,31.3199782 45.608,31.426 Z M54,36.836 L54,46.751 C53.984809,47.8427663 53.4394423,48.8588943 52.538,49.475 L46,54.058 L39.463,49.476 C38.5608915,48.8599143 38.0150944,47.8433065 38,46.751 L38,36.836 L46,33.436 L54,36.836 Z" id="Shape"/><path d="M41.631,44.516 C41.3548568,44.2815284 40.9734992,44.2147355 40.634105,44.3413986 C40.2947108,44.4680618 40.0503576,44.7683723 39.9953488,45.126431 C39.9403401,45.4844897 40.0832786,45.8443 40.369,46.067 L43.7,48.776 C43.8783438,48.9209579 44.1011755,49.0000614 44.331,49 C44.3731366,49.0003262 44.415243,48.9976528 44.457,48.992 C44.7285441,48.9572295 44.9739604,48.8126544 45.136,48.592 L51.803,39.564 C52.1313333,39.1194108 52.0370892,38.4928333 51.5925,38.1645 C51.1479108,37.8361667 50.5213333,37.9304108 50.193,38.375 L44.15,46.563 L41.631,44.516 Z" id="Shape"/></g></g></svg>
