<?xml version="1.0" encoding="UTF-8"?>
<svg xmlns="http://www.w3.org/2000/svg" xmlns:xlink="http://www.w3.org/1999/xlink" width="512" height="512" viewBox="0 0 60 60" version="1.1"><!-- Generator: Sketch 51.3 (57544) - http://www.bohemiancoding.com/sketch --><title>018 - Pet Insurance</title><desc>Created with Sketch.</desc><defs/><g id="Page-1" stroke="none" stroke-width="1" fill="none" fill-rule="evenodd"><g id="018---Pet-Insurance" fill="#000000" fill-rule="nonzero"><path d="M45.608,30.426 L36.608,34.254 C36.2392787,34.4111133 35.9999861,34.7732008 36,35.174 L36,45.751 C36.0149482,47.4950763 36.8783347,49.1226008 38.314,50.113 L45.426,55.1 C45.7705559,55.3415263 46.2294441,55.3415263 46.574,55.1 L53.687,50.115 C55.1229912,49.12409 55.9860979,47.4956432 56,45.751 L56,35.174 C56.0000139,34.7732008 55.7607213,34.4111133 55.392,34.254 L46.392,30.426 C46.1415605,30.319287 45.8584395,30.319287 45.608,30.426 Z M54,35.835 L54,45.751 C53.984809,46.8427663 53.4394423,47.8588943 52.538,48.475 L46,53.057 L39.463,48.475 C38.5609191,47.8593492 38.0150812,46.8430386 38,45.751 L38,35.835 L46,32.435 L54,35.835 Z" id="Shape"/><path d="M41.631,43.515 C41.202427,43.1665083 40.5724917,43.231427 40.224,43.66 C39.8755083,44.088573 39.940427,44.7185083 40.369,45.067 L43.7,47.775 C43.8782085,47.9203175 44.1010535,47.9997788 44.331,48 C44.3731212,47.999825 44.4151949,47.9971537 44.457,47.992 C44.7282357,47.9563312 44.9733242,47.8119492 45.136,47.592 L51.803,38.563 C52.0152158,38.2754012 52.0578791,37.8964332 51.9149191,37.5688495 C51.7719591,37.2412659 51.4650948,37.0148344 51.1099191,36.9748495 C50.7547433,36.9348647 50.4052158,37.0874012 50.193,37.375 L44.15,45.563 L41.631,43.515 Z" id="Shape"/><path d="M5.817,52.1 C6.71122469,52.7373088 7.79425883,53.0543975 8.891,53 C11.219212,52.8299856 13.5182751,52.3787017 15.738,51.656 C19.6762015,50.4149566 23.7636052,49.7099534 27.89,49.56 C29.6228432,49.5737399 31.3516397,49.7295958 33.059,50.026 C33.7624218,51.3673819 34.7775192,52.5203405 36.019,53.388 L45,59.686 C45.5987551,60.1046129 46.3952449,60.1046129 46.994,59.686 L55.978,53.386 C58.4826589,51.6484015 59.9835078,48.7993262 60,45.751 L60,32.529 C60.000415,32.1278374 59.7610559,31.7652556 59.392,31.608 L48.387,26.928 C51.0205621,26.7805031 53.3853352,25.2668208 54.622,22.937 C56.622,19.465 55.949,15.308 53.113,13.671 C51.6307034,12.8508401 49.8503715,12.7702018 48.3,13.453 C44.8813164,14.9468447 42.8332202,18.4922034 43.247,22.2 C43.4266372,23.7721062 44.2777713,25.1895691 45.581,26.087 L43.545,26.953 C38.928,21.824 33.4,19 27.89,19 C14.195,19 3.89,35.737 3.89,46.59 C3.89,49.341 4.5,51.091 5.817,52.1 Z M58,45.751 C57.9852475,48.1476119 56.8034091,50.3866489 54.833,51.751 L46,57.942 L37.167,51.75 C35.1965909,50.3856489 34.0147525,48.1466119 34,45.75 L34,33.19 L46,28.09 L58,33.19 L58,45.751 Z M46.067,18 C46.7317085,16.797742 47.7787,15.8517544 49.042,15.312 C49.5243234,15.1128828 50.0402228,15.0076665 50.562,15.002 C51.1053218,14.9954497 51.6406131,15.1335003 52.113,15.402 C53.994,16.488 54.343,19.419 52.89,21.936 C51.437,24.453 48.726,25.619 46.843,24.531 C45.9270425,23.9584798 45.3297223,22.9922701 45.227,21.917 C45.0634589,20.5542436 45.3590518,19.1758657 46.067,18 Z M27.89,21 C32.641,21 37.465,23.4 41.596,27.786 L32.608,31.608 C32.2389441,31.7652556 31.999585,32.1278374 32,32.529 L32,45.751 C32.00188,46.4669108 32.0878014,47.1801257 32.256,47.876 C31.121,47.72 30.043,47.628 29,47.588 L29,35 C29,34.4477153 28.5522847,34 28,34 C27.4477153,34 27,34.4477153 27,35 L27,47.587 C23.0018008,47.8322318 19.0464787,48.5481773 15.216,49.72 C11.562,50.709 8.416,51.563 7.032,50.509 C6.264,49.92 5.89,48.639 5.89,46.59 C5.89,36.484 15.745,21 27.89,21 Z" id="Shape"/><path d="M19.471,17.874 C19.8220434,17.8737981 20.1722771,17.8403149 20.517,17.774 C24.306,17.04 26.617,12.474 25.678,7.608 C25.2866389,5.40073322 24.1963867,3.37763195 22.568,1.837 C21.1292423,0.414809262 19.0957403,-0.231166038 17.1,0.1 C13.31,0.832 10.994,5.393 11.937,10.266 C12.79,14.691 16.042,17.874 19.471,17.874 Z M17.477,2.065 C17.7004379,2.02195474 17.9274536,2.00019069 18.155,2 C19.3070325,2.0413482 20.4020109,2.51179658 21.225,3.319 C22.5336853,4.56844504 23.4065378,6.2051312 23.715,7.988 C24.448,11.777 22.843,15.288 20.137,15.81 C17.431,16.332 14.631,13.677 13.9,9.888 C13.169,6.099 14.77,2.589 17.477,2.065 Z" id="Shape"/><path d="M7.482,13.453 C5.93132577,12.7704994 4.15098011,12.8507517 2.668,13.67 C-0.168,15.308 -0.844,19.464 1.16,22.937 C2.39828455,25.2710117 4.7687334,26.7857919 7.407,26.929 C8.29494877,26.9350805 9.16863382,26.7056174 9.939,26.264 C11.3919978,25.3908083 12.3537252,23.889034 12.539,22.204 C12.7650799,20.3961127 12.3807394,18.5645124 11.447,17 C10.5582572,15.4082714 9.16250382,14.1596617 7.482,13.453 Z M10.556,21.918 C10.4529019,22.9934052 9.8552274,23.9595902 8.939,24.532 C7.058,25.619 4.345,24.454 2.893,21.937 C1.441,19.42 1.787,16.488 3.668,15.403 C4.14014943,15.133588 4.67542137,14.994507 5.219,15 C5.74111425,15.0055394 6.25736491,15.1107581 6.74,15.31 C8.00377659,15.8500058 9.05088331,16.7968015 9.715,18 C10.4230114,19.1762256 10.7189286,20.5548268 10.556,21.918 Z" id="Shape"/><path d="M36.312,17.874 C39.739,17.874 42.992,14.691 43.849,10.268 C44.791,5.4 42.476,0.835 38.687,0.1 C36.6899793,-0.233028544 34.6544245,0.412264297 33.214,1.835 C31.5837679,3.37559804 30.4920505,5.3995174 30.1,7.608 C29.157,12.479 31.473,17.04 35.263,17.774 C35.6086777,17.8407087 35.9599445,17.8741946 36.312,17.874 Z M32.067,7.988 C32.3758714,6.20505311 33.2490612,4.56839196 34.558,3.319 C35.3805177,2.5116981 36.4752303,2.04121068 37.627,2 C37.8548784,2.00016952 38.0822281,2.02193347 38.306,2.065 C41.013,2.589 42.618,6.098 41.886,9.888 C41.154,13.678 38.345,16.333 35.646,15.81 C32.947,15.287 31.334,11.777 32.067,7.988 Z" id="Shape"/><path d="M22,45 C22.5522847,45 23,44.5522847 23,44 L23,38 C23,37.4477153 22.5522847,37 22,37 C21.4477153,37 21,37.4477153 21,38 L21,44 C21,44.5522847 21.4477153,45 22,45 Z" id="Shape"/></g></g></svg>
