<?xml version="1.0" encoding="UTF-8"?>
<svg xmlns="http://www.w3.org/2000/svg" xmlns:xlink="http://www.w3.org/1999/xlink" width="512" height="512" viewBox="0 0 60 61" version="1.1"><!-- Generator: Sketch 51.3 (57544) - http://www.bohemiancoding.com/sketch --><title>020 - Fire Cover</title><desc>Created with Sketch.</desc><defs/><g id="Page-1" stroke="none" stroke-width="1" fill="none" fill-rule="evenodd"><g id="020---Fire-Cover" fill="#000000" fill-rule="nonzero"><path d="M59.392,31.608 L46.392,26.079 C46.1414198,25.9729782 45.8585802,25.9729782 45.608,26.079 L44.594,26.511 C43.8534138,24.8141192 42.9335188,23.2012858 41.85,21.7 C40.8230619,20.2788163 39.6944366,18.9339576 38.473,17.676 C38.391,17.59 38.205,17.433 37.979,17.25 C37.7226519,17.0489337 37.4766691,16.8349921 37.242,16.609 C37.0498019,16.1495727 36.5488409,15.9015873 36.0669689,16.0273368 C35.5850968,16.1530862 35.2691933,16.6142409 35.326,17.109 C35.879,22.06 33.486,26.409 31.385,29.182 C31.179,29.4486667 30.9773333,29.7026667 30.78,29.944 C32.207,19.384 30.63,11.395 26.08,6.167 C22.5154811,2.21778731 17.4369096,-0.0252514508 12.117,1.18682191e-15 C11.6620129,0.0209301193 11.2786507,0.346669936 11.1845349,0.792308327 C11.0904191,1.23794672 11.3093302,1.69088257 11.717,1.894 C12.2008772,2.14059927 12.6634635,2.42691442 13.1,2.75 C16.7342198,5.44509169 18.8927867,9.68965607 18.93,14.214 C19.0668211,16.6654763 18.282112,19.0795268 16.73,20.982 C15.3484816,22.4262661 13.7577085,23.6546571 12.011,24.626 L11.244,25.093 C8.214,26.931 5.08,28.832 3.012,32.026 C1.03208051,35.1807587 -0.0123435878,38.8324287 -1.33226763e-15,42.557 C0.0371706149,46.2177272 0.834698896,49.8307823 2.342,53.167 C3.449,55.723 5.3,60 9.14,60 L25.9,60 C26.251,60 26.611,60.01 26.973,60.02 L28.073,60.057 C28.845,60.085 29.642,60.114 30.447,60.114 C32.7911277,60.2508753 35.1279785,59.74318 37.204,58.646 C38.2703194,57.9804865 39.2412102,57.1730929 40.09,56.246 L45,59.686 C45.5987551,60.1046129 46.3952449,60.1046129 46.994,59.686 L55.978,53.386 C58.4826589,51.6484015 59.9835078,48.7993262 60,45.751 L60,32.529 C60.000415,32.1278374 59.7610559,31.7652556 59.392,31.608 Z M4.177,52.372 C2.78069191,49.288103 2.03940316,45.9480472 2,42.563 C1.98456156,39.2220816 2.9169722,35.9452944 4.689,33.113 C6.508,30.3 9.312,28.6 12.28,26.8 L13.051,26.331 C14.9721938,25.2583937 16.7185986,23.8991047 18.23,22.3 C20.1120636,20.0354383 21.0756059,17.1469526 20.93,14.206 C20.8880667,9.74674318 19.045098,5.49384944 15.82,2.414 C19.2033976,3.12315715 22.2698143,4.89963173 24.568,7.482 C29.155,12.75 30.41,21.275 28.3,32.82 C28.2243698,33.2378651 28.4209023,33.6579254 28.7901581,33.8676428 C29.1594138,34.0773603 29.6208525,34.0309924 29.941,33.752 C31.0552148,32.7286079 32.0725348,31.6045011 32.98,30.394 C35.4925741,27.2515455 37.0248855,23.4391992 37.386,19.432 C38.4087039,20.5180027 39.3600268,21.6690766 40.234,22.878 C41.2291618,24.2562257 42.075234,25.7361815 42.758,27.293 L32.608,31.608 C32.2389441,31.7652556 31.999585,32.1278374 32,32.529 L32,36.612 C29.1845554,38.6632332 25.9548949,40.0744819 22.537,40.747 C24.5983813,34.6898518 25.4355934,28.2834626 25,21.9 C24.9487034,21.3889594 24.5186086,20.9998749 24.005,20.9998749 C23.4913914,20.9998749 23.0612966,21.3889594 23.01,21.9 C22.528,26.717 20.672,27.854 17.862,29.577 C14.1268379,31.6248633 11.0859896,34.7384692 9.127,38.521 C4.4,47.185 8.515,54.742 10.89,58 L9.14,58 C6.616,58 5.09,54.477 4.177,52.372 Z M13.433,58 C12,56.406 5.83,48.733 10.878,39.479 C12.6685181,36.0019013 15.4645625,33.1445278 18.902,31.279 C20.4733046,30.4529378 21.8683612,29.3282647 23.009,27.968 C22.7489062,32.6458328 21.7575532,37.2540382 20.071,41.625 C19.9420538,41.9471871 19.9893657,42.313192 20.196,42.592 C20.4008965,42.8724191 20.7382109,43.0243625 21.084,42.992 C24.9722914,42.5224728 28.7040449,41.1796432 32,39.064 L32,45.751 C32.0106989,47.8211586 32.7148587,49.8280141 34,51.451 C32.0379414,54.114147 29.5507383,56.346776 26.692,58.011 C26.426,58.005 26.159,57.997 25.9,57.997 L13.433,58 Z M36.172,56.935 C34.3119002,57.871807 32.2299801,58.2789888 30.154,58.112 C32.1544143,56.6468072 33.9278244,54.8946254 35.417,52.912 C35.617,53.075 35.807,53.241 36.017,53.389 L38.442,55.089 C37.7672172,55.7986899 37.0043487,56.4190666 36.172,56.935 Z M58,45.751 C57.9852475,48.1476119 56.8034091,50.3866489 54.833,51.751 L46,57.942 L37.167,51.75 C35.1965909,50.3856489 34.0147525,48.1466119 34,45.75 L34,33.19 L46,28.09 L58,33.19 L58,45.751 Z" id="Shape"/><path d="M45.608,30.426 L36.608,34.254 C36.2392787,34.4111133 35.9999861,34.7732008 36,35.174 L36,45.751 C36.0149482,47.4950763 36.8783347,49.1226008 38.314,50.113 L45.426,55.1 C45.7705559,55.3415263 46.2294441,55.3415263 46.574,55.1 L53.687,50.115 C55.1229912,49.12409 55.9860979,47.4956432 56,45.751 L56,35.174 C56.0000139,34.7732008 55.7607213,34.4111133 55.392,34.254 L46.392,30.426 C46.1415605,30.319287 45.8584395,30.319287 45.608,30.426 Z M54,35.835 L54,45.751 C53.984809,46.8427663 53.4394423,47.8588943 52.538,48.475 L46,53.057 L39.463,48.475 C38.5609191,47.8593492 38.0150812,46.8430386 38,45.751 L38,35.835 L46,32.435 L54,35.835 Z" id="Shape"/><path d="M41.631,43.515 C41.202427,43.1665083 40.5724917,43.231427 40.224,43.66 C39.8755083,44.088573 39.940427,44.7185083 40.369,45.067 L43.7,47.775 C43.8782085,47.9203175 44.1010535,47.9997788 44.331,48 C44.3731212,47.999825 44.4151949,47.9971537 44.457,47.992 C44.7282357,47.9563312 44.9733242,47.8119492 45.136,47.592 L51.803,38.563 C52.0152158,38.2754012 52.0578791,37.8964332 51.9149191,37.5688495 C51.7719591,37.2412659 51.4650948,37.0148344 51.1099191,36.9748495 C50.7547433,36.9348647 50.4052158,37.0874012 50.193,37.375 L44.15,45.563 L41.631,43.515 Z" id="Shape"/></g></g></svg>
