<?xml version="1.0" encoding="UTF-8"?>
<svg xmlns="http://www.w3.org/2000/svg" xmlns:xlink="http://www.w3.org/1999/xlink" width="512" height="512" viewBox="0 0 60 60" version="1.1"><!-- Generator: Sketch 51.3 (57544) - http://www.bohemiancoding.com/sketch --><title>021 - Flood Cover</title><desc>Created with Sketch.</desc><defs/><g id="Page-1" stroke="none" stroke-width="1" fill="none" fill-rule="evenodd"><g id="021---Flood-Cover" transform="translate(-1.000000, 0.000000)" fill="#000000" fill-rule="nonzero"><path d="M1.638,51.432 C2.15272718,51.6318279 2.73200123,51.3766608 2.932,50.862 C2.939,50.843 3.741,49 6.83,49 C8.10027976,48.9061339 9.35161873,49.3498531 10.279,50.223 C10.4648476,50.4084096 10.6192076,50.6228924 10.736,50.858 C10.786,50.987 12,54 16.5,54 C21,54 22.214,50.987 22.262,50.862 C22.27,50.843 23.071,49 26.17,49 C29.24,49 30.041,50.8 30.07,50.862 C30.118,50.99 31.337,54 35.83,54 C40.323,54 41.553,50.99 41.598,50.873 C41.63,50.8 42.423,49 45.5,49 C48.577,49 49.37,50.8 49.4,50.853 C49.6073201,51.342109 49.9071426,51.7865797 50.283,52.162 C51.5820403,53.433086 53.3552923,54.1000058 55.17,54 C59.663,54 60.882,50.99 60.932,50.862 C61.0690443,50.5273658 61.0147545,50.1448145 60.790017,49.8615227 C60.5652796,49.5782308 60.2051095,49.4383364 59.8480729,49.4956602 C59.4910362,49.552984 59.1927607,49.7985947 59.068,50.138 C59.061,50.157 58.259,52 55.168,52 C53.8977202,52.0938661 52.6463813,51.6501469 51.719,50.777 C51.5331524,50.5915904 51.3787924,50.3771076 51.262,50.142 C51.214,50.013 50.005,47 45.5,47 C40.995,47 39.786,50.013 39.738,50.138 C39.73,50.157 38.929,52 35.83,52 C32.76,52 31.959,50.2 31.93,50.138 C31.882,50.01 30.663,47 26.17,47 C21.677,47 20.447,50.01 20.402,50.127 C20.37,50.2 19.577,52 16.5,52 C13.423,52 12.63,50.2 12.605,50.147 C12.3976799,49.657891 12.0978574,49.2134203 11.722,48.838 C10.421761,47.5655936 8.64641161,46.8985674 6.83,47 C2.337,47 1.118,50.01 1.068,50.138 C0.868172107,50.6527272 1.12333919,51.2320012 1.638,51.432 Z" id="Shape"/><path d="M1.638,57.432 C2.15272718,57.6318279 2.73200123,57.3766608 2.932,56.862 C2.939,56.843 3.741,55 6.83,55 C8.10027976,54.9061339 9.35161873,55.3498531 10.279,56.223 C10.4648476,56.4084096 10.6192076,56.6228924 10.736,56.858 C10.786,56.987 12,60 16.5,60 C21,60 22.214,56.987 22.262,56.862 C22.27,56.843 23.071,55 26.17,55 C29.24,55 30.041,56.8 30.07,56.862 C30.118,56.99 31.337,60 35.83,60 C40.323,60 41.553,56.99 41.598,56.873 C41.63,56.8 42.423,55 45.5,55 C48.577,55 49.37,56.8 49.4,56.853 C49.6073201,57.342109 49.9071426,57.7865797 50.283,58.162 C51.5820403,59.433086 53.3552923,60.1000058 55.17,60 C59.663,60 60.882,56.99 60.932,56.862 C61.0690443,56.5273658 61.0147545,56.1448145 60.790017,55.8615227 C60.5652796,55.5782308 60.2051095,55.4383364 59.8480729,55.4956602 C59.4910362,55.552984 59.1927607,55.7985947 59.068,56.138 C59.061,56.157 58.259,58 55.168,58 C53.8977202,58.0938661 52.6463813,57.6501469 51.719,56.777 C51.5331524,56.5915904 51.3787924,56.3771076 51.262,56.142 C51.214,56.013 50.005,53 45.5,53 C40.995,53 39.786,56.013 39.738,56.138 C39.73,56.157 38.929,58 35.83,58 C32.76,58 31.959,56.2 31.93,56.138 C31.882,56.01 30.663,53 26.17,53 C21.677,53 20.447,56.01 20.402,56.127 C20.37,56.2 19.577,58 16.5,58 C13.423,58 12.63,56.2 12.605,56.147 C12.3976799,55.657891 12.0978574,55.2134203 11.722,54.838 C10.421761,53.5655936 8.64641161,52.8985674 6.83,53 C2.337,53 1.118,56.01 1.068,56.138 C0.868172107,56.6527272 1.12333919,57.2320012 1.638,57.432 Z" id="Shape"/><path d="M60.4,4.4 L50.4,0.082 C50.1472508,-0.0269993194 49.8607492,-0.0269993194 49.608,0.082 L39.6,4.4 C39.2350788,4.55926415 38.999409,4.91983898 39,5.318 L39,5.435 L31.578,0.184 C31.2317007,-0.0612843148 30.7682993,-0.0612843148 30.422,0.184 L6.83,16.893 C6.31032073,17.2724656 6.00216341,17.8765282 6,18.52 L6,22.07 C6.000245,22.8180691 6.41794126,23.5034642 7.08268538,23.8465715 C7.74742951,24.1896788 8.54807868,24.1331321 9.158,23.7 L10,23.1 L10,41.632 C9.00141621,41.1947428 7.91992098,40.9791261 6.83,41 C2.337,41 1.118,44.01 1.068,44.138 C0.930955669,44.4726342 0.985245526,44.8551855 1.20998298,45.1384773 C1.43472043,45.4217692 1.79489046,45.5616636 2.15192712,45.5043398 C2.50896377,45.447016 2.80723929,45.2014053 2.932,44.862 C2.939,44.843 3.741,43 6.83,43 C8.10027976,42.9061339 9.35161873,43.3498531 10.279,44.223 C10.4648476,44.4084096 10.6192076,44.6228924 10.736,44.858 C10.786,44.987 12,48 16.5,48 C21,48 22.214,44.987 22.262,44.862 C22.27,44.843 23.071,43 26.17,43 C29.24,43 30.041,44.8 30.07,44.862 C30.118,44.99 31.337,48 35.83,48 C40.323,48 41.553,44.99 41.598,44.873 C41.63,44.8 42.423,43 45.5,43 C48.577,43 49.37,44.8 49.4,44.853 C49.6073201,45.342109 49.9071426,45.7865797 50.283,46.162 L50.296,46.174 L50.302,46.18 C51.5997893,47.4390914 53.3645102,48.0988679 55.17,48 C59.663,48 60.882,44.99 60.932,44.862 C61.0690443,44.5273658 61.0147545,44.1448145 60.790017,43.8615227 C60.5652796,43.5782308 60.2051095,43.4383364 59.8480729,43.4956602 C59.4910362,43.552984 59.1927607,43.7985947 59.068,44.138 C59.061,44.157 58.259,46 55.168,46 C54.0306386,46.0643883 52.9075284,45.7215703 52,45.033 L52,26.716 L58.392,22.166 C60.0192795,21.0132451 60.9904167,19.1461892 61,17.152 L61,5.32 C61.001389,4.92111355 60.7655887,4.55955313 60.4,4.4 Z M8,22.07 L8,18.516 L31,2.225 L39,7.888 L39,11.437 L31.578,6.184 C31.2317007,5.93871569 30.7682993,5.93871569 30.422,6.184 L8,22.07 Z M31.932,44.138 C31.882,44.01 30.663,41 26.17,41 C25.7786571,41.0016269 25.3878336,41.0286839 25,41.081 L25,32 C25,30.8954305 25.8954305,30 27,30 L35,30 C36.1045695,30 37,30.8954305 37,32 L37,39 L36,39 C35.4477153,39 35,39.4477153 35,40 C35,40.5522847 35.4477153,41 36,41 L37,41 L37,45.893 C36.6140925,45.9643691 36.2224514,46.0001859 35.83,46 C32.76,46 31.959,44.2 31.932,44.138 Z M45.5,41 C40.995,41 39.786,44.013 39.738,44.138 C39.5571508,44.4820173 39.305659,44.7839439 39,45.024 L39,32 C39,29.790861 37.209139,28 35,28 L27,28 C24.790861,28 23,29.790861 23,32 L23,41.635 C21.8579858,42.1201219 20.9331075,43.0065822 20.4,44.127 C20.37,44.2 19.577,46 16.5,46 C13.423,46 12.63,44.2 12.605,44.147 C12.4517441,43.7918976 12.2479712,43.4608086 12,43.164 L12,21.683 L31,8.225 L39,13.888 L39,17.152 C39.0095833,19.1461892 39.9807205,21.0132451 41.608,22.166 L49.42,27.727 C49.5894074,27.8474479 49.7921382,27.912112 50,27.912 L50,42.48 C48.7326601,41.4507656 47.1308556,40.92395 45.5,41 Z M59,17.152 C58.9910962,18.4996812 58.3323369,19.760224 57.231,20.537 L50,25.685 L42.769,20.537 C41.6675346,19.7603365 41.0087381,18.4997225 41,17.152 L41,5.977 L50,2.089 L59,5.977 L59,17.152 Z" id="Shape"/><path d="M44.6,14.843 C44.3141875,14.6286406 43.9357266,14.5830436 43.6071797,14.7233848 C43.2786328,14.8637259 43.0499141,15.1686842 43.0071797,15.5233848 C42.9644453,15.8780853 43.1141875,16.2286406 43.4,16.443 L47.4,19.443 C47.8320438,19.7672308 48.4434866,19.6897489 48.781,19.268 L56.781,9.268 C57.1217114,8.83642541 57.0500699,8.21073794 56.6206245,7.86734665 C56.1911792,7.52395536 55.5650579,7.5917006 55.219,8.019 L47.825,17.262 L44.6,14.843 Z" id="Shape"/></g></g></svg>
