<?xml version="1.0" encoding="UTF-8"?>
<svg xmlns="http://www.w3.org/2000/svg" xmlns:xlink="http://www.w3.org/1999/xlink" width="512" height="512" viewBox="0 0 60 60" version="1.1"><!-- Generator: Sketch 51.3 (57544) - http://www.bohemiancoding.com/sketch --><title>022 - Compare Insurance</title><desc>Created with Sketch.</desc><defs/><g id="Page-1" stroke="none" stroke-width="1" fill="none" fill-rule="evenodd"><g id="022---Compare-Insurance" fill="#000000" fill-rule="nonzero"><path d="M55,0 L5,0 C2.23994685,0.00330611633 0.00330611633,2.23994685 0,5 L0,45 C0.00330611633,47.7600532 2.23994685,49.9966939 5,50 L22.438,50 L21.253,54 L21,54 C19.3431458,54 18,55.3431458 18,57 C18,58.6568542 19.3431458,60 21,60 L39,60 C40.6568542,60 42,58.6568542 42,57 C42,55.3431458 40.6568542,54 39,54 L38.747,54 L37.562,50 L55,50 C57.7600532,49.9966939 59.9966939,47.7600532 60,45 L60,5 C59.9966939,2.23994685 57.7600532,0.00330611633 55,0 Z M2,10 L58,10 L58,40 L2,40 L2,10 Z M5,2 L55,2 C56.6568542,2 58,3.34314575 58,5 L58,8 L2,8 L2,5 C2,3.34314575 3.34314575,2 5,2 Z M40,57 C40,57.5522847 39.5522847,58 39,58 L21,58 C20.4477153,58 20,57.5522847 20,57 C20,56.4477153 20.4477153,56 21,56 L39,56 C39.5522847,56 40,56.4477153 40,57 Z M36.661,54 L23.339,54 L24.524,50 L35.476,50 L36.661,54 Z M55,48 L5,48 C3.34314575,48 2,46.6568542 2,45 L2,42 L58,42 L58,45 C58,46.6568542 56.6568542,48 55,48 Z" id="Shape"/><circle id="Oval" cx="30" cy="45" r="1"/><circle id="Oval" cx="6" cy="5" r="1"/><circle id="Oval" cx="10" cy="5" r="1"/><circle id="Oval" cx="14" cy="5" r="1"/><path d="M5,17 L17,17 C17.5522847,17 18,16.5522847 18,16 C18,15.4477153 17.5522847,15 17,15 L5,15 C4.44771525,15 4,15.4477153 4,16 C4,16.5522847 4.44771525,17 5,17 Z" id="Shape"/><path d="M21,17 L26,17 C26.5522847,17 27,16.5522847 27,16 C27,15.4477153 26.5522847,15 26,15 L21,15 C20.4477153,15 20,15.4477153 20,16 C20,16.5522847 20.4477153,17 21,17 Z" id="Shape"/><path d="M40,15 L30,15 C29.4477153,15 29,15.4477153 29,16 C29,16.5522847 29.4477153,17 30,17 L40,17 C40.5522847,17 41,16.5522847 41,16 C41,15.4477153 40.5522847,15 40,15 Z" id="Shape"/><path d="M47.644,22.482 L49.4,23.8 C49.7555556,24.0666667 50.2444444,24.0666667 50.6,23.8 L52.356,22.482 C54.004175,21.2509312 55.111889,19.4297073 55.447,17.4 L55.986,14.167 C56.0639686,13.7033356 55.808402,13.2479775 55.372,13.073 L50.372,11.073 C50.1329016,10.9790301 49.8670984,10.9790301 49.628,11.073 L44.628,13.073 C44.191598,13.2479775 43.9360314,13.7033356 44.014,14.167 L44.553,17.4 C44.888111,19.4297073 45.995825,21.2509312 47.644,22.482 Z M50,13.077 L53.881,14.629 L53.475,17.069 C53.2235386,18.5921014 52.3925287,19.9588422 51.156,20.883 L50,21.75 L48.844,20.883 C47.6074713,19.9588422 46.7764614,18.5921014 46.525,17.069 L46.119,14.629 L50,13.077 Z" id="Shape"/><path d="M5,21 L23,21 C23.5522847,21 24,20.5522847 24,20 C24,19.4477153 23.5522847,19 23,19 L5,19 C4.44771525,19 4,19.4477153 4,20 C4,20.5522847 4.44771525,21 5,21 Z" id="Shape"/><path d="M40,19 L27,19 C26.4477153,19 26,19.4477153 26,20 C26,20.5522847 26.4477153,21 27,21 L40,21 C40.5522847,21 41,20.5522847 41,20 C41,19.4477153 40.5522847,19 40,19 Z" id="Shape"/><path d="M5,32 L17,32 C17.5522847,32 18,31.5522847 18,31 C18,30.4477153 17.5522847,30 17,30 L5,30 C4.44771525,30 4,30.4477153 4,31 C4,31.5522847 4.44771525,32 5,32 Z" id="Shape"/><path d="M20,31 C20,31.5522847 20.4477153,32 21,32 L26,32 C26.5522847,32 27,31.5522847 27,31 C27,30.4477153 26.5522847,30 26,30 L21,30 C20.4477153,30 20,30.4477153 20,31 Z" id="Shape"/><path d="M40,30 L30,30 C29.4477153,30 29,30.4477153 29,31 C29,31.5522847 29.4477153,32 30,32 L40,32 C40.5522847,32 41,31.5522847 41,31 C41,30.4477153 40.5522847,30 40,30 Z" id="Shape"/><path d="M55.372,28.071 L50.372,26.071 C50.1329016,25.9770301 49.8670984,25.9770301 49.628,26.071 L44.628,28.071 C44.191598,28.2459775 43.9360314,28.7013356 44.014,29.165 L44.553,32.398 C44.8876252,34.4284332 45.9953872,36.2504526 47.644,37.482 L49.4,38.8 C49.7555556,39.0666667 50.2444444,39.0666667 50.6,38.8 L52.356,37.482 C54.004175,36.2509312 55.111889,34.4297073 55.447,32.4 L55.986,29.167 C56.0649901,28.7026564 55.8092415,28.2461409 55.372,28.071 Z M53.472,32.071 C53.2205386,33.5941014 52.3895287,34.9608422 51.153,35.885 L50,36.75 L48.844,35.883 C47.6074713,34.9588422 46.7764614,33.5921014 46.525,32.069 L46.119,29.629 L50,28.077 L53.881,29.629 L53.472,32.071 Z" id="Shape"/><path d="M23,34 L5,34 C4.44771525,34 4,34.4477153 4,35 C4,35.5522847 4.44771525,36 5,36 L23,36 C23.5522847,36 24,35.5522847 24,35 C24,34.4477153 23.5522847,34 23,34 Z" id="Shape"/><path d="M40,34 L27,34 C26.4477153,34 26,34.4477153 26,35 C26,35.5522847 26.4477153,36 27,36 L40,36 C40.5522847,36 41,35.5522847 41,35 C41,34.4477153 40.5522847,34 40,34 Z" id="Shape"/></g></g></svg>
