<?xml version="1.0" encoding="UTF-8"?>
<svg xmlns="http://www.w3.org/2000/svg" xmlns:xlink="http://www.w3.org/1999/xlink" width="512" height="512" viewBox="0 0 60 60" version="1.1"><!-- Generator: Sketch 51.3 (57544) - http://www.bohemiancoding.com/sketch --><title>023 - Van Insurance</title><desc>Created with Sketch.</desc><defs/><g id="Page-1" stroke="none" stroke-width="1" fill="none" fill-rule="evenodd"><g id="023---Van-Insurance" fill="#000000" fill-rule="nonzero"><path d="M59.4,6.129 L45.4,0.082 C45.1474495,-0.0279576698 44.8605505,-0.0279576698 44.608,0.082 L30.608,6.129 C30.2430788,6.28826415 30.007409,6.64883898 30.008,7.047 L30.008,14 L18,14 C16.8954305,14 16,14.8954305 16,16 L16,26 L8.781,26 C7.31719925,25.9997291 5.97016055,26.7990539 5.269,28.084 L0.488,36.85 C0.168404459,37.437737 0.000661878559,38.0959891 3.33066907e-16,38.765 L3.33066907e-16,45 C0.0026036601,45.740399 0.280647912,46.4533329 0.78,47 C-0.019029098,47.8759347 -0.224350395,49.1415341 0.256775749,50.2251516 C0.737901893,51.308769 1.81438556,52.005247 3,52 L6.346,52 C5.46266761,54.4871639 6.30839019,57.2594911 8.4295812,58.8300989 C10.5507722,60.4007067 13.4492278,60.4007067 15.5704188,58.8300989 C17.6916098,57.2594911 18.5373324,54.4871639 17.654,52 L36.346,52 C35.4626676,54.4871639 36.3083902,57.2594911 38.4295812,58.8300989 C40.5507722,60.4007067 43.4492278,60.4007067 45.5704188,58.8300989 C47.6916098,57.2594911 48.5373324,54.4871639 47.654,52 L51,52 C52.6568542,52 54,50.6568542 54,49 C53.9982658,48.5538738 53.8957102,48.1139103 53.7,47.713 C53.8922653,47.5256547 54.0004872,47.2684473 54,47 L54,31 L55.711,29.781 C58.3924634,27.8779533 59.9898638,24.7971195 60,21.509 L60,7.047 C60.000591,6.64883898 59.7649212,6.28826415 59.4,6.129 Z M16,46 L3,46 C2.44771525,46 2,45.5522847 2,45 L2,44 L4,44 C5.1045695,44 6,43.1045695 6,42 L6,40 L9,40 C10.6568542,40 12,38.6568542 12,37 L12,28 L16,28 L16,46 Z M4,40 L4,42 L2,42 L2,40 L4,40 Z M7.025,29.042 C7.37558027,28.3995269 8.04909963,27.9998645 8.781,28 L10,28 L10,37 C10,37.5522847 9.55228475,38 9,38 L2.169,38 C2.19026387,37.9346027 2.21530599,37.8704949 2.244,37.808 L7.025,29.042 Z M16,54 C16,56.209139 14.209139,58 12,58 C9.790861,58 8,56.209139 8,54 C7.9997346,53.2967498 8.18755721,52.6062255 8.544,52 L15.456,52 C15.8124428,52.6062255 16.0002654,53.2967498 16,54 Z M46,54 C46,56.209139 44.209139,58 42,58 C39.790861,58 38,56.209139 38,54 C37.9997346,53.2967498 38.1875572,52.6062255 38.544,52 L45.456,52 C45.8124428,52.6062255 46.0002654,53.2967498 46,54 Z M51,50 L3,50 C2.44771525,50 2,49.5522847 2,49 C2,48.4477153 2.44771525,48 3,48 L51,48 C51.5522847,48 52,48.4477153 52,49 C52,49.5522847 51.5522847,50 51,50 Z M52,42.382 L50,41.382 L50,38.618 L52,37.618 L52,42.382 Z M52,35.382 L48.553,37.1 C48.2123306,37.2702259 47.9979212,37.6191744 48,38 L48,42 C47.9979212,42.3808256 48.2123306,42.7297741 48.553,42.9 L52,44.618 L52,46 L18,46 L18,16 L30,16 L30,21.509 C30.0101362,24.7971195 31.6075366,27.8779533 34.289,29.781 L43.965,36.67 C44.5848485,37.1100206 45.4151515,37.1100206 46.035,36.67 L52,32.423 L52,35.382 Z M58,21.509 C57.9902734,24.1503069 56.7057535,26.6243764 54.551,28.152 L45,34.951 L35.449,28.151 C33.294533,26.6235813 32.010049,24.1499534 32,21.509 L32,7.705 L45,2.089 L58,7.705 L58,21.509 Z" id="Shape"/><path d="M44.6,4.439 L34.6,8.759 C34.2350788,8.91826415 33.999409,9.27883898 34,9.677 L34,21.509 C34.0094083,23.5029585 34.9806207,25.3697867 36.608,26.522 L44.42,32.083 C44.7671643,32.330178 45.2328357,32.330178 45.58,32.083 L53.392,26.523 C55.0192795,25.3702451 55.9904167,23.5031892 56,21.509 L56,9.677 C56.000591,9.27883898 55.7649212,8.91826415 55.4,8.759 L45.4,4.439 C45.1449495,4.32768685 44.8550505,4.32768685 44.6,4.439 Z M54,10.339 L54,21.509 C53.9910962,22.8566812 53.3323369,24.117224 52.231,24.894 L45,30.042 L37.769,24.894 C36.6675346,24.1173365 36.0087381,22.8567225 36,21.509 L36,10.334 L45,6.446 L54,10.339 Z" id="Shape"/><path d="M39.6,19.2 C39.3141875,18.9856406 38.9357266,18.9400436 38.6071797,19.0803848 C38.2786328,19.2207259 38.0499141,19.5256842 38.0071797,19.8803848 C37.9644453,20.2350853 38.1141875,20.5856406 38.4,20.8 L42.4,23.8 C42.8320438,24.1242308 43.4434866,24.0467489 43.781,23.625 L51.781,13.625 C52.1217114,13.1934254 52.0500699,12.5677379 51.6206245,12.2243466 C51.1911792,11.8809554 50.5650579,11.9487006 50.219,12.376 L42.825,21.619 L39.6,19.2 Z" id="Shape"/><circle id="Oval" cx="12" cy="54" r="1"/><circle id="Oval" cx="42" cy="54" r="1"/></g></g></svg>
