<?xml version="1.0" encoding="UTF-8"?>
<svg xmlns="http://www.w3.org/2000/svg" xmlns:xlink="http://www.w3.org/1999/xlink" width="512" height="512" viewBox="0 0 60 60" version="1.1"><!-- Generator: Sketch 51.3 (57544) - http://www.bohemiancoding.com/sketch --><title>024 - Law Cover</title><desc>Created with Sketch.</desc><defs/><g id="Page-1" stroke="none" stroke-width="1" fill="none" fill-rule="evenodd"><g id="024---Law-Cover" transform="translate(-1.000000, 0.000000)" fill="#000000" fill-rule="nonzero"><path d="M55,52.08 L55,50 C55,48.8954305 54.1045695,48 53,48 L41,48 C39.8954305,48 39,48.8954305 39,50 L39,52.08 C35.5590733,52.5766526 33.0040745,55.5234178 33,59 C33,59.5522847 33.4477153,60 34,60 L60,60 C60.5522847,60 61,59.5522847 61,59 C60.9959255,55.5234178 58.4409267,52.5766526 55,52.08 Z M41,50 L53,50 L53,52 L41,52 L41,50 Z M35.1,58 C35.578082,55.6733709 37.6247614,54.0026123 40,54 L54,54 C56.3752386,54.0026123 58.421918,55.6733709 58.9,58 L35.1,58 Z" id="Shape"/><path d="M13.778,31.565 C13.3875001,31.1746181 12.7544999,31.1746181 12.364,31.565 L6.708,37.221 L2.464,41.464 C0.511121224,43.4168789 0.511121271,46.5831211 2.46400011,48.5359999 C4.41687894,50.4888787 7.58312111,50.4888788 9.536,48.536 L13.778,44.293 L19.434,38.637 C19.8243819,38.2465001 19.8243819,37.6134999 19.434,37.223 L18.727,36.515 L28.627,26.615 L29.334,27.322 C29.709096,27.697248 30.2179266,27.9080729 30.7485,27.9080729 C31.2790734,27.9080729 31.787904,27.697248 32.163,27.322 L33.877,29.036 C33.1444077,30.8843283 33.5828814,32.9913618 34.992,34.394 L36.406,35.808 C36.7964999,36.1983819 37.4295001,36.1983819 37.82,35.808 L50.548,23.08 C50.9383819,22.6895001 50.9383819,22.0564999 50.548,21.666 L49.133,20.251 C47.7271417,18.8492966 45.6251716,18.4121057 43.777,19.137 L42.062,17.423 C42.437248,17.047904 42.6480729,16.5390734 42.6480729,16.0085 C42.6480729,15.4779266 42.437248,14.969096 42.062,14.594 L36.406,8.938 C36.030904,8.56275199 35.5220734,8.35192707 34.9915,8.35192707 C34.4609266,8.35192707 33.952096,8.56275199 33.577,8.938 L31.863,7.224 C32.5883343,5.37554509 32.1511152,3.27304706 30.749,1.867 L29.334,0.452 C28.9435001,0.0616180617 28.3104999,0.0616180617 27.92,0.452 L15.192,13.18 C14.8016181,13.5704999 14.8016181,14.2035001 15.192,14.594 L16.606,16.008 C18.0086382,17.4171186 20.1156717,17.8555923 21.964,17.123 L23.678,18.837 C23.302752,19.212096 23.0919271,19.7209266 23.0919271,20.2515 C23.0919271,20.7820734 23.302752,21.290904 23.678,21.666 L24.385,22.373 L14.485,32.273 L13.778,31.565 Z M13.071,42.172 L8.828,37.929 L10.243,36.515 L14.485,40.757 L13.071,42.172 Z M8.122,47.122 C6.95005175,48.2939482 5.04994828,48.2939482 3.87800006,47.1219999 C2.70605185,45.9500517 2.70605182,44.0499482 3.878,42.878 L7.414,39.343 L11.657,43.586 L8.122,47.122 Z M15.9,39.343 L11.657,35.1 L13.071,33.685 L13.777,34.391 L16.605,37.219 L17.311,37.925 L15.9,39.343 Z M47.72,21.666 L48.427,22.373 L37.113,33.687 L36.406,32.979 C35.843281,32.4163763 35.5271407,31.6532375 35.5271407,30.8575 C35.5271407,30.0617625 35.843281,29.2986237 36.406,28.736 L43.477,21.666 C44.6484996,20.4948542 46.5475004,20.4948542 47.719,21.666 L47.72,21.666 Z M42.063,20.251 L34.992,27.322 L33.578,25.908 L40.649,18.837 L42.063,20.251 Z M34.993,10.351 L40.649,16.008 L39.943,16.715 L31.46,25.2 L30.76,25.9 L25.102,20.242 L34.993,10.351 Z M18.021,14.594 L17.313,13.887 L28.627,2.574 L29.334,3.281 C30.5051458,4.45249955 30.5051458,6.35150045 29.334,7.523 L22.264,14.594 C21.0770156,15.7281025 19.2079844,15.7281025 18.021,14.594 Z M23.678,16.009 L30.749,8.938 L32.163,10.352 L25.092,17.423 L23.678,16.009 Z M25.8,23.787 L27.213,25.2 L17.313,35.1 L15.9,33.686 L25.8,23.787 Z" id="Shape"/><path d="M51.858,45.99 C52.12057,46.0276969 52.3873596,45.9595259 52.5996593,45.8004886 C52.8119591,45.6414514 52.9523724,45.4045799 52.99,45.142 C54.018,37.947 51.046,30.902 50.919,30.606 C50.6964295,30.1066258 50.1140688,29.8785688 49.6115742,30.0940018 C49.1090796,30.3094347 48.8727484,30.888487 49.081,31.394 C49.11,31.461 51.959,38.213 51.01,44.858 C50.9723031,45.12057 51.0404741,45.3873596 51.1995114,45.5996593 C51.3585486,45.8119591 51.5954201,45.9523724 51.858,45.99 Z" id="Shape"/><path d="M44.455,33.167 C43.99456,33.4683129 43.8640707,34.085009 44.163,34.547 C44.182,34.576 46,37.5 46,45 C46,45.5522847 46.4477153,46 47,46 C47.5522847,46 48,45.5522847 48,45 C48,36.792 45.92,33.578 45.832,33.445 C45.5282967,32.9883159 44.9120924,32.8639115 44.455,33.167 Z" id="Shape"/><path d="M39.306,37.289 C38.9124071,37.6732369 38.9030245,38.303212 39.285,38.699 C39.3,38.717 41,40.551 41,45 C41,45.5522847 41.4477153,46 42,46 C42.5522847,46 43,45.5522847 43,45 C43,39.647 40.8,37.387 40.707,37.293 C40.3204661,36.9068515 39.6947326,36.905065 39.306,37.289 Z" id="Shape"/></g></g></svg>
