<?xml version="1.0" encoding="UTF-8"?>
<svg xmlns="http://www.w3.org/2000/svg" xmlns:xlink="http://www.w3.org/1999/xlink" width="512" height="512" viewBox="0 0 60 60" version="1.1"><!-- Generator: Sketch 51.3 (57544) - http://www.bohemiancoding.com/sketch --><title>025 - Pipe Cover</title><desc>Created with Sketch.</desc><defs/><g id="Page-1" stroke="none" stroke-width="1" fill="none" fill-rule="evenodd"><g id="025---Pipe-Cover" fill="#000000" fill-rule="nonzero"><path d="M59.4,29.129 L58,28.529 L58,25 C57.9856716,12.3033905 47.6966095,2.01432841 35,2 L10,2 C10,0.8954305 9.1045695,6.76353751e-17 8,0 L2,0 C0.8954305,-6.76353751e-17 1.3527075e-16,0.8954305 0,2 L0,26 C1.3527075e-16,27.1045695 0.8954305,28 2,28 L8,28 C9.1045695,28 10,27.1045695 10,26 L24,26 C26.6521036,25.9943551 29.1964669,27.0488959 31.067,28.929 L30.604,29.129 C30.2390788,29.2882641 30.003409,29.648839 30.004,30.047 L30.004,44.509 C30.0121592,46.852201 30.8319972,49.1201837 32.324,50.927 C32.1153208,51.2461877 32.0028499,51.6186607 32,52 L32,58 C32,59.1045695 32.8954305,60 34,60 L58,60 C59.1045695,60 60,59.1045695 60,58 L60,52 C59.9974562,51.0278267 59.2961935,50.1982945 58.338,50.034 C59.4167893,48.3928125 59.9943002,46.4729883 60,44.509 L60,30.047 C60.000591,29.648839 59.7649212,29.2882641 59.4,29.129 Z M8,26 L2,26 L2,2 L8,2 L8,26 Z M24.6,24.034 L26.719,19.8 L33.838,17.131 L37.4,19.8 C37.5280357,19.8959008 37.6772101,19.9596857 37.835,19.986 L43.835,20.986 C43.889485,20.9954807 43.9446965,21.0001653 44,21 C44.519329,20.9985857 44.9511445,20.5998709 44.9938844,20.0823016 C45.0366242,19.5647324 44.6760622,19.1005846 44.164,19.014 L38.404,18.054 L35.693,16.02 L41.124,12.141 L47.606,14.919 C48.111513,15.1272516 48.6905653,14.8909204 48.9059982,14.3884258 C49.1214312,13.8859312 48.8933742,13.3035705 48.394,13.081 L41.394,10.081 C41.0731512,9.94209206 40.7029163,9.98196352 40.419,10.186 L33.526,15.11 L25.649,18.063 C25.4122448,18.1516929 25.2178719,18.3267714 25.105,18.553 L23.479,21.805 L22.97,18.757 L21.97,14.757 C21.8852577,14.408179 21.6200517,14.1315402 21.2751156,14.0321598 C20.9301796,13.9327794 20.5584395,14.025906 20.3010941,14.2761673 C20.0437487,14.5264285 19.9402843,14.8954249 20.03,15.243 L21.014,19.165 L21.82,24 L10,24 L10,4 L35,4 C46.5927251,4.01267598 55.987324,13.4072749 56,25 L56,27.662 L45.4,23.082 C45.1474495,22.9720423 44.8605505,22.9720423 44.608,23.082 L33.008,28.092 C30.8751037,25.6505017 27.8384243,24.1848922 24.6,24.034 Z M32,30.705 L45,25.089 L56.582,30.089 C56.6012181,30.0983546 56.6209116,30.1066993 56.641,30.114 L58,30.705 L58,44.505 C57.9902734,47.1463069 56.7057535,49.6203764 54.551,51.148 L45,57.951 L35.449,51.151 C33.294533,49.6235813 32.010049,47.1499534 32,44.509 L32,30.705 Z M34,52.551 C34.1,52.626 34.185,52.71 34.286,52.781 L41.62,58 L34,58 L34,52.551 Z M58,58 L48.38,58 L55.711,52.781 C56.0486149,52.5405957 56.3712166,52.2797759 56.677,52 L58,52 L58,58 Z" id="Shape"/><path d="M36.608,49.522 L44.42,55.083 C44.7671643,55.330178 45.2328357,55.330178 45.58,55.083 L53.392,49.523 C55.0192795,48.3702451 55.9904167,46.5031892 56,44.509 L56,32.677 C56.000591,32.278839 55.7649212,31.9182641 55.4,31.759 L45.4,27.439 C45.1472508,27.3300007 44.8607492,27.3300007 44.608,27.439 L34.608,31.759 C34.2430788,31.9182641 34.007409,32.278839 34.008,32.677 L34.008,44.509 C34.0155659,46.5015033 34.9836502,48.3680441 36.608,49.522 Z M36,33.334 L45,29.446 L54,33.334 L54,44.509 C53.9910962,45.8566812 53.3323369,47.117224 52.231,47.894 L45,53.042 L37.769,47.894 C36.6675346,47.1173365 36.0087381,45.8567225 36,44.509 L36,33.334 Z" id="Shape"/><path d="M42.4,46.8 C42.8320438,47.1242308 43.4434866,47.0467489 43.781,46.625 L51.781,36.625 C52.1217114,36.1934254 52.0500699,35.5677379 51.6206245,35.2243466 C51.1911792,34.8809554 50.5650579,34.9487006 50.219,35.376 L42.825,44.619 L39.6,42.2 C39.3141875,41.9856406 38.9357266,41.9400436 38.6071797,42.0803848 C38.2786328,42.2207259 38.0499141,42.5256842 38.0071797,42.8803848 C37.9644453,43.2350853 38.1141875,43.5856406 38.4,43.8 L42.4,46.8 Z" id="Shape"/><path d="M28,36 C28,33.552 24.475,29.206 23.768,28.359 C23.571765,28.1417878 23.2927273,28.0178307 23,28.0178307 C22.7072727,28.0178307 22.428235,28.1417878 22.232,28.359 C21.525,29.206 18,33.552 18,36 C18,38.7614237 20.2385763,41 23,41 C25.7614237,41 28,38.7614237 28,36 Z M20,36 C20,34.927 21.57,32.471 23,30.6 C24.431,32.466 26,34.922 26,36 C26,37.6568542 24.6568542,39 23,39 C21.3431458,39 20,37.6568542 20,36 Z" id="Shape"/></g></g></svg>
