<?xml version="1.0" encoding="UTF-8"?>
<svg xmlns="http://www.w3.org/2000/svg" xmlns:xlink="http://www.w3.org/1999/xlink" width="512" height="512" viewBox="0 0 60 60" version="1.1"><!-- Generator: Sketch 51.3 (57544) - http://www.bohemiancoding.com/sketch --><title>026 - Shipping Insurance</title><desc>Created with Sketch.</desc><defs/><g id="Page-1" stroke="none" stroke-width="1" fill="none" fill-rule="evenodd"><g id="026---Shipping-Insurance" transform="translate(0.000000, -1.000000)" fill="#000000" fill-rule="nonzero"><path d="M60,50.24 L60,14 C60,13.4477153 59.5522847,13 59,13 L58,13 L58,3 C58,1.8954305 57.1045695,1 56,1 L50,1 C48.8954305,1 48,1.8954305 48,3 L48,13 L41.492,13 C40.8708365,13.0013248 40.2852556,13.2900539 39.906,13.782 L32,24.059 L32,18 C32,16.8954305 31.1045695,16 30,16 L22,16 C21.6478633,16.0019998 21.3026445,16.0979706 21,16.278 C20.6973555,16.0979706 20.3521367,16.0019998 20,16 L12,16 C10.8954305,16 10,16.8954305 10,18 L10,26 L9.12,26 C8.24652613,25.9806861 7.45303412,26.506225 7.13,27.318 C6.8362267,28.0717742 7.050303,28.9288812 7.664,29.456 L20.344,40.781 C19.9484617,41.1667013 19.6289179,41.6232895 19.402,42.127 C19.37,42.2 18.577,44 15.5,44 C12.423,44 11.63,42.2 11.605,42.147 C11.3978229,41.6580569 11.0983629,41.2136201 10.723,40.838 C9.42224961,39.565756 7.64667587,38.8987819 5.83,39 C1.337,39 0.117,42.01 0.067,42.138 C-0.128818557,42.6460389 0.120983081,43.2170141 0.627,43.418 C1.13561697,43.6202567 1.71269568,43.3796593 1.927,42.876 C1.959,42.8 2.76,41 5.83,41 C7.10027976,40.9061339 8.35161873,41.3498531 9.279,42.223 C9.46484759,42.4084096 9.61920765,42.6228924 9.736,42.858 C9.786,42.987 11,46 15.5,46 C20,46 21.215,42.987 21.256,42.877 C21.51849,42.3708561 21.9216656,41.9513589 22.417,41.669 C23.2544324,41.1939085 24.2079313,40.9622009 25.17,41 C28.24,41 29.041,42.8 29.07,42.862 C29.12,42.99 30.34,46 34.833,46 C35.9219133,46.0204393 37.0023388,45.8048318 38,45.368 L38,50.025 C37.0943437,50.7194327 35.9693716,51.0654414 34.83,51 C31.76,51 30.959,49.2 30.93,49.138 C30.883,49.01 29.663,46 25.17,46 C20.677,46 19.447,49.01 19.402,49.127 C19.37,49.2 18.577,51 15.5,51 C12.423,51 11.63,49.2 11.605,49.147 C11.3978229,48.6580569 11.0983629,48.2136201 10.723,47.838 C9.42224961,46.565756 7.64667587,45.8987819 5.83,46 C1.337,46 0.117,49.01 0.067,49.138 C-0.128818557,49.6460389 0.120983081,50.2170141 0.627,50.418 C1.13562157,50.6208302 1.71309985,50.3800662 1.927,49.876 C1.959,49.8 2.76,48 5.83,48 C7.10027976,47.9061339 8.35161873,48.3498531 9.279,49.223 C9.46484759,49.4084096 9.61920765,49.6228924 9.736,49.858 C9.786,49.987 11,53 15.5,53 C20,53 21.215,49.987 21.263,49.862 C21.27,49.843 22.071,48 25.17,48 C28.24,48 29.041,49.8 29.07,49.862 C29.12,49.99 30.34,53 34.833,53 C36.0487934,53.0290535 37.2523706,52.7518869 38.333,52.194 C38.7332853,53.3623873 39.4723406,54.3851591 40.456,55.132 C39.7059941,55.6262526 39.1099992,56.3213489 38.736,57.138 C38.73,57.157 37.929,59 34.83,59 C31.76,59 30.959,57.2 30.93,57.138 C30.883,57.01 29.663,54 25.17,54 C20.677,54 19.447,57.01 19.402,57.127 C19.37,57.2 18.577,59 15.5,59 C12.423,59 11.63,57.2 11.605,57.147 C11.3978229,56.6580569 11.0983629,56.2136201 10.723,55.838 C9.42224961,54.565756 7.64667587,53.8987819 5.83,54 C1.337,54 0.117,57.01 0.067,57.138 C-0.128818557,57.6460389 0.120983081,58.2170141 0.627,58.418 C1.1356259,58.6214058 1.71350565,58.3804744 1.927,57.876 C1.959,57.8 2.76,56 5.83,56 C7.10027976,55.9061339 8.35161873,56.3498531 9.279,57.223 C9.46484759,57.4084096 9.61920765,57.6228924 9.736,57.858 C9.786,57.987 11,61 15.5,61 C20,61 21.215,57.987 21.263,57.862 C21.27,57.843 22.071,56 25.17,56 C28.24,56 29.041,57.8 29.07,57.862 C29.12,57.99 30.34,61 34.833,61 C39.326,61 40.556,57.99 40.602,57.87 C40.958086,57.2025886 41.545499,56.6880689 42.254,56.423 L48.423,60.814 C48.7701643,61.061178 49.2358357,61.061178 49.583,60.814 L50.546,60.129 C51.6568472,60.7317723 52.9065589,61.0321308 54.17,61 C58.663,61 59.883,57.99 59.933,57.862 C60.1288186,57.3539611 59.8790169,56.7829859 59.373,56.582 C58.864383,56.3797433 58.2873043,56.6203407 58.073,57.124 C58.041,57.2 57.24,59 54.17,59 C53.5881922,59.005508 53.0085052,58.9290917 52.448,58.773 L57.392,55.254 C59.0192795,54.1012451 59.9904167,52.2341892 60,50.24 Z M50,3 L56,3 L56,13 L50,13 L50,3 Z M38.415,19 L48.233,19 L46.433,22 L36.108,22 L38.415,19 Z M34.57,24 L47,24 C47.3509854,23.9999332 47.6762425,23.8158613 47.857,23.515 L50.857,18.515 C51.0425768,18.2061174 51.04762,17.8212795 50.8702014,17.5076399 C50.6927828,17.1940002 50.3603432,17.0000685 50,17 L39.954,17 L41.492,15 L58,15 L58,26 L33.031,26 L34.57,24 Z M25,18 L25,20 C25,20.5522847 25.4477153,21 26,21 C26.5522847,21 27,20.5522847 27,20 L27,18 L30,18 L30,26 L22,26 L22,18 L25,18 Z M12,18 L15,18 L15,20 C15,20.5522847 15.4477153,21 16,21 C16.5522847,21 17,20.5522847 17,20 L17,18 L20,18 L20,26 L12,26 L12,18 Z M34.83,44 C31.76,44 30.959,42.2 30.93,42.138 C30.883,42.01 29.663,39 25.17,39 C24.0958274,38.9815755 23.0300917,39.1926089 22.044,39.619 L9,28.037 C9,28.027 9.036,28 9.12,28 L58,28 L58,36.886 L54.944,35.567 C54.9763535,35.3796029 54.9950692,35.1901055 55,35 C54.9878623,33.0396829 53.5568352,31.3770305 51.6201804,31.0731247 C49.6835257,30.7692189 47.8120062,31.9136255 47.2,33.776 L38.6,37.49 C38.2350788,37.6492641 37.999409,38.009839 38,38.408 L38,43.033 C37.0916551,43.7214733 35.967962,44.0642528 34.83,44 Z M49.854,33.367 C50.4198985,32.9652005 51.1544961,32.8879645 51.791587,33.1632809 C52.4286779,33.4385974 52.8758289,34.0265217 52.971,34.714 L49.854,33.367 Z M56.231,53.625 L49,58.772 L41.769,53.625 C40.6675346,52.8483365 40.0087381,51.5877225 40,50.24 L40,39.065 L49,35.177 L53.368,37.064 L53.375,37.069 L53.383,37.069 L58,39.065 L58,50.24 C57.9910962,51.5876812 57.3323369,52.848224 56.231,53.625 Z" id="Shape"/><path d="M54.219,41.106 L46.819,50.349 L43.6,47.931 C43.1581722,47.5996292 42.5313708,47.6891722 42.2,48.131 C41.8686292,48.5728278 41.9581722,49.1996292 42.4,49.531 L46.4,52.531 C46.8320438,52.8552308 47.4434866,52.7777489 47.781,52.356 L55.781,42.356 C56.1217114,41.9244254 56.0500699,41.2987379 55.6206245,40.9553466 C55.1911792,40.6119554 54.5650579,40.6797006 54.219,41.107 L54.219,41.106 Z" id="Shape"/><path d="M35,31 C32.790861,31 31,32.790861 31,35 C31,37.209139 32.790861,39 35,39 C37.209139,39 39,37.209139 39,35 C39,32.790861 37.209139,31 35,31 Z M35,37 C33.8954305,37 33,36.1045695 33,35 C33,33.8954305 33.8954305,33 35,33 C36.1045695,33 37,33.8954305 37,35 C37,36.1045695 36.1045695,37 35,37 Z" id="Shape"/><path d="M1,9 C1.55228475,9 2,8.55228475 2,8 C2,5.23857625 4.23857625,3 7,3 C9.76142375,3 12,5.23857625 12,8 C12,8.55228475 12.4477153,9 13,9 C13.5522847,9 14,8.55228475 14,8 C13.9977098,7.41724027 13.9224578,6.83706052 13.776,6.273 C14.1594233,6.0944568 14.5770469,6.00131036 15,6 C16.6568542,6 18,7.34314575 18,9 C18,9.55228475 18.4477153,10 19,10 C19.5522847,10 20,9.55228475 20,9 C19.9966939,6.23994685 17.7600532,4.00330612 15,4 C14.3147531,4.00545509 13.6381162,4.15324592 13.013,4.434 C11.4085285,1.7195331 8.18589726,0.414603573 5.14481636,1.2479621 C2.10373546,2.08132062 -0.00346570138,4.84680361 7.76378541e-16,8 C3.84580063e-16,8.26521649 0.10535684,8.5195704 0.292893219,8.70710678 C0.480429597,8.89464316 0.73478351,9 1,9 Z" id="Shape"/><path d="M32,9 C32.5522847,9 33,8.55228475 33,8 C33,6.34314575 34.3431458,5 36,5 C37.6568542,5 39,6.34314575 39,8 C39,8.55228475 39.4477153,9 40,9 C40.5522847,9 41,8.55228475 41,8 C41.0009194,6.31949339 40.1575707,4.75092574 38.7552297,3.8248895 C37.3528888,2.89885326 35.5791469,2.73922445 34.034,3.4 C32.9479449,2.12369329 31.1804867,1.66135489 29.608583,2.2423827 C28.0366793,2.82341051 26.9948427,4.32415755 27,6 C27,6.55228475 27.4477153,7 28,7 C28.5522847,7 29,6.55228475 29,6 C29,4.8954305 29.8954305,4 31,4 C31.5169957,4.00193207 32.0124232,4.20743212 32.379,4.572 C31.4959577,5.49504093 31.0021429,6.72259495 31,8 C31,8.55228475 31.4477153,9 32,9 Z" id="Shape"/></g></g></svg>
