<?xml version="1.0" encoding="UTF-8"?>
<svg xmlns="http://www.w3.org/2000/svg" xmlns:xlink="http://www.w3.org/1999/xlink" width="512" height="512" viewBox="0 0 60 60" version="1.1"><!-- Generator: Sketch 51.3 (57544) - http://www.bohemiancoding.com/sketch --><title>028 - Earthquake Cover</title><desc>Created with Sketch.</desc><defs/><g id="Page-1" stroke="none" stroke-width="1" fill="none" fill-rule="evenodd"><g id="028---Earthquake-Cover" fill="#000000" fill-rule="nonzero"><path d="M31.371,14.017 L33.33,14.417 C33.4616763,14.4436842 33.5956483,14.4574164 33.73,14.458 C34.6786583,14.4558215 35.4952703,13.7874945 35.685,12.858 L36.485,8.939 C36.7055738,7.85714006 36.0077319,6.80120096 34.926,6.58 L32.966,6.18 C32.446022,6.07382774 31.9051651,6.17867514 31.4625257,6.4714549 C31.0198862,6.76423465 30.7117614,7.22093825 30.606,7.741 L29.806,11.66 C29.6998029,12.179835 29.8045151,12.720565 30.0970897,13.163178 C30.3896644,13.605791 30.8461226,13.9140109 31.366,14.02 L31.371,14.017 Z M32.571,8.137 L34.532,8.537 L33.732,12.457 L31.773,12.057 L32.571,8.137 Z" id="Shape"/><path d="M39.209,15.614 L41.169,16.014 C42.2511804,16.2345263 43.3072682,15.5361385 43.528,14.454 L44.328,10.534 C44.5485263,9.45181964 43.8501385,8.39573182 42.768,8.175 L40.809,7.775 C40.289022,7.66882774 39.7481651,7.77367514 39.3055257,8.0664549 C38.8628862,8.35923465 38.5547614,8.81593825 38.449,9.336 L37.649,13.255 C37.4284737,14.3371804 38.1268615,15.3932682 39.209,15.614 Z M40.409,9.735 L42.369,10.135 L41.569,14.055 L39.608,13.655 L40.409,9.735 Z" id="Shape"/><path d="M47.049,17.212 L49.008,17.612 C49.1396686,17.6387351 49.2736456,17.6524678 49.408,17.653 C50.3566583,17.6508215 51.1732703,16.9824945 51.363,16.053 L52.163,12.133 C52.2688767,11.6131703 52.1638874,11.0725724 51.8711341,10.6301605 C51.5783808,10.1877486 51.1218509,9.87977258 50.602,9.774 L48.643,9.374 C47.5608196,9.15347366 46.5047318,9.85186154 46.284,10.934 L45.484,14.853 C45.3782217,15.3734024 45.483752,15.9145083 45.7773258,16.3570263 C46.0708997,16.7995443 46.5284119,17.1071395 47.049,17.212 Z M48.249,11.333 L50.209,11.733 L49.409,15.652 L47.449,15.252 L48.249,11.333 Z" id="Shape"/><path d="M29.373,23.815 L31.332,24.215 C32.4141804,24.4355263 33.4702682,23.7371385 33.691,22.655 L34.491,18.736 C34.597222,18.216308 34.4926452,17.6757048 34.2002755,17.2331182 C33.9079058,16.7905317 33.4516931,16.4822167 32.932,16.376 L30.973,15.976 C30.453165,15.8698029 29.912435,15.9745151 29.469822,16.2670897 C29.027209,16.5596644 28.7189891,17.0161226 28.613,17.536 L27.813,21.456 C27.5924737,22.5381804 28.2908615,23.5942682 29.373,23.815 Z M30.573,17.936 L32.532,18.336 L31.732,22.256 L29.772,21.856 L30.573,17.936 Z" id="Shape"/><path d="M35.652,23.054 C35.4314737,24.1361804 36.1298615,25.1922682 37.212,25.413 L39.171,25.813 C40.2531804,26.0335263 41.3092682,25.3351385 41.53,24.253 L42.33,20.334 C42.5505738,19.2521401 41.8527319,18.196201 40.771,17.975 L38.812,17.575 C38.292165,17.4688029 37.751435,17.5735151 37.308822,17.8660897 C36.866209,18.1586644 36.5579891,18.6151226 36.452,19.135 L35.652,23.054 Z M38.41,19.534 L40.37,19.934 L39.57,23.854 L37.611,23.454 L38.41,19.534 Z" id="Shape"/><path d="M43.491,24.652 C43.2704737,25.7341804 43.9688615,26.7902682 45.051,27.011 L47.011,27.411 C47.1426519,27.4378446 47.2766398,27.4515784 47.411,27.452 C48.3596583,27.4498215 49.1762703,26.7814945 49.366,25.852 L50.166,21.933 C50.2721971,21.413165 50.1674849,20.872435 49.8749103,20.429822 C49.5823356,19.987209 49.1258774,19.6789891 48.606,19.573 L46.647,19.173 C45.5648196,18.9524737 44.5087318,19.6508615 44.288,20.733 L43.491,24.652 Z M46.249,21.132 L48.209,21.532 L47.409,25.452 L45.45,25.052 L46.249,21.132 Z" id="Shape"/><path d="M19.536,32.015 L21.496,32.415 C21.6276763,32.4416842 21.7616483,32.4554164 21.896,32.456 C22.8446583,32.4538215 23.6612703,31.7854945 23.851,30.856 L24.651,26.937 C24.8715263,25.8548196 24.1731385,24.7987318 23.091,24.578 L21.132,24.178 C20.6121703,24.0721233 20.0715724,24.1771126 19.6291605,24.4698659 C19.1867486,24.7626192 18.8787726,25.2191491 18.773,25.739 L17.973,29.658 C17.7524262,30.7398599 18.4502681,31.795799 19.532,32.017 L19.536,32.015 Z M20.736,26.136 L22.696,26.536 L21.896,30.456 L19.936,30.056 L20.736,26.136 Z" id="Shape"/><path d="M27.376,33.613 L29.335,34.013 C29.4666686,34.0397351 29.6006456,34.0534678 29.735,34.054 C30.6836583,34.0518215 31.5002703,33.3834945 31.69,32.454 L32.49,28.534 C32.7105263,27.4518196 32.0121385,26.3957318 30.93,26.175 L28.971,25.775 C28.451165,25.6688029 27.910435,25.7735151 27.467822,26.0660897 C27.025209,26.3586644 26.7169891,26.8151226 26.611,27.335 L25.811,31.255 C25.7055174,31.775254 25.8111896,32.3161008 26.1047369,32.7583911 C26.3982841,33.2006815 26.8556226,33.5081281 27.376,33.613 Z M28.576,27.734 L30.536,28.134 L29.736,32.053 L27.776,31.653 L28.576,27.734 Z" id="Shape"/><path d="M38.771,27.772 L36.812,27.372 C35.7298196,27.1514737 34.6737318,27.8498615 34.453,28.932 L33.653,32.851 C33.5471233,33.3708297 33.6521126,33.9114276 33.9448659,34.3538395 C34.2376192,34.7962514 34.6941491,35.1042274 35.214,35.21 L37.173,35.61 C37.3046686,35.6367351 37.4386456,35.6504678 37.573,35.651 C38.5216583,35.6488215 39.3382703,34.9804945 39.528,34.051 L40.328,30.131 C40.5486694,29.0497804 39.8519188,27.9941383 38.771,27.772 Z M37.571,33.651 L35.611,33.251 L36.411,29.333 L38.371,29.733 L37.571,33.651 Z" id="Shape"/><path d="M46.611,29.37 L44.651,28.97 C44.1311703,28.8641233 43.5905724,28.9691126 43.1481605,29.2618659 C42.7057486,29.5546192 42.3977726,30.0111491 42.292,30.531 L41.492,34.45 C41.3858277,34.969978 41.4906751,35.5108349 41.7834549,35.9534743 C42.0762346,36.3961138 42.5329383,36.7042386 43.053,36.81 L45.012,37.21 C45.1436618,37.23678 45.2776432,37.2505131 45.412,37.251 C46.3606583,37.2488215 47.1772703,36.5804945 47.367,35.651 L48.167,31.732 C48.3875263,30.6498196 47.6891385,29.5937318 46.607,29.373 L46.611,29.37 Z M45.411,35.25 L43.451,34.85 L44.251,30.93 L46.212,31.33 L45.411,35.25 Z" id="Shape"/><path d="M17.539,41.814 L19.498,42.214 C19.6295665,42.2413996 19.7636108,42.2551392 19.898,42.255 C20.8481616,42.2547188 21.6669677,41.5859644 21.857,40.655 L22.657,36.734 C22.8782913,35.6524373 22.1813922,34.5961228 21.1,34.374 L19.141,33.974 C18.621165,33.8678029 18.080435,33.9725151 17.637822,34.2650897 C17.195209,34.5576644 16.8869891,35.0141226 16.781,35.534 L15.981,39.454 C15.7597565,40.5358828 16.4572012,41.5923459 17.539,41.814 Z M18.739,35.935 L20.699,36.335 L19.899,40.255 L17.94,39.855 L18.739,35.935 Z" id="Shape"/><path d="M23.818,41.053 C23.5974737,42.1351804 24.2958615,43.1912682 25.378,43.412 L27.337,43.812 C27.4686686,43.8387351 27.6026456,43.8524678 27.737,43.853 C28.6856583,43.8508215 29.5022703,43.1824945 29.692,42.253 L30.492,38.334 C30.598222,37.814308 30.4936452,37.2737048 30.2012755,36.8311182 C29.9089058,36.3885317 29.4526931,36.0802167 28.933,35.974 L26.974,35.574 C26.454165,35.4678029 25.913435,35.5725151 25.470822,35.8650897 C25.028209,36.1576644 24.7199891,36.6141226 24.614,37.134 L23.818,41.053 Z M26.577,37.533 L28.536,37.933 L27.736,41.853 L25.776,41.453 L26.577,37.533 Z" id="Shape"/><path d="M2,60 L58,60 C59.1045695,60 60,59.1045695 60,58 L60,34.475 C60.0000599,33.6836194 59.5645691,32.956433 58.8668835,32.5829119 C58.1691979,32.2093907 57.3225635,32.2501636 56.664,32.689 L54.543,34.1 C54.4242542,34.1787468 54.3137015,34.269199 54.213,34.37 L51.073,37.51 L56.679,10 C56.8440801,9.21865114 56.6897311,8.40373336 56.2503536,7.73687139 C55.8109761,7.07000942 55.1230872,6.60662685 54.34,6.45 L22.99,0.06 C21.3665528,-0.268832349 19.7830221,0.77761267 19.449,2.4 L19.233,3.466 L11.4,0.082 C11.1472508,-0.0269993194 10.8607492,-0.0269993194 10.608,0.082 L0.6,4.4 C0.234411257,4.55955313 -0.00138901678,4.92111355 -1.55431223e-15,5.32 L-1.55431223e-15,17.152 C0.0100799872,19.1460665 0.981106132,21.0129089 2.608,22.166 L10.42,27.727 C10.7671643,27.974178 11.2328357,27.974178 11.58,27.727 L14.743,25.475 L12.054,38.683 C11.5248742,38.243938 10.8595634,38.0024889 10.172,38 L7.724,38 C7.49032659,37.9995881 7.26406999,37.9179236 7.084,37.769 L4.921,35.969 C4.03018266,35.2168536 2.78160353,35.0556961 1.729,35.557 C0.670717801,36.0442631 -0.00525518255,37.1049425 -1.55431223e-15,38.27 L-1.55431223e-15,58 C-1.41903768e-15,59.1045695 0.8954305,60 2,60 Z M55.649,35.769 L57.773,34.353 C57.8180052,34.3238023 57.8753421,34.3214401 57.9225965,34.3468368 C57.969851,34.3722334 57.9995179,34.4213555 58,34.475 L58,58 L37.618,58 L36.447,55.658 C35.9418471,54.6390696 34.9012699,53.9960294 33.764,54 L32.7,54 C32.4732772,53.9993276 32.2534154,53.9221646 32.076,53.781 L28.876,51.219 L34.666,43.803 L40.766,41.19 C40.815067,41.1675998 40.8726385,41.1753797 40.914,41.21 L44.577,44.14 C45.4312639,44.8228225 46.6621795,44.7547971 47.436,43.982 L55.649,35.769 Z M36.074,41.024 L33.874,41.965 C33.859,41.971 33.847,41.983 33.832,41.989 L34.416,39.13 L36.369,39.53 L36.074,41.024 Z M22.733,16.338 L24.693,16.738 L23.893,20.658 L21.934,20.258 L22.733,16.338 Z M11,25.685 L3.769,20.537 C2.66753457,19.7603365 2.0087381,18.4997225 2,17.152 L2,5.977 L11,2.089 L20,5.977 L20,17.152 C19.9910962,18.4996812 19.3323369,19.760224 18.231,20.537 L15.707,22.337 C15.686,22.35 15.667,22.365 15.647,22.38 L11,25.685 Z M19.392,22.166 C19.7132595,21.9328556 20.0116042,21.6696693 20.283,21.38 C20.574641,21.8117173 21.0236671,22.1121448 21.534,22.217 L23.493,22.617 C23.6245687,22.6443855 23.7586115,22.6581249 23.893,22.658 C24.8431616,22.6577188 25.6619677,21.9889644 25.852,21.058 L26.652,17.137 C26.8689387,16.0554122 26.1714076,15.0017424 25.091,14.779 L23.132,14.379 C22.7526508,14.3013368 22.3588813,14.3360914 21.999,14.479 L21.999,10.953 C22.1799089,11.6985194 22.7781407,12.2705884 23.531,12.418 L25.49,12.818 C25.6233163,12.8449978 25.7589778,12.8587315 25.895,12.859 C26.8436583,12.8568215 27.6602703,12.1884945 27.85,11.259 L28.65,7.34 C28.8705263,6.25781964 28.1721385,5.20173182 27.09,4.981 L25.131,4.581 C24.0488196,4.36047366 22.9927318,5.05886154 22.772,6.141 L22,9.92 L22,5.32 C22.000591,4.92183898 21.7649212,4.56126415 21.4,4.402 L21.114,4.278 L21.414,2.8 C21.5277714,2.26054537 22.0541872,1.91287021 22.595,2.02 L53.942,8.411 C54.2046768,8.46195535 54.435542,8.61706787 54.582,8.841 C54.7275533,9.0616618 54.7776869,9.33180631 54.721,9.59 L48.51,40.076 L46.019,42.567 C45.9655871,42.622378 45.8786513,42.6275941 45.819,42.579 L42.156,39.648 C41.5391563,39.1516997 40.6987798,39.0363162 39.971,39.348 L38.3,40.064 L38.329,39.919 C38.5451823,38.8392253 37.8478325,37.7878363 36.769,37.567 L34.815,37.167 C34.295165,37.0608029 33.754435,37.1655151 33.311822,37.4580897 C32.869209,37.7506644 32.5609891,38.2071226 32.455,38.727 L31.455,43.627 C31.4016285,43.8869765 31.4537919,44.1575062 31.6,44.379 C31.608,44.391 31.621,44.397 31.629,44.408 L27.483,49.738 L25.783,46.338 C25.0407945,44.8608622 23.2434969,44.2625083 21.764,45 L20.723,45.521 C20.3677898,45.6985583 19.9411735,45.6491069 19.636,45.395 L14.713,41.295 L13.757,40.342 L17.129,23.779 L19.392,22.166 Z M23.931,10.458 L24.731,6.54 L26.691,6.94 L25.891,10.859 L23.931,10.458 Z M2,38.27 C1.99659865,37.8808547 2.22217831,37.5260367 2.576,37.364 C2.71319798,37.2998127 2.86253926,37.2657165 3.014,37.264 C3.24392564,37.2646838 3.46600247,37.3476966 3.64,37.498 L5.804,39.298 C6.34235301,39.748847 7.02179997,39.996562 7.724,39.998 L10.172,39.998 C10.4369991,39.9990349 10.6909537,40.1042805 10.879,40.291 L13.232,42.645 C13.295,42.706 13.359,42.766 13.432,42.824 L18.357,46.924 C19.2732577,47.6862562 20.5534195,47.834948 21.62,47.303 L22.661,46.782 C23.1561327,46.5377576 23.7555192,46.7409849 24,47.236 L25.908,51.053 C26.103466,51.4403678 26.3796659,51.7813553 26.718,52.053 L30.827,55.34 C31.3583014,55.7662547 32.0188441,55.999014 32.7,56 L33.763,56 C34.1416657,56.0002022 34.4877365,56.2142706 34.657,56.553 L35.382,58 L1.99996207,58 L2,38.27 Z" id="Shape"/><path d="M11.342,45.553 L9.485,44.625 C8.52165531,44.1452988 7.37546394,44.2166021 6.479,44.812 L4.445,46.168 C4.14775503,46.3662824 3.97887175,46.7080812 4.00196686,47.0646441 C4.02506198,47.421207 4.23662678,47.7383636 4.55696686,47.8966441 C4.87730695,48.0549246 5.25775503,48.0302824 5.555,47.832 L7.589,46.476 C7.88719498,46.2777947 8.26860542,46.2541472 8.589,46.414 L10.445,47.342 C10.7847203,47.5101765 10.9992129,47.856933 10.998,48.236 L10.998,50 C10.998,50.5522847 11.4457153,51 11.998,51 C12.5502847,51 12.998,50.5522847 12.998,50 L12.998,48.236 C13.0021092,47.0992448 12.3599867,46.0588977 11.342,45.553 Z" id="Shape"/><path d="M22.447,52.105 L20.869,51.316 C20.4523925,51.1085451 19.9934022,51.0003863 19.528,51 L18.605,51 C18.0130161,50.9979187 17.4337903,51.1719649 16.941,51.5 L14.441,53.164 C13.9814991,53.4705181 13.857482,54.0914991 14.1640001,54.551 C14.4705181,55.0105009 15.0914991,55.134518 15.551,54.828 L18.051,53.163 C18.2156187,53.0553679 18.408322,52.99867 18.605,53 L19.528,53 C19.6826694,52.9988736 19.8355544,53.0330761 19.975,53.1 L21.553,53.89 C21.8727527,54.0496977 22.2534141,54.0266785 22.5515927,53.8296134 C22.8497714,53.6325483 23.0201668,53.2913762 22.9985928,52.9346134 C22.9770187,52.5778505 22.7667527,52.2596977 22.447,52.1 L22.447,52.105 Z" id="Shape"/><path d="M45.265,50.426 C44.9642246,49.5300282 44.2609718,48.8267754 43.365,48.526 L42.241,48.152 C41.3627824,47.8613729 40.3997243,47.9904197 39.629,48.502 L37.442,49.959 C36.9824991,50.2655181 36.858482,50.8864991 37.1650001,51.346 C37.4715181,51.8055009 38.0924991,51.929518 38.552,51.623 L40.739,50.165 C40.9953757,49.9946503 41.3159182,49.9518621 41.608,50.049 L42.732,50.424 C43.0307107,50.5232962 43.2652316,50.7574467 43.365,51.056 L44.049,53.107 C44.2232458,53.6316705 44.7898295,53.9157458 45.3145,53.7415 C45.8391705,53.5672542 46.1232458,53.0006705 45.949,52.476 L45.265,50.426 Z" id="Shape"/><path d="M49,51 C49.2651948,50.9999434 49.5195073,50.8945494 49.707,50.707 L52.121,48.293 C52.3090463,48.1062805 52.5630009,48.0010349 52.828,48 L53.172,48 C53.4369991,48.0010349 53.6909537,48.1062805 53.879,48.293 L54.293,48.707 C54.6853789,49.0859722 55.3090848,49.0805524 55.6948186,48.6948186 C56.0805524,48.3090848 56.0859722,47.6853789 55.707,47.293 L55.293,46.879 C54.7319041,46.3142872 53.9680678,45.9977327 53.172,46 L52.828,46 C52.0319322,45.9977327 51.2680959,46.3142872 50.707,46.879 L48.293,49.293 C48.0070921,49.5789943 47.9215781,50.0090366 48.076322,50.3826546 C48.2310659,50.7562725 48.5956041,50.9999137 49,51 Z" id="Shape"/><path d="M55,52 L53.828,52 C53.0319322,51.9977327 52.2680959,52.3142872 51.707,52.879 L50.293,54.293 C50.0330434,54.5440745 49.9287874,54.9158779 50.0203028,55.2655073 C50.1118183,55.6151368 50.3848632,55.8881817 50.7344927,55.9796972 C51.0841221,56.0712126 51.4559255,55.9669566 51.707,55.707 L53.121,54.293 C53.3090463,54.1062805 53.5630009,54.0010349 53.828,54 L55,54 C55.5522847,54 56,53.5522847 56,53 C56,52.4477153 55.5522847,52 55,52 Z" id="Shape"/><circle id="Oval" cx="8" cy="53" r="1"/><circle id="Oval" cx="5" cy="42" r="1"/><circle id="Oval" cx="26" cy="55" r="1"/><circle id="Oval" cx="41" cy="55" r="1"/><circle id="Oval" cx="54" cy="42" r="1"/><circle id="Oval" cx="34" cy="50" r="1"/><path d="M17.625,7.862 C17.4178959,7.69616411 17.1533778,7.6194289 16.889678,7.6486872 C16.6259781,7.6779455 16.3847145,7.81079875 16.219,8.018 L8.819,17.261 L5.6,14.843 C5.1581722,14.5116292 4.53137085,14.6011722 4.2,15.043 C3.86862915,15.4848278 3.9581722,16.1116292 4.4,16.443 L8.4,19.443 C8.83204381,19.7672308 9.44348656,19.6897489 9.781,19.268 L17.781,9.268 C17.9468359,9.06089589 18.0235711,8.79637779 17.9943128,8.53267795 C17.9650545,8.26897812 17.8322013,8.0277145 17.625,7.862 Z" id="Shape"/></g></g></svg>
