<?xml version="1.0" encoding="UTF-8"?>
<svg xmlns="http://www.w3.org/2000/svg" xmlns:xlink="http://www.w3.org/1999/xlink" width="512" height="512" viewBox="0 0 48 60" version="1.1"><!-- Generator: Sketch 51.3 (57544) - http://www.bohemiancoding.com/sketch --><title>029 - Pet Insurance</title><desc>Created with Sketch.</desc><defs/><g id="Page-1" stroke="none" stroke-width="1" fill="none" fill-rule="evenodd"><g id="029---Pet-Insurance" fill="#000000" fill-rule="nonzero"><path d="M47.4,10.1 L24.4,0.083 C24.1449495,-0.028313148 23.8550505,-0.028313148 23.6,0.083 L0.6,10.1 C0.23541191,10.2591192 -0.000192856432,10.6192018 -1.55431223e-15,11.017 L-1.55431223e-15,34.986 C0.0108500132,40.209187 2.53023093,45.1091819 6.772,48.157 L22.672,59.57 C23.4667258,60.1433192 24.5392742,60.1433192 25.334,59.57 L41.234,48.155 C45.4734404,45.1067399 47.9905543,40.2075568 48,34.986 L48,11.021 C48.0017888,10.621751 47.7659232,10.2596972 47.4,10.1 Z M46,34.986 C45.9896281,39.5649137 43.7806046,43.8601957 40.062,46.532 L24.162,57.946 C24.0634828,58.0170803 23.9305172,58.0170803 23.832,57.946 L7.932,46.532 C4.21566486,43.8589002 2.00898238,39.5638301 2,34.986 L2,11.676 L24,2.09 L46,11.676 L46,34.986 Z" id="Shape"/><path d="M23.6,4.446 L4.6,12.724 C4.23541191,12.8831192 3.99980714,13.2432018 4,13.641 L4,34.986 C4.00946854,38.9209809 5.90866955,42.6118669 9.105,44.907 L23.417,55.184 C23.7654532,55.4340371 24.2345468,55.4340371 24.583,55.184 L38.9,44.907 C42.0944391,42.6107869 43.9916891,38.9200776 44,34.986 L44,13.641 C44.0001929,13.2432018 43.7645881,12.8831192 43.4,12.724 L24.4,4.446 C24.1449495,4.33468685 23.8550505,4.33468685 23.6,4.446 Z M42,14.3 L42,34.99 C41.9921291,38.2820796 40.4031803,41.3699454 37.729,43.29 L24,53.14 L10.271,43.283 C7.59767622,41.3635641 6.00883356,38.2770205 6,34.986 L6,14.3 L24,6.454 L42,14.3 Z" id="Shape"/><path d="M24,26 C17.153,26 12,33.718 12,38.723 C11.8915743,39.7481414 12.2782141,40.7635818 13.041,41.457 C14.241,42.395 16.006,41.949 18.241,41.384 C20.1142382,40.834753 22.0490496,40.5229793 24,40.456 C25.9526307,40.522562 27.8891478,40.8343399 29.764,41.384 C30.8672345,41.7190144 32.0054165,41.9257126 33.156,42 C33.8004488,42.0302302 34.4357783,41.8385725 34.956,41.457 C35.7198909,40.7641706 36.1076776,39.7486449 36,38.723 C36,33.718 30.847,26 24,26 Z M33.73,39.878 C33.295,40.216 31.68,39.807 30.254,39.446 C28.2192274,38.8544628 26.1179898,38.5218397 24,38.456 C21.8820102,38.5218397 19.7807726,38.8544628 17.746,39.446 C16.32,39.807 14.704,40.216 14.27,39.878 C14.0426466,39.5385972 13.946667,39.1280178 14,38.723 C14,34.586 18.576,28 24,28 C29.424,28 34,34.586 34,38.723 C34.053333,39.1280178 33.9573534,39.5385972 33.73,39.878 Z" id="Shape"/><path d="M16.79,23.506 C17.3883931,23.905208 18.0897185,24.1223097 18.809,24.131 C19.0937137,24.1309699 19.3772861,24.0950193 19.653,24.024 C22.059,23.414 23.475,20.34 22.876,17.024 C22.6205643,15.2600574 21.6644315,13.6737133 20.224,12.624 C19.3860123,12.0529693 18.3450789,11.8643365 17.36,12.105 C14.955,12.716 13.539,15.79 14.138,19.105 C14.3931808,20.8693053 15.3493397,22.4560532 16.79,23.506 Z M17.853,14.043 C17.9664327,14.0143148 18.0829966,13.9998703 18.2,14 C18.5367396,14.0083811 18.8637378,14.1147164 19.141,14.306 C20.1162249,15.0553147 20.751943,16.1629617 20.907,17.383 C21.307,19.591 20.507,21.745 19.161,22.083 C18.7139578,22.1841841 18.2449873,22.0887879 17.873,21.821 C16.8974851,21.0717923 16.2614148,19.9641589 16.106,18.744 C15.707,16.539 16.507,14.385 17.853,14.043 Z" id="Shape"/><path d="M13.4,29.724 C15.4014084,28.6853634 16.2760481,26.2885725 15.414,24.205 C15.0191482,23.0660561 14.1759593,22.1379704 13.08,21.636 C12.2031382,21.246561 11.2039606,21.2385936 10.321,21.614 C8.31668851,22.6494957 7.43861547,25.0469262 8.3,27.132 C8.69470146,28.271121 9.5384419,29.1990548 10.635,29.7 C11.0821638,29.8959609 11.5647865,29.9980672 12.053,30 C12.5161111,30.0006971 12.9744827,29.9067768 13.4,29.724 Z M11.433,27.865 C10.8414458,27.5817562 10.3908132,27.0697394 10.185,26.447 C9.69418683,25.3584686 10.0902169,24.0747996 11.109,23.452 C11.2832197,23.3763847 11.4710786,23.3372474 11.661,23.337 C11.8766817,23.3389101 12.089701,23.3848487 12.287,23.472 C12.8786159,23.7556614 13.329216,24.2680023 13.535,24.891 C14.0278386,25.9809118 13.6316488,27.2672423 12.611,27.891 C12.2303659,28.0480637 11.801366,28.0386351 11.428,27.865 L11.433,27.865 Z" id="Shape"/><path d="M32.591,24.205 C31.7291052,26.2888292 32.6042115,28.6857083 34.606,29.724 C35.0296019,29.9061655 35.4858895,30.0000771 35.947,30 C36.4352135,29.9980672 36.9178362,29.8959609 37.365,29.7 C38.4615581,29.1990548 39.3052985,28.271121 39.7,27.132 C40.562302,25.0484677 39.6870298,22.6515684 37.685,21.614 C36.8019432,21.2390757 35.8029656,21.2470415 34.926,21.636 C33.8296612,22.1377517 32.9860836,23.0658676 32.591,24.205 Z M34.47,24.891 C34.675784,24.2680023 35.1263841,23.7556614 35.718,23.472 C35.915299,23.3848487 36.1283183,23.3389101 36.344,23.337 C36.5339302,23.3371625 36.7218061,23.3763033 36.896,23.452 C37.9147831,24.0747996 38.3108132,25.3584686 37.82,26.447 C37.6141868,27.0697394 37.1635542,27.5817562 36.572,27.865 C36.1998308,28.0361309 35.773037,28.0437457 35.395,27.886 C34.3762227,27.2632258 33.979841,25.9798063 34.47,24.891 Z" id="Shape"/><path d="M28.377,23.9 C28.6531638,23.9703296 28.9370216,24.0059379 29.222,24.006 C29.9410483,23.9978052 30.6421911,23.7806525 31.24,23.381 C32.6809786,22.3316298 33.6375351,20.7451811 33.893,18.981 C34.493,15.668 33.075,12.594 30.67,11.981 C29.6854031,11.7394402 28.6445383,11.9277629 27.807,12.499 C26.3662774,13.5486048 25.4097919,15.1349358 25.154,16.899 C24.557,20.21 25.972,23.284 28.377,23.9 Z M27.123,17.258 C27.2779852,16.0376968 27.914144,14.9299093 28.89,14.181 C29.1670308,13.9900054 29.4936229,13.8836892 29.83,13.875 C29.9473694,13.8752792 30.0642547,13.8900578 30.178,13.919 C31.523,14.26 32.323,16.414 31.924,18.619 C31.7690148,19.8393032 31.132856,20.9470907 30.157,21.696 C29.7851688,21.9641352 29.3161851,22.0598982 28.869,21.959 C27.523,21.615 26.724,19.461 27.123,17.253 L27.123,17.258 Z" id="Shape"/></g></g></svg>
