<?xml version="1.0" encoding="UTF-8"?>
<svg xmlns="http://www.w3.org/2000/svg" xmlns:xlink="http://www.w3.org/1999/xlink" width="512" height="512" viewBox="0 0 48 60" version="1.1"><!-- Generator: Sketch 51.3 (57544) - http://www.bohemiancoding.com/sketch --><title>030 - Fire Cover</title><desc>Created with Sketch.</desc><defs/><g id="Page-1" stroke="none" stroke-width="1" fill="none" fill-rule="evenodd"><g id="030---Fire-Cover" fill="#000000" fill-rule="nonzero"><path d="M6.772,48.157 L22.672,59.57 C23.4674523,60.1433492 24.5405477,60.1433492 25.336,59.57 L41.236,48.157 C45.4749992,45.1076749 47.991331,40.2078218 48,34.986 L48,11.022 C48.0001929,10.6242018 47.7645881,10.2641192 47.4,10.105 L24.4,0.083 C24.144799,-0.0275893849 23.855201,-0.0275893849 23.6,0.083 L0.6,10.105 C0.23541191,10.2641192 -0.000192856432,10.6242018 -1.55431225e-15,11.022 L-1.55431225e-15,34.986 C0.0105214862,40.2092668 2.52997482,45.1094027 6.772,48.157 Z M2,11.677 L24,2.091 L46,11.677 L46,34.986 C45.9901207,39.5650335 43.7809886,43.8605268 40.062,46.532 L24.162,57.946 C24.0640001,58.0175389 23.9309999,58.0175389 23.833,57.946 L7.933,46.532 C4.21590265,43.8594468 2.00872156,39.5641303 2,34.986 L2,11.677 Z" id="Shape"/><path d="M9.105,44.908 L23.417,55.184 C23.7654532,55.4340371 24.2345468,55.4340371 24.583,55.184 L38.9,44.908 C42.0945967,42.6114704 43.9918459,38.9203907 44,34.986 L44,13.642 C44.0001929,13.2442018 43.7645881,12.8841192 43.4,12.725 L24.4,4.446 C24.144799,4.33541062 23.855201,4.33541062 23.6,4.446 L4.6,12.725 C4.23541191,12.8841192 3.99980714,13.2442018 4,13.642 L4,34.986 C4.00931183,38.9212939 5.90851197,42.6125503 9.105,44.908 Z M6,14.3 L24,6.454 L42,14.3 L42,34.986 C41.9922933,38.2781196 40.4033084,41.3660558 37.729,43.286 L24,53.141 L10.271,43.283 C7.59793198,41.3633435 6.00916171,38.2769406 6,34.986 L6,14.3 Z" id="Shape"/><path d="M24.021,46 C27.2553038,46.0000301 30.3573975,44.7163927 32.646,42.431 C34.4233243,40.5643361 35.5345176,38.1630196 35.807,35.6 C35.857,35.204 35.8966667,34.804 35.926,34.4 C36.1935399,30.3062713 35.4733162,26.2081987 33.826,22.451 C33.4390065,21.5586291 32.9611531,20.7084791 32.4,19.914 C32.3104786,19.7988665 32.2136101,19.6896389 32.11,19.587 C32.051,19.526 31.982,19.46 31.931,19.398 C31.7348798,18.9279433 31.2167966,18.6803931 30.7278749,18.8231234 C30.2389531,18.9658537 29.9354237,19.4532562 30.023,19.955 C30.4353135,22.0546136 29.5733071,24.200226 27.823,25.431 C28.6759933,22.838068 28.5363075,20.0208344 27.431,17.525 C26.0291072,14.8865183 23.6379347,12.9117961 20.782,12.034 L20.777,12.034 C20.7308676,12.020512 20.6837109,12.0108131 20.636,12.005 L20.628,12.005 C20.2286425,11.9565164 19.839114,12.1520618 19.6394049,12.50128 C19.4396957,12.8504982 19.4686938,13.2853884 19.713,13.605 C19.747,13.7076667 19.7956667,13.8843333 19.859,14.135 C19.883,14.228 19.901,14.297 19.91,14.327 C20.1674422,15.1526163 20.3679133,15.994929 20.51,16.848 C20.979,19.696 20.62,21.669 19.378,23.057 C18.69023,23.7515039 17.9174397,24.3562963 17.078,24.857 C16.85,25.008 16.624,25.157 16.4,25.311 C14.2339262,26.7880706 12.7315523,29.0538341 12.214,31.624 C11.547455,35.1280289 12.4976281,38.7457414 14.8,41.47 C17.0351611,44.2909267 20.4221758,45.9548652 24.021,46 Z M14.184,32.028 C14.5989734,29.9670028 15.8038574,28.1501655 17.541,26.966 C17.756,26.819 17.974,26.674 18.191,26.53 C19.1749158,25.9363727 20.0774798,25.2173468 20.876,24.391 C23.076,21.927 22.854,18.72 22.49,16.522 C22.396,15.955 22.275,15.378 22.128,14.803 C23.6372886,15.62238 24.8620345,16.8809529 25.64,18.412 C26.76,20.76 26.577,23.701 25.098,27.151 C24.9416381,27.5116468 25.0110664,27.930448 25.2754405,28.2213457 C25.5398146,28.5122435 25.9500913,28.6212744 26.324,28.5 C28.950855,27.6534925 31.0118498,25.5977051 31.865,22.973 C31.911,23.073 31.957,23.173 32.003,23.273 C33.5160144,26.728181 34.1775463,30.4960665 33.932,34.26 C33.9046667,34.6266667 33.868,34.9903333 33.822,35.351 C33.5968558,37.4751432 32.6838688,39.4675618 31.222,41.025 C29.3107061,42.9316792 26.7207162,44.0017001 24.021,44 C21.0202172,43.9545032 18.1998892,42.5584831 16.344,40.2 C14.4303294,37.9401525 13.6368819,34.9382762 14.184,32.028 Z" id="Shape"/><path d="M24.021,42 C26.1870561,42.0021172 28.2654567,41.1447185 29.8,39.616 C30.9508374,38.3682757 31.6656446,36.780751 31.837,35.092 C31.878,34.771 31.91,34.446 31.937,34.113 C32.0408525,32.523915 31.9653767,30.9281885 31.712,29.356 C31.6572578,29.0100249 31.425482,28.7179128 31.1010091,28.5859551 C30.7765363,28.4539973 30.4066722,28.5014324 30.126,28.711 C29.1617165,29.4416337 28.0859019,30.0119573 26.94,30.4 C26.4393617,30.5881093 26.1753453,31.136829 26.3407693,31.645414 C26.5061933,32.153999 27.0424957,32.4424045 27.558,32.3 C28.381301,32.0271422 29.1739172,31.6692081 29.923,31.232 C29.9975974,32.1422481 30.0039484,33.0568036 29.942,33.968 C29.921,34.268 29.893,34.55 29.855,34.833 C29.7385082,36.086714 29.221708,37.2696745 28.381,38.207 C27.2227196,39.3588655 25.6545218,40.0037688 24.021,40 C22.2219288,39.9520345 20.5398015,39.0975682 19.44,37.673 C18.2869598,36.3403687 17.7948509,34.5595956 18.1,32.824 C18.3045484,31.7789052 18.9161081,30.8579682 19.8,30.264 C19.979,30.141 20.163,30.019 20.405,29.864 C20.937,29.511 21.541,29.11 22.143,28.643 C22.5790288,28.3038972 22.6576028,27.6755288 22.3185,27.2395 C21.9793972,26.8034712 21.3510288,26.7248972 20.915,27.064 C20.373,27.485 19.827,27.847 19.243,28.234 C19.05,28.363 18.855,28.491 18.668,28.62 C17.3529091,29.5046302 16.4431777,30.8755224 16.139,32.431 C15.7111327,34.7541483 16.3532779,37.1463963 17.887,38.943 C19.367241,40.8334129 21.6204028,41.9563206 24.021,42 Z" id="Shape"/><path d="M24,37 C24.5522847,37 25,36.5522847 25,36 L25,34 C25,33.4477153 24.5522847,33 24,33 C23.4477153,33 23,33.4477153 23,34 L23,36 C23,36.5522847 23.4477153,37 24,37 Z" id="Shape"/></g></g></svg>
