<?xml version="1.0" encoding="UTF-8"?>
<svg xmlns="http://www.w3.org/2000/svg" xmlns:xlink="http://www.w3.org/1999/xlink" width="512" height="512" viewBox="0 0 48 60" version="1.1"><!-- Generator: Sketch 51.3 (57544) - http://www.bohemiancoding.com/sketch --><title>031 - Life Insurance</title><desc>Created with Sketch.</desc><defs/><g id="Page-1" stroke="none" stroke-width="1" fill="none" fill-rule="evenodd"><g id="031---Life-Insurance" fill="#000000" fill-rule="nonzero"><path d="M24.4,0.083 C24.1449495,-0.028313148 23.8550505,-0.028313148 23.6,0.083 L0.6,10.1 C0.23541191,10.2591192 -0.000192856432,10.6192018 1.99840144e-15,11.017 L1.99840144e-15,34.986 C0.0111784389,40.2091071 2.53048696,45.1089613 6.772,48.157 L22.672,59.571 C23.4676222,60.1415377 24.5383778,60.1415377 25.334,59.571 L41.234,48.157 C45.4732436,45.1076658 47.9902111,40.2080235 48,34.986 L48,11.021 C48.0001929,10.6232018 47.7645881,10.2631192 47.4,10.104 L24.4,0.083 Z M46,34.986 C45.9898892,39.5652142 43.7803669,43.8607428 40.061,46.532 L24.161,57.946 C24.0624828,58.0170803 23.9295172,58.0170803 23.831,57.946 L7.931,46.532 C4.21465912,43.859015 2.00825835,39.5637691 2,34.986 L2,11.676 L24,2.09 L46,11.676 L46,34.986 Z" id="Shape"/><path d="M23.6,4.446 L4.6,12.724 C4.23541191,12.8831192 3.99980714,13.2432018 4,13.641 L4,34.986 C4.00996105,38.920861 5.90905342,42.6115359 9.105,44.907 L23.417,55.184 C23.7654532,55.4340371 24.2345468,55.4340371 24.583,55.184 L38.9,44.907 C42.0940553,42.6104562 43.9911968,38.9199579 44,34.986 L44,13.641 C44.0001929,13.2432018 43.7645881,12.8831192 43.4,12.724 L24.4,4.446 C24.1449495,4.33468685 23.8550505,4.33468685 23.6,4.446 Z M37.729,43.283 L24,53.14 L10.271,43.283 C7.59742034,41.3637848 6.00850525,38.2771005 6,34.986 L6,31 L9.94,31 C10.8146741,32.1297612 11.8139913,33.1572566 12.919,34.063 C13.25,34.354 13.571,34.635 13.872,34.917 C16.099,37.005 23.083,42.548 23.378,42.783 C23.7422042,43.0723103 24.2577958,43.0723103 24.622,42.783 C24.922,42.548 31.901,37.005 34.128,34.917 C34.428,34.635 34.75,34.354 35.081,34.063 C36.1860087,33.1572566 37.1853259,32.1297612 38.06,31 L42,31 L42,34.986 C41.9911664,38.2770205 40.4023238,41.3635641 37.729,43.283 Z M10,24.812 C10,20.547 12.534,18 16.778,18 C19.3937088,17.9759763 21.8183424,19.3668899 23.118,21.637 C23.3080318,21.9411513 23.6413635,22.1259319 24,22.1259319 C24.3586365,22.1259319 24.6919682,21.9411513 24.882,21.637 C26.1816576,19.3668899 28.6062912,17.9759763 31.222,18 C35.466,18 38,20.547 38,24.812 C38.0300845,26.2760664 37.6693686,27.7216913 36.955,29 L30,29 C29.7140993,28.9999236 29.4418381,29.1222227 29.252,29.336 L28.904,29.728 L27.689,27.042 C27.527807,26.6781497 27.1638709,26.4466975 26.766,26.455 C26.3689658,26.4595338 26.0122246,26.6985386 25.857,27.064 L24.148,31.09 L22.178,24.705 C22.0534329,24.3067431 21.6946656,24.0277018 21.278,24.005 C20.8606663,23.9748893 20.4700895,24.212527 20.305,24.597 L18.35,29 L11.05,29 C10.3338895,27.7221773 9.97144053,26.2765236 10,24.812 Z M19,31 C19.3952897,31.0000502 19.7535124,30.7672446 19.914,30.406 L21.053,27.843 L23.044,34.3 C23.1692037,34.6999041 23.5304644,34.9793322 23.949,35 L24,35 C24.4010396,34.9998433 24.7631935,34.7601131 24.92,34.391 L26.807,29.945 L27.718,31.958 C27.8577885,32.2666164 28.1443319,32.4834655 28.4793188,32.5341477 C28.8143057,32.5848298 29.1521729,32.4624515 29.377,32.209 L30.45,31 L35.438,31 C34.903,31.551 34.332,32.06 33.763,32.56 C33.415,32.86 33.077,33.16 32.763,33.46 C30.973,35.134 25.8,39.289 24,40.722 C22.2,39.289 17.028,35.135 15.24,33.458 C14.923,33.158 14.585,32.865 14.24,32.558 C13.671,32.058 13.1,31.549 12.565,30.998 L19,31 Z M42,14.3 L42,29 L39.2,29 C39.7483804,27.6728356 40.0205841,26.2478491 40,24.812 C40,19.377 36.637,16 31.222,16 C28.4194521,15.9725852 25.7585794,17.229702 24,19.412 C22.2414206,17.229702 19.5805479,15.9725852 16.778,16 C11.363,16 8,19.377 8,24.812 C7.97941593,26.2478491 8.25161964,27.6728356 8.8,29 L6,29 L6,14.3 L24,6.454 L42,14.3 Z" id="Shape"/></g></g></svg>
