<?xml version="1.0" encoding="UTF-8"?>
<svg xmlns="http://www.w3.org/2000/svg" xmlns:xlink="http://www.w3.org/1999/xlink" width="512" height="512" viewBox="0 0 48 60" version="1.1"><!-- Generator: Sketch 51.3 (57544) - http://www.bohemiancoding.com/sketch --><title>032 - Home Insurance</title><desc>Created with Sketch.</desc><defs/><g id="Page-1" stroke="none" stroke-width="1" fill="none" fill-rule="evenodd"><g id="032---Home-Insurance" fill="#000000" fill-rule="nonzero"><path d="M22.669,59.571 C23.4646222,60.1415377 24.5353778,60.1415377 25.331,59.571 L41.231,48.157 C45.4713783,45.1083134 47.9895163,40.2085653 48,34.986 L48,11.021 C48.0001929,10.6232018 47.7645881,10.2631192 47.4,10.104 L24.4,0.083 C24.1449495,-0.028313148 23.8550505,-0.028313148 23.6,0.083 L0.6,10.1 C0.23541191,10.2591192 -0.000192856432,10.6192018 1.99840144e-15,11.017 L1.99840144e-15,34.986 C0.0111784389,40.2091071 2.53048696,45.1089613 6.772,48.157 L22.669,59.571 Z M2,34.986 L2,11.676 L24,2.09 L46,11.676 L46,34.986 C45.9898892,39.5652142 43.7803669,43.8607428 40.061,46.532 L24.161,57.946 C24.0624828,58.0170803 23.9295172,58.0170803 23.831,57.946 L7.931,46.532 C4.21465912,43.859015 2.00825835,39.5637691 2,34.986 Z" id="Shape"/><path d="M9.105,44.907 L23.417,55.184 C23.7654532,55.4340371 24.2345468,55.4340371 24.583,55.184 L38.9,44.907 C42.0940553,42.6104562 43.9911968,38.9199579 44,34.986 L44,13.641 C44.0001929,13.2432018 43.7645881,12.8831192 43.4,12.724 L24.4,4.446 C24.1449495,4.33468685 23.8550505,4.33468685 23.6,4.446 L4.6,12.724 C4.23541191,12.8831192 3.99980714,13.2432018 4,13.641 L4,34.986 C4.00996105,38.920861 5.90905342,42.6115359 9.105,44.907 Z M6,14.3 L24,6.454 L42,14.3 L42,34.99 C41.9921291,38.2820796 40.4031803,41.3699454 37.729,43.29 L24,53.14 L10.271,43.283 C7.59742034,41.3637848 6.00850525,38.2771005 6,34.986 L6,14.3 Z" id="Shape"/><path d="M10.581,27.814 L12,26.8 L12,40 C12,41.1045695 12.8954305,42 14,42 L34,42 C35.1045695,42 36,41.1045695 36,40 L36,26.8 L37.419,27.814 C37.7238494,28.0316148 38.1247482,28.060628 38.4577546,27.889175 C38.7907609,27.7177221 39.0000361,27.3745522 39,27 L39,22 C39.0000312,21.6769116 38.8439628,21.3737144 38.581,21.186 L24.581,11.186 C24.2334049,10.9378714 23.7665951,10.9378714 23.419,11.186 L9.419,21.186 C9.15603718,21.3737144 8.99996884,21.6769116 9,22 L9,27 C8.99996388,27.3745522 9.20923907,27.7177221 9.54224542,27.889175 C9.87525177,28.060628 10.2761506,28.0316148 10.581,27.814 Z M21,40 L21,31 C21,30.4477153 21.4477153,30 22,30 L26,30 C26.5522847,30 27,30.4477153 27,31 L27,34 L26,34 C25.4477153,34 25,34.4477153 25,35 C25,35.5522847 25.4477153,36 26,36 L27,36 L27,40 L21,40 Z M34,40 L29,40 L29,31 C29,29.3431458 27.6568542,28 26,28 L22,28 C20.3431458,28 19,29.3431458 19,31 L19,40 L14,40 L14,25.372 L24,18.229 L34,25.372 L34,40 Z M11,22.515 L24,13.229 L37,22.515 L37,25.057 L24.581,16.186 C24.2334049,15.9378714 23.7665951,15.9378714 23.419,16.186 L11,25.057 L11,22.515 Z" id="Shape"/></g></g></svg>
