<?xml version="1.0" encoding="UTF-8"?>
<svg xmlns="http://www.w3.org/2000/svg" xmlns:xlink="http://www.w3.org/1999/xlink" width="512" height="512" viewBox="0 0 60 60" version="1.1"><!-- Generator: Sketch 51.3 (57544) - http://www.bohemiancoding.com/sketch --><title>035 - Device Cover</title><desc>Created with Sketch.</desc><defs/><g id="Page-1" stroke="none" stroke-width="1" fill="none" fill-rule="evenodd"><g id="035---Device-Cover" fill="#000000" fill-rule="nonzero"><path d="M55,0 L5,0 C2.23994685,0.00330611633 0.00330611633,2.23994685 0,5 L0,45 C0.00330611633,47.7600532 2.23994685,49.9966939 5,50 L22.438,50 L21.253,54 L21,54 C19.3431458,54 18,55.3431458 18,57 C18,58.6568542 19.3431458,60 21,60 L39,60 C40.6568542,60 42,58.6568542 42,57 C42,55.3431458 40.6568542,54 39,54 L38.747,54 L37.562,50 L55,50 C57.7600532,49.9966939 59.9966939,47.7600532 60,45 L60,5 C59.9966939,2.23994685 57.7600532,0.00330611633 55,0 Z M58,5 L58,5.526 L49.837,2 L55,2 C56.6568542,2 58,3.34314575 58,5 Z M45,34.951 L35.449,28.151 C33.294533,26.6235813 32.010049,24.1499534 32,21.509 L32,7.705 L45,2.089 L58,7.705 L58,21.505 C57.9902734,24.1463069 56.7057535,26.6203764 54.551,28.148 L45,34.951 Z M40,57 C40,57.5522847 39.5522847,58 39,58 L21,58 C20.4477153,58 20,57.5522847 20,57 C20,56.4477153 20.4477153,56 21,56 L39,56 C39.5522847,56 40,56.4477153 40,57 Z M36.661,54 L23.339,54 L24.524,50 L35.476,50 L36.661,54 Z M55,48 L5,48 C3.34314575,48 2,46.6568542 2,45 L2,42 L58,42 L58,45 C58,46.6568542 56.6568542,48 55,48 Z M58,40 L2,40 L2,5 C2,3.34314575 3.34314575,2 5,2 L40.163,2 L30.6,6.129 C30.2350788,6.28826415 29.999409,6.64883898 30,7.047 L30,21.509 C30.0101362,24.7971195 31.6075366,27.8779533 34.289,29.781 L43.965,36.67 C44.5848485,37.1100206 45.4151515,37.1100206 46.035,36.67 L55.71,29.782 C56.5888956,29.1503948 57.3618636,28.3831651 58,27.509 L58,40 Z" id="Shape"/><circle id="Oval" cx="30" cy="45" r="1"/><path d="M6,12 C6.26519481,11.9999434 6.51950727,11.8945494 6.707,11.707 L11.707,6.707 C11.9669566,6.45592553 12.0712126,6.08412211 11.9796972,5.73449268 C11.8881817,5.38486324 11.6151368,5.11181828 11.2655073,5.02030284 C10.9158779,4.9287874 10.5440745,5.03304342 10.293,5.293 L5.293,10.293 C5.00709208,10.5789943 4.92157809,11.0090366 5.07632202,11.3826546 C5.23106595,11.7562725 5.5956041,11.9999137 6,12 Z" id="Shape"/><path d="M6,19 C6.26519481,18.9999434 6.51950727,18.8945494 6.707,18.707 L18.707,6.707 C18.9669566,6.45592553 19.0712126,6.08412211 18.9796972,5.73449268 C18.8881817,5.38486324 18.6151368,5.11181828 18.2655073,5.02030284 C17.9158779,4.9287874 17.5440745,5.03304342 17.293,5.293 L5.293,17.293 C5.00709208,17.5789943 4.92157809,18.0090366 5.07632202,18.3826546 C5.23106595,18.7562725 5.5956041,18.9999137 6,19 Z" id="Shape"/><path d="M24.293,5.293 L5.293,24.293 C5.03304342,24.5440745 4.9287874,24.9158779 5.02030284,25.2655073 C5.11181828,25.6151368 5.38486324,25.8881817 5.73449268,25.9796972 C6.08412211,26.0712126 6.45592553,25.9669566 6.707,25.707 L25.707,6.707 C25.9669566,6.45592553 26.0712126,6.08412211 25.9796972,5.73449268 C25.8881817,5.38486324 25.6151368,5.11181828 25.2655073,5.02030284 C24.9158779,4.9287874 24.5440745,5.03304342 24.293,5.293 Z" id="Shape"/><path d="M56,9.677 C56.000591,9.27883898 55.7649212,8.91826415 55.4,8.759 L45.4,4.439 C45.1472508,4.33000068 44.8607492,4.33000068 44.608,4.439 L34.608,8.759 C34.2430788,8.91826415 34.007409,9.27883898 34.008,9.677 L34.008,21.509 C34.0174083,23.5029585 34.9886207,25.3697867 36.616,26.522 L44.428,32.083 C44.7751643,32.330178 45.2408357,32.330178 45.588,32.083 L53.4,26.523 C55.0242501,25.3685034 55.9922595,23.5017345 56,21.509 L56,9.677 Z M54,21.509 C53.9910962,22.8566812 53.3323369,24.117224 52.231,24.894 L45,30.042 L37.769,24.894 C36.6675346,24.1173365 36.0087381,22.8567225 36,21.509 L36,10.334 L45,6.446 L54,10.334 L54,21.509 Z" id="Shape"/><path d="M39.6,19.2 C39.3141875,18.9856406 38.9357266,18.9400436 38.6071797,19.0803848 C38.2786328,19.2207259 38.0499141,19.5256842 38.0071797,19.8803848 C37.9644453,20.2350853 38.1141875,20.5856406 38.4,20.8 L42.4,23.8 C42.8320438,24.1242308 43.4434866,24.0467489 43.781,23.625 L51.781,13.625 C52.1217114,13.1934254 52.0500699,12.5677379 51.6206245,12.2243466 C51.1911792,11.8809554 50.5650579,11.9487006 50.219,12.376 L42.825,21.619 L39.6,19.2 Z" id="Shape"/></g></g></svg>
