<?xml version="1.0" encoding="UTF-8"?>
<svg xmlns="http://www.w3.org/2000/svg" xmlns:xlink="http://www.w3.org/1999/xlink" width="512" height="512" viewBox="0 0 60 60" version="1.1"><!-- Generator: Sketch 51.3 (57544) - http://www.bohemiancoding.com/sketch --><title>037 - Possessions Cover</title><desc>Created with Sketch.</desc><defs/><g id="Page-1" stroke="none" stroke-width="1" fill="none" fill-rule="evenodd"><g id="037---Possessions-Cover" fill="#000000" fill-rule="nonzero"><path d="M59.4,6.129 L45.4,0.082 C45.1474495,-0.0279576698 44.8605505,-0.0279576698 44.608,0.082 L30.608,6.129 C30.2430788,6.28826415 30.007409,6.64883898 30.008,7.047 L30.008,12 L10,12 C9.96445243,12.002359 9.92906413,12.0066991 9.894,12.013 C9.869,12.013 9.845,12.013 9.82,12.022 C9.70657624,12.042142 9.59758119,12.0820843 9.498,12.14 C9.491,12.14 9.483,12.14 9.476,12.148 C9.469,12.156 9.458,12.168 9.447,12.176 C9.35088479,12.2379374 9.26656835,12.3164973 9.198,12.408 L9.183,12.424 L9.183,12.431 L0.183,25.431 C0.162074078,25.4676938 0.143697359,25.5057837 0.128,25.545 C0.107805483,25.5812349 0.0897739372,25.6186337 0.074,25.657 C0.0386626848,25.7532704 0.0187507474,25.8545176 0.015,25.957 C0.015,25.973 0.005,25.987 0.005,26.004 L0.005,26.014 C0.00727449754,26.1335834 0.0309833467,26.2517889 0.075,26.363 C0.09,26.4 0.112,26.43 0.13,26.463 C0.149703453,26.5104322 0.173109037,26.5562403 0.2,26.6 L25.2,59.6 C25.214,59.618 25.236,59.625 25.251,59.642 C25.3221024,59.724172 25.4062228,59.7941034 25.5,59.849 C25.5322228,59.8686869 25.5656183,59.8863865 25.6,59.902 C25.85179,60.0279702 26.14821,60.0279702 26.4,59.902 C26.4343817,59.8863865 26.4677772,59.8686869 26.5,59.849 C26.5937772,59.7941034 26.6778976,59.724172 26.749,59.642 C26.764,59.625 26.786,59.618 26.8,59.6 L44.12,36.741 C44.7155491,37.1071137 45.4732868,37.0770886 46.038,36.665 L55.714,29.777 C58.3929237,27.8738957 59.9889333,24.7950791 60,21.509 L60,7.047 C60.000591,6.64883898 59.7649212,6.28826415 59.4,6.129 Z M9.955,14.829 L16.211,25 L2.908,25 L9.955,14.829 Z M32.463,28.111 L26,54.756 L19.271,27 L31.641,27 C31.889514,27.388528 32.1641468,27.7597167 32.463,28.111 Z M11.789,14 L24.211,14 L18,24.092 L11.789,14 Z M17.214,27 L23.9,54.568 L3.012,27 L17.214,27 Z M34.144,29.664 C34.194,29.701 34.238,29.745 34.289,29.781 L42.471,35.606 L28.1,54.568 L34.144,29.664 Z M19.789,25 L26,14.909 L30,21.409 L30,21.509 C30.0015769,22.7008848 30.215241,23.8829788 30.631,25 L19.789,25 Z M30,17.6 L27.789,14 L30,14 L30,17.6 Z M58,21.514 C57.9902734,24.1553069 56.7057535,26.6293764 54.551,28.157 L45,34.951 L35.449,28.151 C33.294533,26.6235813 32.010049,24.1499534 32,21.509 L32,7.705 L45,2.089 L58,7.705 L58,21.514 Z" id="Shape"/><path d="M44.6,4.439 L34.6,8.759 C34.2350788,8.91826415 33.999409,9.27883898 34,9.677 L34,21.509 C34.0097397,23.5028766 34.980878,25.3695623 36.608,26.522 L44.42,32.083 C44.7671643,32.330178 45.2328357,32.330178 45.58,32.083 L53.392,26.523 C55.0192795,25.3702451 55.9904167,23.5031892 56,21.509 L56,9.677 C56.000591,9.27883898 55.7649212,8.91826415 55.4,8.759 L45.4,4.439 C45.1449495,4.32768685 44.8550505,4.32768685 44.6,4.439 Z M54,10.339 L54,21.509 C53.9910962,22.8566812 53.3323369,24.117224 52.231,24.894 L45,30.042 L37.769,24.894 C36.6675346,24.1173365 36.0087381,22.8567225 36,21.509 L36,10.334 L45,6.446 L54,10.339 Z" id="Shape"/><path d="M39.6,19.2 C39.3141875,18.9856406 38.9357266,18.9400436 38.6071797,19.0803848 C38.2786328,19.2207259 38.0499141,19.5256842 38.0071797,19.8803848 C37.9644453,20.2350853 38.1141875,20.5856406 38.4,20.8 L42.4,23.8 C42.8320438,24.1242308 43.4434866,24.0467489 43.781,23.625 L51.781,13.625 C52.1217114,13.1934254 52.0500699,12.5677379 51.6206245,12.2243466 C51.1911792,11.8809554 50.5650579,11.9487006 50.219,12.376 L42.819,21.619 L39.6,19.2 Z" id="Shape"/></g></g></svg>
