<?xml version="1.0" encoding="UTF-8"?>
<svg xmlns="http://www.w3.org/2000/svg" xmlns:xlink="http://www.w3.org/1999/xlink" width="512" height="512" viewBox="0 0 61 60" version="1.1"><!-- Generator: Sketch 51.3 (57544) - http://www.bohemiancoding.com/sketch --><title>038 - Life Insurance</title><desc>Created with Sketch.</desc><defs/><g id="Page-1" stroke="none" stroke-width="1" fill="none" fill-rule="evenodd"><g id="038---Life-Insurance" fill="#000000" fill-rule="nonzero"><path d="M37.608,26.522 L45.42,32.083 C45.7671643,32.330178 46.2328357,32.330178 46.58,32.083 L54.392,26.523 C56.0192795,25.3702451 56.9904167,23.5031892 57,21.509 L57,9.677 C57.000591,9.27883898 56.7649212,8.91826415 56.4,8.759 L46.4,4.439 C46.1472508,4.33000068 45.8607492,4.33000068 45.608,4.439 L35.608,8.759 C35.2430788,8.91826415 35.007409,9.27883898 35.008,9.677 L35.008,21.509 C35.0158969,23.5014219 35.9839074,25.3678205 37.608,26.522 Z M37,10.334 L46,6.446 L55,10.334 L55,21.509 C54.9910962,22.8566812 54.3323369,24.117224 53.231,24.894 L46,30.042 L38.769,24.894 C37.6675346,24.1173365 37.0087381,22.8567225 37,21.509 L37,10.334 Z" id="Shape"/><path d="M43.4,23.8 C43.8320438,24.1242308 44.4434866,24.0467489 44.781,23.625 L52.781,13.625 C53.1217114,13.1934254 53.0500699,12.5677379 52.6206245,12.2243466 C52.1911792,11.8809554 51.5650579,11.9487006 51.219,12.376 L43.819,21.619 L40.6,19.2 C40.3141875,18.9856406 39.9357266,18.9400436 39.6071797,19.0803848 C39.2786328,19.2207259 39.0499141,19.5256842 39.0071797,19.8803848 C38.9644453,20.2350853 39.1141875,20.5856406 39.4,20.8 L43.4,23.8 Z" id="Shape"/><path d="M57.661,50.267 C57.397,50.143 57.147,50.026 56.93,49.91 C55.509,49.15 54.089,48.39 52.688,47.596 C51.0265459,46.5764384 49.2049813,45.8444994 47.3,45.431 C45.3728371,44.916379 43.5871996,43.9721074 42.077,42.669 L42.077,39.716 C43.0833836,38.7427052 43.8901313,37.5823472 44.452,36.3 L44.965,36.665 C45.5844619,37.1062315 46.4155381,37.1062315 47.035,36.665 L56.711,29.777 C59.3910596,27.8745489 60.9882423,24.7956246 61,21.509 L61,7.047 C61.000591,6.64883898 60.7649212,6.28826415 60.4,6.129 L46.4,0.082 C46.1474495,-0.0279576698 45.8605505,-0.0279576698 45.608,0.082 L40.126,2.448 C37.6366055,1.0380662 34.8638232,0.201721797 32.01,-3.72960126e-15 L29.946,-3.72960126e-15 C27.6139763,0.171312076 25.331546,0.759277493 23.207,1.736 C18.8686329,3.54851748 16.0024708,7.74355073 15.891,12.444 C15.791,14.68 15.771,16.516 15.807,18.056 C15.2857976,17.8698197 14.7105323,17.9096932 14.22,18.166 C13.1,18.731 12.734,20.908 13.14,24.666 C13.5341873,27.0360178 14.8636811,29.1484356 16.83,30.529 C16.7,33.442 16.688,36.454 19.924,39.712 L19.924,42.667 C18.4137417,43.9710157 16.6277202,44.9159933 14.7,45.431 C12.7947911,45.845815 10.9732252,46.5791068 9.312,47.6 C7.912,48.394 6.491,49.154 5.07,49.914 C4.853,50.03 4.603,50.147 4.339,50.271 C3.16633197,50.6874342 2.14001937,51.4358016 1.385,52.425 C1.03954562,53.0944429 0.901995875,53.8518371 0.99,54.6 C0.995,54.739 1.001,54.879 1,55.018 C1,55.418 1,55.824 1,56.227 L1,59 C1,59.5522847 1.44771525,60 2,60 L60,60 C60.5522847,60 61,59.5522847 61,59 L61,56.228 C61,55.828 61,55.421 61,55.02 C61,54.88 61.005,54.74 61.01,54.601 C61.0982074,53.8525079 60.9606522,53.0947354 60.615,52.425 C59.8605372,51.4343242 58.8341686,50.6845261 57.661,50.267 Z M46,2.089 L59,7.705 L59,21.505 C58.9902734,24.1463069 57.7057535,26.6203764 55.551,28.148 L46,34.951 L36.449,28.151 C34.294533,26.6235813 33.010049,24.1499534 33,21.509 L33,7.705 L46,2.089 Z M15.124,24.423 C14.9098434,22.9411193 14.9365205,21.434371 15.203,19.961 C15.4907535,20.1208639 15.7386078,20.3437619 15.928,20.613 C16.0413066,22.0933931 16.238961,23.5661183 16.52,25.024 C16.7213854,26.0019752 16.8444423,26.9944558 16.888,27.992 C15.9917738,26.9812478 15.3826642,25.7488711 15.124,24.423 Z M18.842,30.314 C18.871,29.675 18.9,29.026 18.9,28.36 C18.8828459,27.1185462 18.7448617,25.8817115 18.488,24.667 C18.077,22.4 17.566,19.58 17.888,12.537 C18.35,2.652 29.559,2.021 29.99,2 L31.965,2 C33.9667585,2.16326723 35.9271248,2.66011869 37.765,3.47 L31.6,6.129 C31.2350788,6.28826415 30.999409,6.64883898 31,7.047 L31,21.509 C31.0104682,24.797038 32.6077945,27.8777289 35.289,29.781 L42.75,35.093 C42.259251,36.4283545 41.4498,37.6236507 40.392,38.575 L40.377,38.589 L40.363,38.603 C39.0494617,39.9005441 37.899283,41.3536312 36.938,42.93 C35.572,45.03 34.889,45.96 33.02,45.96 L28.98,45.96 C27.111,45.96 26.428,45.031 25.062,42.93 C24.1009185,41.3525797 22.9507325,39.8984759 21.637,38.6 L21.623,38.586 L21.608,38.572 C18.594,35.71 18.7,33.329 18.842,30.314 Z M3,56.223 C3,55.823 3,55.429 3,55.03 C3,54.863 3,54.694 2.988,54.53 C2.93011657,54.1630428 2.97190711,53.7872733 3.109,53.442 C3.68311181,52.8280408 4.39652408,52.3612359 5.189,52.081 C5.489,51.942 5.769,51.809 6.014,51.681 C7.448,50.914 8.884,50.146 10.3,49.343 C11.7668837,48.4358932 13.3745149,47.7792551 15.057,47.4 C15.6133892,47.2941431 16.1587348,47.1367996 16.686,46.93 C16.454,49.63 16.496,54.724 19.486,58.001 L3,58.001 L3,56.223 Z M39,58 L22.681,58 C17.752,55.314 18.569,47.624 18.824,45.879 C19.224,45.643 19.594,45.403 19.924,45.179 L19.924,46.967 C19.924,47.5192847 20.3717153,47.967 20.924,47.967 C21.4762847,47.967 21.924,47.5192847 21.924,46.967 L21.924,41.92 C22.485,42.65 22.955,43.36 23.385,44.02 C24.76,46.133 25.947,47.959 28.98,47.959 L33.02,47.959 C36.053,47.959 37.24,46.133 38.615,44.02 C39.045,43.359 39.515,42.649 40.076,41.92 L40.076,46.962 C40.076,47.5142847 40.5237153,47.962 41.076,47.962 C41.6282847,47.962 42.076,47.5142847 42.076,46.962 L42.076,45.174 C42.406,45.403 42.776,45.643 43.176,45.88 C43.434,47.623 44.261,55.307 39.319,58 L39,58 Z M59.012,54.526 C59.005,54.694 58.999,54.863 59,55.026 C59,55.426 59,55.826 59,56.218 L59,58 L42.514,58 C45.504,54.723 45.546,49.625 45.314,46.929 C45.8409681,47.1356639 46.3859691,47.2930045 46.942,47.399 C48.624332,47.7761883 50.2322519,48.4304407 51.7,49.335 C53.115,50.135 54.551,50.906 55.985,51.673 C56.23,51.805 56.513,51.938 56.81,52.073 C57.6022009,52.3533011 58.3155255,52.8197056 58.89,53.433 C59.0280906,53.7797646 59.0702333,54.1573218 59.012,54.526 Z" id="Shape"/></g></g></svg>
