<?xml version="1.0" encoding="UTF-8"?>
<svg xmlns="http://www.w3.org/2000/svg" xmlns:xlink="http://www.w3.org/1999/xlink" width="512" height="512" viewBox="0 0 60 60" version="1.1"><!-- Generator: Sketch 51.3 (57544) - http://www.bohemiancoding.com/sketch --><title>040 - Travel Insurance</title><desc>Created with Sketch.</desc><defs/><g id="Page-1" stroke="none" stroke-width="1" fill="none" fill-rule="evenodd"><g id="040---Travel-Insurance" fill="#000000" fill-rule="nonzero"><path d="M55.4,31.759 L45.4,27.439 C45.1472508,27.3300007 44.8607492,27.3300007 44.608,27.439 L34.608,31.759 C34.2430788,31.9182641 34.007409,32.278839 34.008,32.677 L34.008,44.509 C34.0177397,46.5028766 34.988878,48.3695623 36.616,49.522 L44.428,55.083 C44.7751643,55.330178 45.2408357,55.330178 45.588,55.083 L53.4,49.523 C55.0242501,48.3685034 55.9922595,46.5017345 56,44.509 L56,32.677 C56.000591,32.278839 55.7649212,31.9182641 55.4,31.759 Z M54,44.509 C53.9910962,45.8566812 53.3323369,47.117224 52.231,47.894 L45,53.042 L37.769,47.894 C36.6675346,47.1173365 36.0087381,45.8567225 36,44.509 L36,33.334 L45,29.446 L54,33.334 L54,44.509 Z" id="Shape"/><path d="M39.6,42.2 C39.3141875,41.9856406 38.9357266,41.9400436 38.6071797,42.0803848 C38.2786328,42.2207259 38.0499141,42.5256842 38.0071797,42.8803848 C37.9644453,43.2350853 38.1141875,43.5856406 38.4,43.8 L42.4,46.8 C42.8320438,47.1242308 43.4434866,47.0467489 43.781,46.625 L51.781,36.625 C52.1217114,36.1934254 52.0500699,35.5677379 51.6206245,35.2243466 C51.1911792,34.8809554 50.5650579,34.9487006 50.219,35.376 L42.819,44.619 L39.6,42.2 Z" id="Shape"/><path d="M55,10 L54,10 C54,8.8954305 53.1045695,8 52,8 L50,8 C48.8954305,8 48,8.8954305 48,10 L43,10 L43,8 C42.9950401,3.58377808 39.4162219,0.00495988455 35,0 L25,0 C20.5837781,0.00495988455 17.0049599,3.58377808 17,8 L17,10 L12,10 C12,8.8954305 11.1045695,8 10,8 L8,8 C6.8954305,8 6,8.8954305 6,10 L5,10 C2.23994685,10.0033061 0.00330611633,12.2399468 0,15 L0,49 C0.00330611633,51.7600532 2.23994685,53.9966939 5,54 L6,54 C6,55.1045695 6.8954305,56 8,56 L10,56 C11.1045695,56 12,55.1045695 12,54 L36,54 L43.964,59.669 C44.5834619,60.1102315 45.4145381,60.1102315 46.034,59.669 L55.71,52.781 C58.3915555,50.8783762 59.989311,47.7979482 60,44.51 L60,15 C59.9966939,12.2399468 57.7600532,10.0033061 55,10 Z M55,12 C56.6568542,12 58,13.3431458 58,15 L58,28.526 L54,26.8 L54,12 L55,12 Z M50,10 L52,10 L52,25.934 L50,25.07 L50,10 Z M19,8 C19.0033074,4.68766243 21.6876624,2.00330738 25,2 L35,2 C38.3123376,2.00330738 40.9966926,4.68766243 41,8 L41,10 L38,10 L38,9 C38,6.790861 36.209139,5 34,5 L26,5 C23.790861,5 22,6.790861 22,9 L22,10 L19,10 L19,8 Z M24,10 L24,9 C24,7.8954305 24.8954305,7 26,7 L34,7 C35.1045695,7 36,7.8954305 36,9 L36,10 L24,10 Z M5,52 C3.34314575,52 2,50.6568542 2,49 L2,15 C2,13.3431458 3.34314575,12 5,12 L6,12 L6,52 L5,52 Z M8,54 L8,10 L10,10 L10,11 L10,54 L8,54 Z M12,12 L48,12 L48,24.206 L45.445,23.106 C46.6961451,20.2641114 45.7625339,16.9341602 43.216335,15.1569247 C40.6701361,13.3796892 37.2224843,13.6515384 34.9862914,15.805868 C32.7500984,17.9601977 32.3499169,21.3953191 34.031,24.006 L28.308,24.006 L25.373,15.674 C25.2848991,15.4237065 25.1009331,15.2186897 24.8616092,15.1040919 C24.6222853,14.989494 24.3472275,14.9747117 24.097,15.063 L14.667,18.393 C14.4168895,18.4813017 14.2121056,18.6653511 14.097706,18.9046525 C13.9833063,19.143954 13.9686638,19.4189017 14.057,19.669 L18.047,30.979 C18.1878342,31.3791386 18.5658006,31.6468815 18.99,31.647 C19.1028533,31.6469088 19.2148394,31.6272859 19.321,31.589 L23,30.291 L23,37 C23,37.5522847 23.4477153,38 24,38 L30,38 L30,44.509 C30.0080903,47.3615268 31.2137923,50.0795267 33.323,52 L12,52 L12,12 Z M30.6,29.129 C30.2350788,29.2882641 29.999409,29.648839 30,30.047 L30,36 L25,36 L25,26 L35,26 L35,27.23 L30.6,29.129 Z M24,24 C23.4477153,24 23,24.4477153 23,25 L23,28.172 L19.6,29.366 L16.275,19.94 L23.819,17.276 L26.187,24 L24,24 Z M42.118,24.155 L40.349,24.919 C38.0851128,25.3607051 35.8521957,24.0253818 35.170144,21.821954 C34.4880923,19.6185262 35.5761341,17.2552293 37.6936644,16.3407052 C39.8111946,15.4261811 42.2775874,16.2543802 43.4140259,18.2615663 C44.5504644,20.2687525 43.9916695,22.8097671 42.118,24.155 Z M54.551,51.155 L45,57.951 L35.449,51.151 C33.294533,49.6235813 32.010049,47.1499534 32,44.509 L32,30.709 L36.376,28.818 L36.4,28.8 L45,25.089 L48.6,26.644 L48.624,26.654 L52.592,28.368 L52.633,28.386 L58,30.705 L58,44.505 C57.9915637,47.1477204 56.7068998,49.623557 54.551,51.152 L54.551,51.155 Z" id="Shape"/><path d="M20,39 C17.2385763,39 15,41.2385763 15,44 C15,46.7614237 17.2385763,49 20,49 C22.7614237,49 25,46.7614237 25,44 C24.9966939,41.2399468 22.7600532,39.0033061 20,39 Z M20,47 C18.3431458,47 17,45.6568542 17,44 C17,42.3431458 18.3431458,41 20,41 C21.6568542,41 23,42.3431458 23,44 C23,45.6568542 21.6568542,47 20,47 Z" id="Shape"/></g></g></svg>
