<?xml version="1.0" encoding="UTF-8"?>
<svg xmlns="http://www.w3.org/2000/svg" xmlns:xlink="http://www.w3.org/1999/xlink" width="512" height="512" viewBox="0 0 60 60" version="1.1"><!-- Generator: Sketch 51.3 (57544) - http://www.bohemiancoding.com/sketch --><title>041 - Home Insurance Documents</title><desc>Created with Sketch.</desc><defs/><g id="Page-1" stroke="none" stroke-width="1" fill="none" fill-rule="evenodd"><g id="041---Home-Insurance-Documents" fill="#000000" fill-rule="nonzero"><path d="M59.4,36.49 L49.4,32.17 C49.1472508,32.0610007 48.8607492,32.0610007 48.608,32.17 L46,33.3 L46,14 C46,13.978 45.989,13.96 45.988,13.938 C45.9820915,13.8479535 45.963924,13.7591342 45.934,13.674 C45.9246551,13.6421099 45.9136399,13.6107333 45.901,13.58 C45.853902,13.4751855 45.7893137,13.3791484 45.71,13.296 L32.71,0.296 C32.6250094,0.213930094 32.5261476,0.147570784 32.418,0.1 C32.39,0.085 32.36,0.077 32.33,0.066 C32.2416027,0.0352554056 32.1494144,0.0167504517 32.056,0.011 C32.037,0.01 32.02,0 32,0 L3,0 C1.34314575,-1.01453063e-16 2.02906125e-16,1.34314575 0,3 L0,57 C2.02906125e-16,58.6568542 1.34314575,60 3,60 L43,60 C44.2794032,59.996049 45.41492,59.1795698 45.826,57.968 L48.42,59.814 C48.7671643,60.061178 49.2328357,60.061178 49.58,59.814 L57.392,54.254 C59.0192795,53.1012451 59.9904167,51.2341892 60,49.24 L60,37.408 C60.000591,37.009839 59.7649212,36.6492641 59.4,36.49 Z M33,3.414 L42.586,13 L33,13 L33,3.414 Z M44,57 C44,57.5522847 43.5522847,58 43,58 L3,58 C2.44771525,58 2,57.5522847 2,57 L2,3 C2,2.44771525 2.44771525,2 3,2 L31,2 L31,13 C31,14.1045695 31.8954305,15 33,15 L44,15 L44,34.159 L38.6,36.49 C38.2350788,36.6492641 37.999409,37.009839 38,37.408 L38,49.24 C38.0095833,51.2341892 38.9807205,53.1012451 40.608,54.254 L44,56.668 L44,57 Z M58,49.24 C57.9910962,50.5876812 57.3323369,51.848224 56.231,52.625 L49,57.772 L41.769,52.625 C40.6677915,51.8481115 40.0090695,50.58764 40,49.24 L40,38.065 L45.368,35.746 L45.409,35.728 L49,34.177 L58,38.065 L58,49.24 Z" id="Shape"/><path d="M43.6,46.931 C43.1581722,46.5996292 42.5313708,46.6891722 42.2,47.131 C41.8686292,47.5728278 41.9581722,48.1996292 42.4,48.531 L46.4,51.531 C46.8320438,51.8552308 47.4434866,51.7777489 47.781,51.356 L55.781,41.356 C56.004291,41.0769756 56.0617626,40.700022 55.9317659,40.3671342 C55.8017691,40.0342463 55.5040536,39.7959976 55.1507659,39.7421342 C54.7974781,39.6882707 54.442291,39.8269756 54.219,40.106 L46.825,49.35 L43.6,46.931 Z" id="Shape"/><path d="M22.4,12.2 L6.4,24.2 C6.14819416,24.3888544 6,24.6852427 6,25 L6,30 C6,30.3787721 6.21400238,30.7250352 6.5527864,30.8944272 C6.89157043,31.0638192 7.29698235,31.0272632 7.6,30.8 L10,29 L10,44 C10,45.1045695 10.8954305,46 12,46 L34,46 C35.1045695,46 36,45.1045695 36,44 L36,29 L38.4,30.8 C38.5730962,30.9298221 38.7836298,31 39,31 C39.5522847,31 40,30.5522847 40,30 L40,25 C40,24.6852427 39.8518058,24.3888544 39.6,24.2 L23.6,12.2 C23.2444444,11.9333333 22.7555556,11.9333333 22.4,12.2 Z M19,44 L19,32 L27,32 L27,37 L26,37 C25.4477153,37 25,37.4477153 25,38 C25,38.5522847 25.4477153,39 26,39 L27,39 L27,44 L19,44 Z M34,44 L29,44 L29,32 C29,30.8954305 28.1045695,30 27,30 L19,30 C17.8954305,30 17,30.8954305 17,32 L17,44 L12,44 L12,27.5 L23,19.25 L34,27.5 L34,44 Z M38,28 L23.6,17.2 C23.2444444,16.9333333 22.7555556,16.9333333 22.4,17.2 L8,28 L8,25.5 L23,14.25 L38,25.5 L38,28 Z" id="Shape"/><path d="M6,7 L24,7 C24.5522847,7 25,6.55228475 25,6 C25,5.44771525 24.5522847,5 24,5 L6,5 C5.44771525,5 5,5.44771525 5,6 C5,6.55228475 5.44771525,7 6,7 Z" id="Shape"/><path d="M6,11 L19,11 C19.5522847,11 20,10.5522847 20,10 C20,9.44771525 19.5522847,9 19,9 L6,9 C5.44771525,9 5,9.44771525 5,10 C5,10.5522847 5.44771525,11 6,11 Z" id="Shape"/><path d="M6,15 L13,15 C13.5522847,15 14,14.5522847 14,14 C14,13.4477153 13.5522847,13 13,13 L6,13 C5.44771525,13 5,13.4477153 5,14 C5,14.5522847 5.44771525,15 6,15 Z" id="Shape"/><path d="M6,50 L24,50 C24.5522847,50 25,49.5522847 25,49 C25,48.4477153 24.5522847,48 24,48 L6,48 C5.44771525,48 5,48.4477153 5,49 C5,49.5522847 5.44771525,50 6,50 Z" id="Shape"/><path d="M28,48 C27.4477153,48 27,48.4477153 27,49 C27,49.5522847 27.4477153,50 28,50 L35,50 C35.5522847,50 36,49.5522847 36,49 C36,48.4477153 35.5522847,48 35,48 L28,48 Z" id="Shape"/><path d="M16,52 L6,52 C5.44771525,52 5,52.4477153 5,53 C5,53.5522847 5.44771525,54 6,54 L16,54 C16.5522847,54 17,53.5522847 17,53 C17,52.4477153 16.5522847,52 16,52 Z" id="Shape"/><path d="M36,52 L20,52 C19.4477153,52 19,52.4477153 19,53 C19,53.5522847 19.4477153,54 20,54 L36,54 C36.5522847,54 37,53.5522847 37,53 C37,52.4477153 36.5522847,52 36,52 Z" id="Shape"/></g></g></svg>
