<?xml version="1.0" encoding="UTF-8"?>
<svg xmlns="http://www.w3.org/2000/svg" xmlns:xlink="http://www.w3.org/1999/xlink" width="512" height="512" viewBox="0 0 60 60" version="1.1"><!-- Generator: Sketch 51.3 (57544) - http://www.bohemiancoding.com/sketch --><title>042 - Car Insurance Documents</title><desc>Created with Sketch.</desc><defs/><g id="Page-1" stroke="none" stroke-width="1" fill="none" fill-rule="evenodd"><g id="042---Car-Insurance-Documents" fill="#000000" fill-rule="nonzero"><path d="M59.4,36.49 L49.4,32.17 C49.1472508,32.0610007 48.8607492,32.0610007 48.608,32.17 L46,33.3 L46,14 C46,13.978 45.989,13.96 45.988,13.938 C45.9820915,13.8479535 45.963924,13.7591342 45.934,13.674 C45.9246551,13.6421099 45.9136399,13.6107333 45.901,13.58 C45.853902,13.4751855 45.7893137,13.3791484 45.71,13.296 L32.71,0.296 C32.6250094,0.213930094 32.5261476,0.147570784 32.418,0.1 C32.39,0.085 32.36,0.077 32.329,0.066 C32.2409728,0.0351612254 32.1491014,0.0166523416 32.056,0.011 C32.037,0.01 32.02,0 32,0 L3,0 C1.34314575,-1.01453063e-16 2.02906125e-16,1.34314575 0,3 L0,57 C2.02906125e-16,58.6568542 1.34314575,60 3,60 L43,60 C44.2794032,59.996049 45.41492,59.1795698 45.826,57.968 L48.42,59.814 C48.7671643,60.061178 49.2328357,60.061178 49.58,59.814 L57.392,54.254 C59.0192795,53.1012451 59.9904167,51.2341892 60,49.24 L60,37.408 C60.000591,37.009839 59.7649212,36.6492641 59.4,36.49 Z M33,3.414 L42.586,13 L33,13 L33,3.414 Z M44,57 C44,57.5522847 43.5522847,58 43,58 L3,58 C2.44771525,58 2,57.5522847 2,57 L2,3 C2,2.44771525 2.44771525,2 3,2 L31,2 L31,13 C31,14.1045695 31.8954305,15 33,15 L44,15 L44,34.159 L38.6,36.49 C38.2350788,36.6492641 37.999409,37.009839 38,37.408 L38,49.24 C38.0095833,51.2341892 38.9807205,53.1012451 40.608,54.254 L44,56.668 L44,57 Z M58,49.24 C57.9910962,50.5876812 57.3323369,51.848224 56.231,52.625 L49,57.772 L41.769,52.625 C40.6677915,51.8481115 40.0090695,50.58764 40,49.24 L40,38.065 L45.368,35.746 L45.409,35.728 L49,34.177 L58,38.065 L58,49.24 Z" id="Shape"/><path d="M43.6,46.931 C43.1581722,46.5996292 42.5313708,46.6891722 42.2,47.131 C41.8686292,47.5728278 41.9581722,48.1996292 42.4,48.531 L46.4,51.531 C46.8320438,51.8552308 47.4434866,51.7777489 47.781,51.356 L55.781,41.356 C56.004291,41.0769756 56.0617626,40.700022 55.9317659,40.3671342 C55.8017691,40.0342463 55.5040536,39.7959976 55.1507659,39.7421342 C54.7974781,39.6882707 54.442291,39.8269756 54.219,40.106 L46.825,49.35 L43.6,46.931 Z" id="Shape"/><path d="M38,31 C37.9936844,28.5407585 36.1975949,26.4523219 33.767,26.078 L31.386,18.139 C31.0107941,16.8658468 29.8392761,15.9939341 28.512,16 L17.488,16 C16.1607239,15.9939341 14.9892059,16.8658468 14.614,18.139 L12.233,26.078 C9.80240508,26.4523219 8.00631563,28.5407585 8,31 L8,35 C8,35.7956495 8.31607052,36.5587112 8.87867966,37.1213203 C9.44128879,37.6839295 10.2043505,38 11,38 L11,39 C11,40.6568542 12.3431458,42 14,42 L16,42 C17.6568542,42 19,40.6568542 19,39 L19,38 L27,38 L27,39 C27,40.6568542 28.3431458,42 30,42 L32,42 C33.6568542,42 35,40.6568542 35,39 L35,38 C36.6568542,38 38,36.6568542 38,35 L38,31 Z M16.53,18.713 C16.6550686,18.2886156 17.0455746,17.997978 17.488,18 L22,18 L22,19 C22,19.5522847 22.4477153,20 23,20 C23.5522847,20 24,19.5522847 24,19 L24,18 L28.512,18 C28.9544254,17.997978 29.3449314,18.2886156 29.47,18.713 L31.656,26 L14.344,26 L16.53,18.713 Z M17,39 C17,39.5522847 16.5522847,40 16,40 L14,40 C13.4477153,40 13,39.5522847 13,39 L13,38 L17,38 L17,39 Z M20,36 L20,34 L26,34 L26,36 L20,36 Z M33,39 C33,39.5522847 32.5522847,40 32,40 L30,40 C29.4477153,40 29,39.5522847 29,39 L29,38 L33,38 L33,39 Z M35,36 L28,36 L28,34 C28,32.8954305 27.1045695,32 26,32 L20,32 C18.8954305,32 18,32.8954305 18,34 L18,36 L11,36 C10.4477153,36 10,35.5522847 10,35 L10,33 L16,33 C16.5522847,33 17,32.5522847 17,32 L17,31 C17,30.4477153 16.5522847,30 16,30 C15.4477153,30 15,30.4477153 15,31 L10,31 C10,29.3431458 11.3431458,28 13,28 L33,28 C34.6568542,28 36,29.3431458 36,31 L31,31 C31,30.4477153 30.5522847,30 30,30 C29.4477153,30 29,30.4477153 29,31 L29,32 C29,32.2652165 29.1053568,32.5195704 29.2928932,32.7071068 C29.4804296,32.8946432 29.7347835,33 30,33 L36,33 L36,35 C36,35.5522847 35.5522847,36 35,36 Z" id="Shape"/><path d="M6,7 L17,7 C17.5522847,7 18,6.55228475 18,6 C18,5.44771525 17.5522847,5 17,5 L6,5 C5.44771525,5 5,5.44771525 5,6 C5,6.55228475 5.44771525,7 6,7 Z" id="Shape"/><path d="M22,7 L27,7 C27.5522847,7 28,6.55228475 28,6 C28,5.44771525 27.5522847,5 27,5 L22,5 C21.4477153,5 21,5.44771525 21,6 C21,6.55228475 21.4477153,7 22,7 Z" id="Shape"/><path d="M6,13 L27,13 C27.5522847,13 28,12.5522847 28,12 C28,11.4477153 27.5522847,11 27,11 L6,11 C5.44771525,11 5,11.4477153 5,12 C5,12.5522847 5.44771525,13 6,13 Z" id="Shape"/><path d="M6,17 L11,17 C11.5522847,17 12,16.5522847 12,16 C12,15.4477153 11.5522847,15 11,15 L6,15 C5.44771525,15 5,15.4477153 5,16 C5,16.5522847 5.44771525,17 6,17 Z" id="Shape"/><path d="M6,46 L25,46 C25.5522847,46 26,45.5522847 26,45 C26,44.4477153 25.5522847,44 25,44 L6,44 C5.44771525,44 5,44.4477153 5,45 C5,45.5522847 5.44771525,46 6,46 Z" id="Shape"/><path d="M35,46 C35.5522847,46 36,45.5522847 36,45 C36,44.4477153 35.5522847,44 35,44 L29,44 C28.4477153,44 28,44.4477153 28,45 C28,45.5522847 28.4477153,46 29,46 L35,46 Z" id="Shape"/><path d="M20,49 C20,49.5522847 20.4477153,50 21,50 L35,50 C35.5522847,50 36,49.5522847 36,49 C36,48.4477153 35.5522847,48 35,48 L21,48 C20.4477153,48 20,48.4477153 20,49 Z" id="Shape"/><path d="M6,50 L17,50 C17.5522847,50 18,49.5522847 18,49 C18,48.4477153 17.5522847,48 17,48 L6,48 C5.44771525,48 5,48.4477153 5,49 C5,49.5522847 5.44771525,50 6,50 Z" id="Shape"/><path d="M30,52 L6,52 C5.44771525,52 5,52.4477153 5,53 C5,53.5522847 5.44771525,54 6,54 L30,54 C30.5522847,54 31,53.5522847 31,53 C31,52.4477153 30.5522847,52 30,52 Z" id="Shape"/><path d="M36,52 L34,52 C33.4477153,52 33,52.4477153 33,53 C33,53.5522847 33.4477153,54 34,54 L36,54 C36.5522847,54 37,53.5522847 37,53 C37,52.4477153 36.5522847,52 36,52 Z" id="Shape"/></g></g></svg>
