<?xml version="1.0" encoding="UTF-8"?>
<svg xmlns="http://www.w3.org/2000/svg" xmlns:xlink="http://www.w3.org/1999/xlink" width="512" height="512" viewBox="0 0 60 60" version="1.1"><!-- Generator: Sketch 51.3 (57544) - http://www.bohemiancoding.com/sketch --><title>043 - Life Insurance Documents</title><desc>Created with Sketch.</desc><defs/><g id="Page-1" stroke="none" stroke-width="1" fill="none" fill-rule="evenodd"><g id="043---Life-Insurance-Documents" fill="#000000" fill-rule="nonzero"><path d="M59.4,36.49 L49.4,32.17 C49.1472508,32.0610007 48.8607492,32.0610007 48.608,32.17 L46,33.3 L46,14 C46,13.978 45.989,13.96 45.988,13.938 C45.9820915,13.8479535 45.963924,13.7591342 45.934,13.674 C45.9246551,13.6421099 45.9136399,13.6107333 45.901,13.58 C45.853902,13.4751855 45.7893137,13.3791484 45.71,13.296 L32.71,0.296 C32.6250094,0.213930094 32.5261476,0.147570784 32.418,0.1 C32.39,0.085 32.36,0.077 32.329,0.066 C32.2409728,0.0351612254 32.1491014,0.0166523416 32.056,0.011 C32.037,0.01 32.02,0 32,0 L3,0 C1.34314575,-1.01453063e-16 2.02906125e-16,1.34314575 0,3 L0,57 C2.02906125e-16,58.6568542 1.34314575,60 3,60 L43,60 C44.2794032,59.996049 45.41492,59.1795698 45.826,57.968 L48.42,59.814 C48.7671643,60.061178 49.2328357,60.061178 49.58,59.814 L57.392,54.254 C59.0192795,53.1012451 59.9904167,51.2341892 60,49.24 L60,37.408 C60.000591,37.009839 59.7649212,36.6492641 59.4,36.49 Z M33,3.414 L42.586,13 L33,13 L33,3.414 Z M44,57 C44,57.5522847 43.5522847,58 43,58 L3,58 C2.44771525,58 2,57.5522847 2,57 L2,3 C2,2.44771525 2.44771525,2 3,2 L31,2 L31,13 C31,14.1045695 31.8954305,15 33,15 L44,15 L44,34.159 L38.6,36.49 C38.2350788,36.6492641 37.999409,37.009839 38,37.408 L38,49.24 C38.0095833,51.2341892 38.9807205,53.1012451 40.608,54.254 L44,56.668 L44,57 Z M58,49.24 C57.9910962,50.5876812 57.3323369,51.848224 56.231,52.625 L49,57.772 L41.769,52.625 C40.6677915,51.8481115 40.0090695,50.58764 40,49.24 L40,38.065 L45.368,35.746 L45.409,35.728 L49,34.177 L58,38.065 L58,49.24 Z" id="Shape"/><path d="M43.6,46.931 C43.1581722,46.5996292 42.5313708,46.6891722 42.2,47.131 C41.8686292,47.5728278 41.9581722,48.1996292 42.4,48.531 L46.4,51.531 C46.8320438,51.8552308 47.4434866,51.7777489 47.781,51.356 L55.781,41.356 C56.004291,41.0769756 56.0617626,40.700022 55.9317659,40.3671342 C55.8017691,40.0342463 55.5040536,39.7959976 55.1507659,39.7421342 C54.7974781,39.6882707 54.442291,39.8269756 54.219,40.106 L46.825,49.35 L43.6,46.931 Z" id="Shape"/><path d="M41,33 C41.5522847,33 42,32.5522847 42,32 C42,31.4477153 41.5522847,31 41,31 L39.116,31 C39.7205626,29.5560962 40.0214719,28.0032134 40,26.438 C40,20.616 36.438,17 30.7,17 C27.6952977,16.9776664 24.8505197,18.3516572 23,20.719 C21.1494803,18.3516572 18.3047023,16.9776664 15.3,17 C9.562,17 6,20.616 6,26.438 C5.97852809,28.0032134 6.27943741,29.5560962 6.884,31 L5,31 C4.44771527,31 4.00000006,31.4477153 4.00000006,32 C4.00000006,32.5522847 4.44771527,33 5,33 L8.006,33 C8.94297396,34.2420934 10.0212163,35.3710094 11.219,36.364 C11.573,36.679 11.919,36.983 12.237,37.288 C14.611,39.54 22.058,45.526 22.374,45.779 C22.7397062,46.0725693 23.2602938,46.0725693 23.626,45.779 C23.942,45.526 31.389,39.54 33.763,37.288 C34.084,36.988 34.427,36.679 34.781,36.364 C35.9787837,35.3710094 37.057026,34.2420934 37.994,33 L41,33 Z M8,26.438 C8,21.78 10.728,19 15.3,19 C18.1246786,18.9851494 20.7351999,20.5034552 22.119,22.966 C22.3084285,23.2729074 22.6433404,23.4597629 23.004,23.4597629 C23.3646596,23.4597629 23.6995715,23.2729074 23.889,22.966 C25.2714067,20.5059671 27.8781801,18.9880603 30.7,19 C35.268,19 38,21.78 38,26.438 C38.0329164,28.0307898 37.6459496,29.604179 36.878,31 L29,31 C28.620974,30.9998234 28.2744246,31.2139484 28.105,31.553 L28.105,31.561 L26.932,28.629 C26.7797856,28.2479924 26.4102854,27.9986194 26,28 L25.989,28 C25.5761619,28.0041364 25.2083056,28.2615563 25.063,28.648 L23.15,33.748 L20.965,25.734 C20.8493366,25.308419 20.4685334,25.0088549 20.027684,24.9966475 C19.5868346,24.98444 19.1900374,25.2624718 19.051,25.681 L17.279,31 L9.122,31 C8.35405042,29.604179 7.96708361,28.0307898 8,26.438 Z M33.453,34.869 C33.083,35.198 32.723,35.518 32.386,35.837 C30.464,37.661 24.881,42.2 23,43.716 C21.119,42.196 15.536,37.661 13.614,35.837 C13.277,35.518 12.914,35.198 12.547,34.869 C11.878,34.275 11.21,33.669 10.591,33 L18,33 C18.4306074,33.0001037 18.8129281,32.7245428 18.949,32.316 L19.904,29.449 L22.035,37.263 C22.1491355,37.6817827 22.5203982,37.9791161 22.954,37.999 L23,37.999 C23.4168678,37.9994168 23.7902627,37.7411885 23.937,37.351 L26.03,31.767 L27.071,34.367 C27.2169123,34.7332878 27.5644337,34.9796468 27.9583725,34.9960609 C28.3523112,35.012475 28.7191224,34.7958799 28.895,34.443 L29.618,33 L35.409,33 C34.79,33.667 34.122,34.275 33.453,34.869 Z" id="Shape"/><path d="M6,7 L21,7 C21.5522847,7 22,6.55228475 22,6 C22,5.44771525 21.5522847,5 21,5 L6,5 C5.44771525,5 5,5.44771525 5,6 C5,6.55228475 5.44771525,7 6,7 Z" id="Shape"/><path d="M25,7 L27,7 C27.5522847,7 28,6.55228475 28,6 C28,5.44771525 27.5522847,5 27,5 L25,5 C24.4477153,5 24,5.44771525 24,6 C24,6.55228475 24.4477153,7 25,7 Z" id="Shape"/><path d="M6,13 L13,13 C13.5522847,13 14,12.5522847 14,12 C14,11.4477153 13.5522847,11 13,11 L6,11 C5.44771525,11 5,11.4477153 5,12 C5,12.5522847 5.44771525,13 6,13 Z" id="Shape"/><path d="M27,11 L18,11 C17.4477153,11 17,11.4477153 17,12 C17,12.5522847 17.4477153,13 18,13 L27,13 C27.5522847,13 28,12.5522847 28,12 C28,11.4477153 27.5522847,11 27,11 Z" id="Shape"/><path d="M6,17 L9,17 C9.55228475,17 10,16.5522847 10,16 C10,15.4477153 9.55228475,15 9,15 L6,15 C5.44771525,15 5,15.4477153 5,16 C5,16.5522847 5.44771525,17 6,17 Z" id="Shape"/><path d="M6,50 L19,50 C19.5522847,50 20,49.5522847 20,49 C20,48.4477153 19.5522847,48 19,48 L6,48 C5.44771525,48 5,48.4477153 5,49 C5,49.5522847 5.44771525,50 6,50 Z" id="Shape"/><path d="M34,50 C34.5522847,50 35,49.5522847 35,49 C35,48.4477153 34.5522847,48 34,48 L24,48 C23.4477153,48 23,48.4477153 23,49 C23,49.5522847 23.4477153,50 24,50 L34,50 Z" id="Shape"/><path d="M11,52 L6,52 C5.44771525,52 5,52.4477153 5,53 C5,53.5522847 5.44771525,54 6,54 L11,54 C11.5522847,54 12,53.5522847 12,53 C12,52.4477153 11.5522847,52 11,52 Z" id="Shape"/><path d="M35,52 L15,52 C14.4477153,52 14,52.4477153 14,53 C14,53.5522847 14.4477153,54 15,54 L35,54 C35.5522847,54 36,53.5522847 36,53 C36,52.4477153 35.5522847,52 35,52 Z" id="Shape"/></g></g></svg>
