<?xml version="1.0" encoding="UTF-8"?>
<svg xmlns="http://www.w3.org/2000/svg" xmlns:xlink="http://www.w3.org/1999/xlink" width="512" height="512" viewBox="0 0 48 60" version="1.1"><!-- Generator: Sketch 51.3 (57544) - http://www.bohemiancoding.com/sketch --><title>044 - Dental Insurance</title><desc>Created with Sketch.</desc><defs/><g id="Page-1" stroke="none" stroke-width="1" fill="none" fill-rule="evenodd"><g id="044---Dental-Insurance" transform="translate(0.000000, -1.000000)" fill="#000000" fill-rule="nonzero"><path d="M47.4,11.1 L24.4,1.082 C24.1449495,0.970686852 23.8550505,0.970686852 23.6,1.082 L0.6,11.1 C0.23541191,11.2591192 -0.000192856432,11.6192018 1.99840143e-15,12.017 L1.99840143e-15,35.985 C0.0105214862,41.2082668 2.52997482,46.1084027 6.772,49.156 L22.672,60.569 C23.4672517,61.1429705 24.5407483,61.1429705 25.336,60.569 L41.227,49.156 C45.4696596,46.1088396 47.9895757,41.2085274 48,35.985 L48,12.021 C48.0017888,11.621751 47.7659232,11.2596972 47.4,11.1 Z M46,35.985 C45.9905465,40.5643741 43.7808792,44.8601845 40.061,47.531 L24.161,58.945 C24.0630001,59.0165389 23.9299999,59.0165389 23.832,58.945 L7.932,47.531 C4.21476865,44.8586721 2.00783301,40.5631092 2,35.985 L2,12.677 L24,3.09 L46,12.677 L46,35.985 Z" id="Shape"/><path d="M23.6,5.446 L4.6,13.724 C4.23541191,13.8831192 3.99980714,14.2432018 4,14.641 L4,35.986 C4.0096402,39.921214 5.90876792,43.6123296 9.105,45.908 L23.417,56.184 C23.7654532,56.4340371 24.2345468,56.4340371 24.583,56.184 L38.9,45.908 C42.0943408,43.6112499 43.9915176,39.9203109 44,35.986 L44,14.641 C44.0001929,14.2432018 43.7645881,13.8831192 43.4,13.724 L24.4,5.446 C24.1449495,5.33468685 23.8550505,5.33468685 23.6,5.446 Z M42,15.3 L42,35.99 C41.9918007,39.2819997 40.4029244,42.3697246 37.729,44.29 L24,54.14 L10.271,44.283 C7.59793198,42.3633435 6.00916171,39.2769406 6,35.986 L6,15.3 L24,7.454 L42,15.3 Z" id="Shape"/><path d="M23.358,14.235 C20.1870858,12.2274688 16.0497569,12.676777 13.383712,15.3181939 C10.7176671,17.9596108 10.2299824,22.0925917 12.208,25.282 C12.5715305,25.8537663 12.8847076,26.4560299 13.144,27.082 C13.291,27.452 13.449,27.87 13.607,28.324 C14.1073971,29.7987369 14.2247375,31.3764654 13.948,32.909 C13.721639,34.221881 13.6082239,35.5517481 13.609,36.884 C13.5960043,39.1870792 13.9414705,41.4781547 14.633,43.675 C14.8760041,44.5551686 15.7395364,45.1139501 16.642,44.975 C17.6023803,44.8052516 18.2813182,43.9402089 18.218,42.967 C18.2155337,41.5747198 18.368141,40.1864959 18.673,38.828 C19.465,35.328 21.208,33.621 24,33.621 C26.792,33.621 28.535,35.321 29.327,38.828 C29.6352555,40.2065792 29.7878767,41.6153898 29.782,43.028 C29.7393084,43.9831969 30.4152609,44.8204172 31.358,44.98 C31.452262,44.9950275 31.5475481,45.0027172 31.643,45.003 C32.4463879,44.9909301 33.1469173,44.4537492 33.367,43.681 C34.0583941,41.48378 34.4038559,39.1923966 34.391,36.889 C34.3917761,35.5567481 34.278361,34.226881 34.052,32.914 C33.7752625,31.3814654 33.8926029,29.8037369 34.393,28.329 C34.551,27.875 34.709,27.457 34.857,27.086 C35.115454,26.4600074 35.4279696,25.8577291 35.791,25.286 C36.7552036,23.7392659 37.1623332,21.9096523 36.945,20.1 C36.4874039,16.4553255 33.63891,13.5723789 30,13.071 C28.1288924,12.8145005 26.227371,13.2282444 24.632,14.239 C24.2416271,14.4818162 23.7468405,14.4802627 23.358,14.235 Z M25.706,15.929 C26.9077491,15.1701546 28.3390763,14.8605828 29.747,15.055 C32.4782587,15.4316252 34.6157784,17.5962177 34.958,20.332 C35.121977,21.6929511 34.8157046,23.0690601 34.09,24.232 C33.665199,24.9028877 33.30045,25.6099653 33,26.345 C32.842,26.738 32.673,27.186 32.5,27.671 C31.8894603,29.467058 31.74427,31.3885934 32.078,33.256 C32.2856912,34.4551494 32.38941,35.6699984 32.388,36.887 C32.3913947,38.617818 32.1797745,40.3423551 31.758,42.021 C31.7054054,40.7987022 31.5437634,39.5835428 31.275,38.39 C30.013,32.8 26.622,31.624 24,31.624 C21.378,31.624 17.987,32.8 16.723,38.39 C16.4530194,39.5854124 16.2907037,40.8026134 16.238,42.027 C15.5256427,39.1569395 15.4170163,36.1702259 15.919,33.256 C16.25273,31.3885934 16.1075397,29.467058 15.497,27.671 C15.328,27.186 15.159,26.738 14.997,26.346 C14.6978327,25.6099654 14.3340789,24.9018669 13.91,24.23 C13.184249,23.0670607 12.8776456,21.6910502 13.041,20.33 C13.3835976,17.5927366 15.5222624,15.4270001 18.255,15.05 C18.5282993,15.0155625 18.803542,14.9988608 19.079,15 C20.214759,14.9976577 21.327747,15.3184785 22.288,15.925 C23.3307165,16.5871224 24.6617367,16.5886801 25.706,15.929 Z" id="Shape"/><path d="M20.293,18.293 C19.9026181,18.6834999 19.9026181,19.3165001 20.293,19.707 C21.3178991,20.5961105 22.6444645,21.058816 24,21 C25.3555355,21.058816 26.6821009,20.5961105 27.707,19.707 C28.0938567,19.3213121 28.0960919,18.6954413 27.712,18.307 C27.3290887,17.9153772 26.7032447,17.9020424 26.304,18.277 C25.6480876,18.7875201 24.8299969,19.0442387 24,19 C23.1723856,19.0427308 22.3567228,18.7884568 21.7,18.283 C21.307579,17.9000162 20.6799376,17.9044771 20.293,18.293 Z" id="Shape"/></g></g></svg>
