<?xml version="1.0" encoding="UTF-8"?>
<svg xmlns="http://www.w3.org/2000/svg" xmlns:xlink="http://www.w3.org/1999/xlink" width="512" height="512" viewBox="0 0 60 60" version="1.1"><!-- Generator: Sketch 51.3 (57544) - http://www.bohemiancoding.com/sketch --><title>045 - Insurance Cover</title><desc>Created with Sketch.</desc><defs/><g id="Page-1" stroke="none" stroke-width="1" fill="none" fill-rule="evenodd"><g id="045---Insurance-Cover" fill="#000000" fill-rule="nonzero"><path d="M59.392,38.914 L50.392,35.08 C50.1415605,34.973287 49.8584395,34.973287 49.608,35.08 L40.608,38.914 C40.2392787,39.0711133 39.9999861,39.4332008 40,39.834 L40,50.334 C40.011927,52.1494857 40.9074413,53.845366 42.4,54.879 L49.43,59.815 C49.7745559,60.0565263 50.2334441,60.0565263 50.578,59.815 L57.609,54.88 C59.0967882,53.8440918 59.9884658,52.1498669 60,50.337 L60,39.837 C60.0012189,39.4351109 59.7617265,39.0715394 59.392,38.914 Z M58,50.337 C57.9890437,51.5000614 57.413124,52.5851328 56.456,53.246 L50,57.778 L43.544,53.245 C42.5869035,52.5845666 42.0109437,51.4997924 42,50.337 L42,40.495 L50,37.087 L58,40.495 L58,50.337 Z" id="Shape"/><path d="M45.669,48.257 C45.4048368,48.0095273 45.0275609,47.9241282 44.6825746,48.0337156 C44.3375883,48.1433029 44.0787549,48.4307666 44.0058289,48.785318 C43.9329029,49.1398695 44.0572703,49.5061519 44.331,49.743 L47.664,52.743 C47.84759,52.9083772 48.0859071,52.999928 48.333,53 C48.3747877,52.9997926 48.4165268,52.9971213 48.458,52.992 C48.7459077,52.9558089 49.0038981,52.7963438 49.165,52.555 L55.832,42.555 C56.0302824,42.257755 56.0549246,41.8773069 55.8966441,41.5569668 C55.7383637,41.2366267 55.421207,41.0250619 55.0646441,41.0019668 C54.7080812,40.9788717 54.3662824,41.147755 54.168,41.445 L48.143,50.483 L45.669,48.257 Z" id="Shape"/><path d="M31,3.024 L31,1 C31,0.44771525 30.5522847,3.38176876e-17 30,0 C29.4477153,-3.38176876e-17 29,0.44771525 29,1 L29,3.025 C12.8400008,3.58010609 0.0206206565,16.8304826 -3.55271368e-15,33 L-3.55271368e-15,34 C-3.48163661e-15,34.5522847 0.44771525,35 1,35 C1.55228475,35 2,34.5522847 2,34 C2,33.194 4.1,32 7,32 C9.353,32 11,32.821 11,34 L11,34.048 C11.0090297,34.1140965 11.0247778,34.1790996 11.047,34.242 C11.0560626,34.2979484 11.0694358,34.3531126 11.087,34.407 C11.121651,34.472817 11.1635802,34.5345367 11.212,34.591 C11.2385437,34.6353644 11.2686424,34.6775026 11.302,34.717 C11.3629061,34.7708352 11.4300528,34.8171664 11.502,34.855 C11.5370464,34.8810873 11.5737947,34.9048067 11.612,34.926 C11.7350807,34.9763741 11.8670186,35.0015376 12,35 L12.046,35 C12.1038279,34.9912082 12.1607312,34.9771498 12.216,34.958 C12.282115,34.9480579 12.3470937,34.9316458 12.41,34.909 C12.4644577,34.8807447 12.5160345,34.8472533 12.564,34.809 C12.6201998,34.7754762 12.672809,34.7362706 12.721,34.692 C12.7594964,34.6442102 12.7930041,34.5926083 12.821,34.538 C12.8597744,34.4861323 12.8932739,34.4305233 12.921,34.372 C12.9405723,34.3067847 12.9536361,34.2397909 12.96,34.172 C12.9790732,34.1161547 12.9924742,34.0585307 13,34 C13,33.194 15.1,32 18,32 C20.9,32 23,33.192 23,34 L23,34.042 C23.0085765,34.1077586 23.0239934,34.1724424 23.046,34.235 C23.0545985,34.2926774 23.067978,34.3495399 23.086,34.405 C23.1202399,34.4691135 23.1611317,34.5294458 23.208,34.585 C23.2700205,34.704591 23.372936,34.7979247 23.498,34.848 C23.5355181,34.8758505 23.5745804,34.9015582 23.615,34.925 C23.737124,34.9751702 23.867974,35.0006605 24,35 L24.04,35 C24.0985744,34.9916872 24.1561865,34.9776192 24.212,34.958 C24.2781405,34.9492041 24.3431675,34.9334501 24.406,34.911 C24.4626055,34.8804874 24.5161802,34.8446594 24.566,34.804 C24.6202832,34.7709944 24.6714893,34.7331755 24.719,34.691 C24.7592217,34.6421388 24.7947143,34.5895696 24.825,34.534 C24.8635886,34.4830711 24.8970827,34.4284758 24.925,34.371 C24.9446967,34.3078619 24.9577671,34.2428448 24.964,34.177 C24.9817085,34.1193063 24.9937652,34.0600274 25,34 C25,33.516 25.767,32.9 27,32.475 L27,42.184 C25.8018704,42.6014114 24.9990545,43.7312421 24.9990545,45 C24.9990545,46.2687579 25.8018704,47.3985886 27,47.816 L27,52.5 C27,53.3284271 26.3284271,54 25.5,54 C24.6715729,54 24,53.3284271 24,52.5 L24,51 C23.9907118,49.3470083 22.6529917,48.0092882 21,48 C19.3431458,48 18,49.3431458 18,51 L18,52.5 C18,56.6421356 21.3578644,60 25.5,60 C29.6421356,60 33,56.6421356 33,52.5 L33,47.816 C34.1981296,47.3985886 35.0009455,46.2687579 35.0009455,45 C35.0009455,43.7312421 34.1981296,42.6014114 33,42.184 L33,32.475 C34.233,32.896 35,33.516 35,34 C35.0063995,34.0609854 35.0184513,34.1212444 35.036,34.18 C35.0402612,34.3119166 35.0904901,34.4381964 35.178,34.537 C35.2065927,34.5909458 35.2400659,34.6421597 35.278,34.69 C35.3257483,34.7330585 35.3776719,34.7712475 35.433,34.804 C35.4818959,34.8446533 35.5348408,34.8801732 35.591,34.91 C35.6538325,34.9324501 35.7188595,34.9482041 35.785,34.957 C35.8417838,34.9770318 35.9003988,34.9914343 35.96,35 L36,35 C36.131824,34.9998944 36.2623264,34.973726 36.384,34.923 C36.4244196,34.8995582 36.4634819,34.8738505 36.501,34.846 C36.626064,34.7959247 36.7289795,34.702591 36.791,34.583 C36.8378683,34.5274458 36.8787601,34.4671135 36.913,34.403 C36.931022,34.3475399 36.9444015,34.2906774 36.953,34.233 C36.9753469,34.1704795 36.9910991,34.1057949 37,34.04 L37,34 C37,33.194 39.1,32 42,32 C44.9,32 47,33.194 47,34 C47.0062986,34.05969 47.0183547,34.1186309 47.036,34.176 C47.0417923,34.2405163 47.0545328,34.3042187 47.074,34.366 C47.1377725,34.4758452 47.2061671,34.5829411 47.279,34.687 C47.3296301,34.7332668 47.3849265,34.7741526 47.444,34.809 C47.5373912,34.8977125 47.6593708,34.9501921 47.788,34.957 C47.8422446,34.9761457 47.8981519,34.9902062 47.955,34.999 L48,34.999 C48.1311665,34.9987888 48.2609943,34.9726193 48.382,34.922 C48.4224264,34.8998329 48.4611944,34.8747673 48.498,34.847 C48.5698196,34.8105503 48.6369727,34.7655577 48.698,34.713 C48.7325857,34.6723474 48.7636951,34.6288612 48.791,34.583 C48.838327,34.5280094 48.8789456,34.467585 48.912,34.403 C48.930817,34.3487255 48.9445428,34.2928179 48.953,34.236 C48.975268,34.1741416 48.99102,34.1101282 49,34.045 L49,34 C49,32.824 50.646,32 53,32 C55.9,32 58,33.194 58,34 C58,34.5522847 58.4477153,35 59,35 C59.5522847,35 60,34.5522847 60,34 L60,33 C60.0101483,16.8178593 47.1736153,3.54931047 31,3.024 Z M7,30 C5.28551007,29.9742918 3.59048256,30.3658744 2.061,31.141 C2.93711108,18.2863592 12.4578211,7.68171616 25.144,5.43 C13.944,12.591 11.585,25.167 11.111,30.963 C9.85341701,30.2749643 8.43232422,29.9420739 7,30 Z M18,30 C16.2993855,29.9776603 14.6184878,30.365982 13.1,31.132 C13.534,25.67 15.749,13.616 26.535,6.924 C23.284,13.608 22.929,25.63 22.952,31.152 C21.4199408,30.3700135 19.719901,29.9745276 18,30 Z M25.5,58 C24.0402506,58.0034626 22.6392913,57.425112 21.6070897,56.3929103 C20.574888,55.3607087 19.9965374,53.9597494 20,52.5 L20,51 C20,50.4477153 20.4477153,50 21,50 C21.2693445,49.9996046 21.526929,50.110308 21.712,50.306 C21.8985985,50.4883963 22.0026276,50.7390776 22,51 L22,52.5 C22,54.4329966 23.5670034,56 25.5,56 C27.4329966,56 29,54.4329966 29,52.5 L29,48 L31,48 L31,52.5 C30.9966932,55.5361953 28.5361953,57.9966932 25.5,58 Z M32,46 L28,46 C27.4477153,46 27,45.5522847 27,45 C27,44.4477153 27.4477153,44 28,44 L32,44 C32.5522847,44 33,44.4477153 33,45 C33,45.5522847 32.5522847,46 32,46 Z M31,42 L29,42 L29,32.051 C29.321,32.019 29.654,32 30,32 C30.346,32 30.679,32.019 31,32.051 L31,42 Z M30,30 C28.2379272,29.9721075 26.4976003,30.3918779 24.942,31.22 C24.9,23.476 25.738,9.474 30,5.311 C34.26,9.473 35.1,23.475 35.058,31.219 C33.5021362,30.3916773 31.7619327,29.9722807 30,30 Z M42,30 C40.2817848,29.9753446 38.5835588,30.3708078 37.053,31.152 C37.076,25.63 36.721,13.611 33.471,6.925 C44.235,13.612 46.461,25.666 46.9,31.13 C45.3813791,30.3645622 43.7004623,29.9769222 42,30 Z M53,30 C51.5676758,29.9420739 50.146583,30.2749643 48.889,30.963 C48.415,25.163 46.058,12.583 34.846,5.423 C47.5520001,7.64766796 57.090348,18.2706607 57.939,31.142 C56.4097703,30.3660728 54.7146243,29.9741196 53,30 Z" id="Shape"/><path d="M2,4 C2.55228475,4 3,3.55228475 3,3 L3,1 C3,0.44771525 2.55228475,3.38176876e-17 2,0 C1.44771525,-3.38176876e-17 1,0.44771525 1,1 L1,3 C1,3.55228475 1.44771525,4 2,4 Z" id="Shape"/><path d="M1,9 C1,9.55228475 1.44771525,10 2,10 C2.55228475,10 3,9.55228475 3,9 L3,7 C3,6.44771525 2.55228475,6 2,6 C1.44771525,6 1,6.44771525 1,7 L1,9 Z" id="Shape"/><path d="M1,15 C1,15.5522847 1.44771525,16 2,16 C2.55228475,16 3,15.5522847 3,15 L3,13 C3,12.4477153 2.55228475,12 2,12 C1.44771525,12 1,12.4477153 1,13 L1,15 Z" id="Shape"/><path d="M6,6 C6.55228475,6 7,5.55228475 7,5 L7,3 C7,2.44771525 6.55228475,2 6,2 C5.44771525,2 5,2.44771525 5,3 L5,5 C5,5.55228475 5.44771525,6 6,6 Z" id="Shape"/><path d="M5,11 C5,11.5522847 5.44771525,12 6,12 C6.55228475,12 7,11.5522847 7,11 L7,9 C7,8.44771525 6.55228475,8 6,8 C5.44771525,8 5,8.44771525 5,9 L5,11 Z" id="Shape"/><path d="M10,4 C10.5522847,4 11,3.55228475 11,3 L11,1 C11,0.44771525 10.5522847,3.38176876e-17 10,0 C9.44771525,-3.38176876e-17 9,0.44771525 9,1 L9,3 C9,3.55228475 9.44771525,4 10,4 Z" id="Shape"/><path d="M15,5 L15,3 C15,2.44771525 14.5522847,2 14,2 C13.4477153,2 13,2.44771525 13,3 L13,5 C13,5.55228475 13.4477153,6 14,6 C14.5522847,6 15,5.55228475 15,5 Z" id="Shape"/><path d="M9,8 C9,8.55228475 9.44771525,9 10,9 C10.5522847,9 11,8.55228475 11,8 L11,7 C11,6.44771525 10.5522847,6 10,6 C9.44771525,6 9,6.44771525 9,7 L9,8 Z" id="Shape"/><path d="M19,2 L19,1 C19,0.44771525 18.5522847,3.38176876e-17 18,0 C17.4477153,-3.38176876e-17 17,0.44771525 17,1 L17,2 C17,2.55228475 17.4477153,3 18,3 C18.5522847,3 19,2.55228475 19,2 Z" id="Shape"/><path d="M59,0 C58.4477153,-3.38176876e-17 58,0.44771525 58,1 L58,3 C58,3.55228475 58.4477153,4 59,4 C59.5522847,4 60,3.55228475 60,3 L60,1 C60,0.44771525 59.5522847,3.38176876e-17 59,0 Z" id="Shape"/><path d="M59,6 C58.4477153,6 58,6.44771525 58,7 L58,9 C58,9.55228475 58.4477153,10 59,10 C59.5522847,10 60,9.55228475 60,9 L60,7 C60,6.44771525 59.5522847,6 59,6 Z" id="Shape"/><path d="M59,12 C58.4477153,12 58,12.4477153 58,13 L58,15 C58,15.5522847 58.4477153,16 59,16 C59.5522847,16 60,15.5522847 60,15 L60,13 C60,12.4477153 59.5522847,12 59,12 Z" id="Shape"/><path d="M55,6 C55.5522847,6 56,5.55228475 56,5 L56,3 C56,2.44771525 55.5522847,2 55,2 C54.4477153,2 54,2.44771525 54,3 L54,5 C54,5.55228475 54.4477153,6 55,6 Z" id="Shape"/><path d="M54,11 C54,11.5522847 54.4477153,12 55,12 C55.5522847,12 56,11.5522847 56,11 L56,9 C56,8.44771525 55.5522847,8 55,8 C54.4477153,8 54,8.44771525 54,9 L54,11 Z" id="Shape"/><path d="M51,4 C51.5522847,4 52,3.55228475 52,3 L52,1 C52,0.44771525 51.5522847,3.38176876e-17 51,0 C50.4477153,-3.38176876e-17 50,0.44771525 50,1 L50,3 C50,3.55228475 50.4477153,4 51,4 Z" id="Shape"/><path d="M48,5 L48,3 C48,2.44771525 47.5522847,2 47,2 C46.4477153,2 46,2.44771525 46,3 L46,5 C46,5.55228475 46.4477153,6 47,6 C47.5522847,6 48,5.55228475 48,5 Z" id="Shape"/><path d="M50,8 C50,8.55228475 50.4477153,9 51,9 C51.5522847,9 52,8.55228475 52,8 L52,7 C52,6.44771525 51.5522847,6 51,6 C50.4477153,6 50,6.44771525 50,7 L50,8 Z" id="Shape"/><path d="M44,2 L44,1 C44,0.44771525 43.5522847,3.38176876e-17 43,0 C42.4477153,-3.38176876e-17 42,0.44771525 42,1 L42,2 C42,2.55228475 42.4477153,3 43,3 C43.5522847,3 44,2.55228475 44,2 Z" id="Shape"/></g></g></svg>
