<?xml version="1.0" encoding="UTF-8"?>
<svg xmlns="http://www.w3.org/2000/svg" xmlns:xlink="http://www.w3.org/1999/xlink" width="512" height="512" viewBox="0 0 60 60" version="1.1"><!-- Generator: Sketch 51.3 (57544) - http://www.bohemiancoding.com/sketch --><title>046 - Robbery Cover</title><desc>Created with Sketch.</desc><defs/><g id="Page-1" stroke="none" stroke-width="1" fill="none" fill-rule="evenodd"><g id="046---Robbery-Cover" transform="translate(-1.000000, 0.000000)" fill="#000000" fill-rule="nonzero"><path d="M47.4,19.442 C47.8317868,19.7664602 48.4431916,19.6894259 48.781,19.268 L56.781,9.268 C57.004291,8.98897558 57.0617626,8.61202204 56.9317659,8.27913415 C56.8017691,7.94624626 56.5040536,7.7079976 56.1507659,7.65413414 C55.7974781,7.60027068 55.442291,7.73897557 55.219,8.018 L47.819,17.261 L44.6,14.843 C44.3141875,14.6286406 43.9357266,14.5830436 43.6071797,14.7233848 C43.2786328,14.8637259 43.0499141,15.1686842 43.0071797,15.5233848 C42.9644453,15.8780853 43.1141875,16.2286406 43.4,16.443 L47.4,19.442 Z" id="Shape"/><path d="M57.66,50.267 C57.396,50.143 57.146,50.026 56.93,49.91 C55.51,49.15 54.089,48.391 52.688,47.595 C51.0262391,46.5762674 49.2047615,45.8447014 47.3,45.431 C45.3727483,44.9160839 43.5871036,43.9714665 42.077,42.668 L42.077,39.715 C45.317,36.451 45.304,33.431 45.177,30.51 C46.5048117,29.6318123 47.5474417,28.3851743 48.177,26.923 L49.424,27.813 C49.7715951,28.0611286 50.2384049,28.0611286 50.586,27.813 L58.399,22.234 C60.0242644,21.0743745 60.9922475,19.2035359 61,17.207 L61,5.335 C61.000591,4.93683898 60.7649212,4.57626415 60.4,4.417 L50.4,0.082 C50.1466747,-0.0275751873 49.8593253,-0.0275751873 49.606,0.082 L41.676,3.518 C38.8520015,1.45393885 35.5000671,0.233981742 32.01,-3.38341551e-15 L29.946,-3.38341551e-15 C27.6139763,0.171312076 25.331546,0.759277493 23.207,1.736 C19.0235047,3.48923461 16.2034974,7.47169948 15.939,12 L15,12 C13.3431458,12 12,13.3431458 12,15 L12,17 C12.0020415,17.9807789 12.4833719,18.89863 13.289,19.458 C12.9068801,21.1695298 12.8563012,22.9384322 13.14,24.669 C13.5340738,27.0361829 14.861151,29.1463941 16.824,30.527 C16.697,33.443 16.691,36.456 19.924,39.714 L19.924,42.668 C18.4136456,43.9716565 16.6276314,44.9162884 14.7,45.431 C12.7948137,45.8458883 10.9732598,46.5791753 9.312,47.6 C7.912,48.4 6.49,49.154 5.07,49.914 C4.854,50.03 4.604,50.147 4.34,50.271 C3.16666772,50.6866964 2.13983902,51.4351868 1.385,52.425 C1.0394289,53.0944032 0.901872637,53.8518332 0.99,54.6 C0.995,54.74 1.001,54.88 1,55.018 C1,55.418 1,55.824 1,56.228 L1,59 C1,59.5522847 1.44771525,60 2,60 L60,60 C60.5522847,60 61,59.5522847 61,59 L61,56.228 C61,55.828 61,55.421 61,55.019 C61,54.88 61.005,54.74 61.01,54.6 C61.0980842,53.8515118 60.9605355,53.0937751 60.615,52.424 C59.8603746,51.4332874 58.8335718,50.6837735 57.66,50.267 Z M58.891,53.437 C58.9804791,53.6172076 59.0234504,53.8169384 59.016,54.018 L44.707,54 C44.9989578,53.0212707 45.1955403,52.0165905 45.294,51 L54.752,51 C55.165,51.222 55.573,51.453 55.986,51.674 C56.231,51.805 56.514,51.938 56.811,52.074 C57.6038702,52.3544211 58.3173879,52.821981 58.891,53.437 Z M51.087,49 L45.4,49 C45.4,48.223 45.366,47.52 45.315,46.929 C45.841813,47.1361203 46.3868571,47.2934733 46.943,47.399 C48.399971,47.7112892 49.7985149,48.251605 51.087,49 Z M24,14 L24,18 L22,18 L22,14 L24,14 Z M28,14 L28,18 L26,18 L26,14 L28,14 Z M32,14 L32,18 L30,18 L30,14 L32,14 Z M36,14 L36,18 L34,18 L34,14 L36,14 Z M39,14 L39,17.207 C39.0012217,17.4722425 39.0195934,17.7371285 39.055,18 L38,18 L38,14 L39,14 Z M20,18 L18,18 L18,14 L20,14 L20,18 Z M18.621,25.422 C18.578,25.17 18.532,24.914 18.484,24.647 C18.349,23.89 18.194,23.03 18.063,21.953 C17.985,21.29 17.928,20.653 17.888,20 L39.68,20 C40.1345966,20.887672 40.7954004,21.6534089 41.607,22.233 L43.681,23.714 C43.634,23.988 43.587,24.253 43.541,24.504 C43.484,24.82 43.43,25.123 43.38,25.422 C42.7060309,26.6389381 41.5555473,27.5200838 40.2050339,27.8536798 C38.8545206,28.1872757 37.4260815,27.9431605 36.263,27.18 C35.7192575,26.8527773 35.2580406,26.4049043 34.915,25.871 C34.831,25.733 34.753,25.592 34.674,25.451 C34.3838697,24.8581162 33.9872874,24.3235776 33.504,23.874 C32.0969699,22.6722001 30.0391193,22.6245763 28.578,23.76 C28.1039153,24.1515533 27.7273387,24.6479497 27.478,25.21 C27.3900008,25.3900926 27.2918427,25.565041 27.184,25.734 C26.2642374,27.1504108 24.6888368,28.0036273 23,28 C21.1828123,27.9911348 19.5105113,27.0066196 18.621,25.422 Z M45.11,27.99 C45.1328912,27.2944305 45.2050722,26.6013593 45.326,25.916 L45.326,25.906 C45.373,25.612 45.426,25.311 45.484,25.006 L46.501,25.733 C46.1857828,26.5672903 45.7136001,27.3334415 45.11,27.99 Z M50,2.09 L59,5.99 L59,17.207 C58.9917229,18.5591831 58.3329221,19.8246761 57.23,20.607 L50,25.771 L45.3,22.417 L45.286,22.407 L42.766,20.607 C41.6623084,19.8253471 41.0032862,18.5594287 40.996,17.207 L40.996,5.991 L50,2.09 Z M29.99,2 L31.964,2 C34.6503791,2.21404651 37.2496917,3.05229145 39.555,4.448 C39.2177372,4.61557284 39.0032194,4.95841467 39,5.335 L39,12 L17.933,12 C18.771,2.635 29.567,2.021 29.99,2 Z M14,15 C14,14.4477153 14.4477153,14 15,14 L16,14 L16,18 L15,18 C14.4477153,18 14,17.5522847 14,17 L14,15 Z M15.124,24.424 C14.9172884,22.9544657 14.9429349,21.4615671 15.2,20 L15.256,20 C15.5201789,20.1553057 15.7495973,20.36328 15.93,20.611 C15.969,21.137 16.02,21.661 16.082,22.19 C16.221,23.328 16.382,24.217 16.521,25.001 C16.574,25.301 16.621,25.579 16.671,25.857 C16.671,25.867 16.678,25.876 16.68,25.886 C16.682,25.896 16.68,25.906 16.68,25.916 C16.799183,26.6048281 16.8693591,27.3012421 16.89,28 C15.9921833,26.9873438 15.3823389,25.7524609 15.124,24.424 Z M18.836,30.3 L18.847,30.051 L18.847,30.029 C18.873,29.574 18.885,29.112 18.89,28.645 C20.4326017,29.7827647 22.3763327,30.2335535 24.2622646,29.8909322 C26.1481964,29.5483108 27.8091636,28.4426485 28.853,26.835 C28.9990075,26.6070764 29.1325372,26.3713965 29.253,26.129 C29.3717359,25.833692 29.5548488,25.5685881 29.789,25.353 C30.1391498,25.0913307 30.5629309,24.9468042 31,24.94 C31.4451804,24.951569 31.8733692,25.1133293 32.215,25.399 C32.5101132,25.6977711 32.752536,26.0443309 32.932,26.424 C33.023,26.586 33.113,26.749 33.206,26.902 C33.7033186,27.6952236 34.3767431,28.3631732 35.174,28.854 C37.6028542,30.4545879 40.7718449,30.3719707 43.114,28.647 C43.114,29.112 43.131,29.571 43.156,30.014 L43.169,30.297 C43.306,33.319 43.413,35.707 40.397,38.575 L40.384,38.588 L40.367,38.605 C39.0538305,39.9018806 37.903983,41.3543017 36.943,42.93 C35.577,45.03 34.894,45.96 33.025,45.96 L28.98,45.96 C27.111,45.96 26.428,45.031 25.062,42.93 C24.1008293,41.3523697 22.9502851,39.8982376 21.636,38.6 L21.624,38.588 L21.609,38.573 C18.592,35.707 18.7,33.319 18.836,30.3 Z M15.057,47.4 C15.6133892,47.2941431 16.1587348,47.1367996 16.686,46.93 C16.635,47.521 16.598,48.224 16.601,49.001 L10.914,49.001 C12.2021682,48.2526874 13.6003697,47.7123735 15.057,47.4 Z M5.189,52.077 C5.489,51.938 5.769,51.805 6.014,51.677 C6.427,51.456 6.836,51.225 7.249,51.003 L16.706,51.003 C16.8044597,52.0195905 17.0010422,53.0242707 17.293,54.003 L2.984,54.019 C2.97646138,53.8182514 3.01944175,53.6188225 3.109,53.439 C3.682466,52.8240405 4.3960542,52.3567774 5.189,52.077 Z M3,56.224 L3,56.018 L18.1,56 C18.4730612,56.7243453 18.9393577,57.3967267 19.487,58 L3,58 L3,56.224 Z M39,58 L22.681,58 C17.753,55.314 18.569,47.625 18.824,45.879 C19.224,45.643 19.594,45.403 19.924,45.179 L19.924,46.967 C19.924,47.5192847 20.3717153,47.967 20.924,47.967 C21.4762847,47.967 21.924,47.5192847 21.924,46.967 L21.924,41.92 C22.485,42.649 22.955,43.359 23.385,44.02 C24.76,46.134 25.947,47.959 28.98,47.959 L33.02,47.959 C36.053,47.959 37.24,46.134 38.615,44.02 C39.045,43.358 39.515,42.648 40.076,41.92 L40.076,46.962 C40.076,47.5142847 40.5237153,47.962 41.076,47.962 C41.6282847,47.962 42.076,47.5142847 42.076,46.962 L42.076,45.174 C42.406,45.403 42.776,45.643 43.176,45.88 C43.431,47.626 44.247,55.314 39.319,58 L39,58 Z M59,58 L42.514,58 C43.0612908,57.3966674 43.5272492,56.7242887 43.9,56 L59,56.017 L59,58 Z" id="Shape"/></g></g></svg>
