<?xml version="1.0" encoding="UTF-8"?>
<svg xmlns="http://www.w3.org/2000/svg" xmlns:xlink="http://www.w3.org/1999/xlink" width="512" height="512" viewBox="0 0 60 60" version="1.1"><!-- Generator: Sketch 51.3 (57544) - http://www.bohemiancoding.com/sketch --><title>047 - Safe Cover</title><desc>Created with Sketch.</desc><defs/><g id="Page-1" stroke="none" stroke-width="1" fill="none" fill-rule="evenodd"><g id="047---Safe-Cover" fill="#000000" fill-rule="nonzero"><path d="M59.4,6.129 L45.4,0.082 C45.1472508,-0.0269993194 44.8607492,-0.0269993194 44.608,0.082 L30.608,6.129 C30.2430788,6.28826415 30.007409,6.64883898 30.008,7.047 L30.008,8 L5,8 C2.23994685,8.00330612 0.00330611633,10.2399468 0,13 L0,49 C0.00299828742,51.3751008 1.6735832,53.4215673 4,53.9 L4,57 C4,58.6568542 5.34314575,60 7,60 L13,60 C14.6568542,60 16,58.6568542 16,57 L16,54 L30,54 L30,57 C30,58.6568542 31.3431458,60 33,60 L39,60 C40.6568542,60 42,58.6568542 42,57 L42,53.9 C44.3264168,53.4215673 45.9970017,51.3751008 46,49 L46,36.687 C46.011,36.679 46.025,36.677 46.036,36.669 L55.711,29.781 C58.3922055,27.8777289 59.9895318,24.797038 60,21.509 L60,7.047 C60.000591,6.64883898 59.7649212,6.28826415 59.4,6.129 Z M33.68,29.29 C33.8878085,29.8363503 33.9961829,30.4154759 34,31 C34,33.7614237 31.7614237,36 29,36 C26.2385763,36 24,33.7614237 24,31 C24,28.2385763 26.2385763,26 29,26 C29.8467661,25.9980511 30.6797954,26.2139706 31.419,26.627 C32.0141,27.6379553 32.7789576,28.5388027 33.68,29.29 Z M30,24.076 L30,23 C30,22.4477153 29.5522847,22 29,22 C28.4477153,22 28,22.4477153 28,23 L28,24.08 C27.453279,24.1575126 26.9178028,24.3001944 26.405,24.505 L25.866,23.572 C25.5879942,23.0977864 24.979353,22.9368714 24.5033057,23.2117255 C24.0272584,23.4865795 23.8623097,24.09414 24.134,24.572 L24.674,25.508 C24.241165,25.8498351 23.8498351,26.241165 23.508,26.674 L22.572,26.134 C22.09414,25.8623097 21.4865795,26.0272584 21.2117255,26.5033057 C20.9368714,26.979353 21.0977864,27.5879942 21.572,27.866 L22.505,28.405 C22.3001944,28.9178028 22.1575126,29.453279 22.08,30 L21,30 C20.4477153,30 20,30.4477153 20,31 C20,31.5522847 20.4477153,32 21,32 L22.08,32 C22.1575126,32.546721 22.3001944,33.0821972 22.505,33.595 L21.572,34.134 C21.2600492,34.3113616 21.0670468,34.6422732 21.0662579,35.0011183 C21.065469,35.3599634 21.2570146,35.6917204 21.5681826,35.8704519 C21.8793505,36.0491833 22.2624296,36.0474844 22.572,35.866 L23.508,35.326 C23.8498351,35.758835 24.241165,36.1501649 24.674,36.492 L24.134,37.428 C23.9525156,37.7375704 23.9508167,38.1206495 24.1295481,38.4318174 C24.3082796,38.7429854 24.6400366,38.934531 24.9988817,38.9337421 C25.3577268,38.9329532 25.6886384,38.7399508 25.866,38.428 L26.405,37.495 C26.9178028,37.6998056 27.453279,37.8424874 28,37.92 L28,39 C28,39.5522847 28.4477153,40 29,40 C29.5522847,40 30,39.5522847 30,39 L30,37.92 C30.546721,37.8424874 31.0821972,37.6998056 31.595,37.495 L32.134,38.428 C32.4120058,38.9022136 33.020647,39.0631286 33.4966943,38.7882745 C33.9727416,38.5134205 34.1376903,37.90586 33.866,37.428 L33.326,36.492 C33.758835,36.1501649 34.1501649,35.758835 34.492,35.326 L35.428,35.866 C35.7375704,36.0474844 36.1206495,36.0491833 36.4318174,35.8704519 C36.7429854,35.6917204 36.934531,35.3599634 36.9337421,35.0011183 C36.9329532,34.6422732 36.7399508,34.3113616 36.428,34.134 L35.495,33.595 C35.6998056,33.0821972 35.8424874,32.546721 35.92,32 L37,32 C37.10814,31.9962223 37.2149121,31.9745976 37.316,31.936 L40,33.847 L40,48 L8,48 L8,46 C9.1045695,46 10,45.1045695 10,44 L10,40 C10,38.8954305 9.1045695,38 8,38 L8,24 C9.1045695,24 10,23.1045695 10,22 L10,18 C10,16.8954305 9.1045695,16 8,16 L8,14 L30,14 L30,21.509 C30.00389,22.4010436 30.1269796,23.2885664 30.366,24.148 C30.244,24.124 30.124,24.094 30,24.076 Z M8,40 L8,44 L6,44 L6,40 L8,40 Z M8,18 L8,22 L6,22 L6,18 L8,18 Z M14,57 C14,57.5522847 13.5522847,58 13,58 L7,58 C6.44771525,58 6,57.5522847 6,57 L6,54 L14,54 L14,57 Z M40,57 C40,57.5522847 39.5522847,58 39,58 L33,58 C32.4477153,58 32,57.5522847 32,57 L32,54 L40,54 L40,57 Z M41,52 L5,52 C3.34314575,52 2,50.6568542 2,49 L2,13 C2,11.3431458 3.34314575,10 5,10 L30,10 L30,12 L8,12 C6.8954305,12 6,12.8954305 6,14 L6,16 C4.8954305,16 4,16.8954305 4,18 L4,22 C4,23.1045695 4.8954305,24 6,24 L6,38 C4.8954305,38 4,38.8954305 4,40 L4,44 C4,45.1045695 4.8954305,46 6,46 L6,48 C6,49.1045695 6.8954305,50 8,50 L40,50 C41.1045695,50 42,49.1045695 42,48 L42,35.271 L43.964,36.671 C43.975,36.679 43.989,36.681 44,36.689 L44,49 C44,50.6568542 42.6568542,52 41,52 Z M58,21.509 C57.9902734,24.1503069 56.7057535,26.6243764 54.551,28.152 L45,34.951 L35.449,28.151 C33.294533,26.6235813 32.010049,24.1499534 32,21.509 L32,7.7 L45,2.089 L58,7.7 L58,21.509 Z" id="Shape"/><path d="M44.6,4.439 L34.6,8.759 C34.2350788,8.91826415 33.999409,9.27883898 34,9.677 L34,21.509 C34.0097397,23.5028766 34.980878,25.3695623 36.608,26.522 L44.42,32.084 C44.7671643,32.331178 45.2328357,32.331178 45.58,32.084 L53.392,26.523 C55.0191509,25.370133 55.9902511,23.5031483 56,21.509 L56,9.677 C56.000591,9.27883898 55.7649212,8.91826415 55.4,8.759 L45.4,4.439 C45.1449495,4.32768685 44.8550505,4.32768685 44.6,4.439 Z M54,10.339 L54,21.509 C53.9926973,22.8587211 53.3337961,24.1217704 52.231,24.9 L45,30.042 L37.769,24.894 C36.6676631,24.117224 36.0089038,22.8566812 36,21.509 L36,10.334 L45,6.446 L54,10.339 Z" id="Shape"/><path d="M39.6,19.2 C39.3141875,18.9856406 38.9357266,18.9400436 38.6071797,19.0803848 C38.2786328,19.2207259 38.0499141,19.5256842 38.0071797,19.8803848 C37.9644453,20.2350853 38.1141875,20.5856406 38.4,20.8 L42.4,23.8 C42.8320438,24.1242308 43.4434866,24.0467489 43.781,23.625 L51.781,13.625 C52.126178,13.1936656 52.0563344,12.564178 51.625,12.219 C51.1936656,11.873822 50.564178,11.9436656 50.219,12.375 L42.819,21.618 L39.6,19.2 Z" id="Shape"/><path d="M29,28 C27.3431458,28 26,29.3431458 26,31 C26,32.6568542 27.3431458,34 29,34 C30.6568542,34 32,32.6568542 32,31 C32,29.3431458 30.6568542,28 29,28 Z M29,32 C28.4477153,32 28,31.5522847 28,31 C28,30.4477153 28.4477153,30 29,30 C29.5522847,30 30,30.4477153 30,31 C30,31.5522847 29.5522847,32 29,32 Z" id="Shape"/><path d="M13,16 C12.4477153,16 12,16.4477153 12,17 L12,45 C12,45.5522847 12.4477153,46 13,46 C13.5522847,46 14,45.5522847 14,45 L14,17 C14,16.4477153 13.5522847,16 13,16 Z" id="Shape"/></g></g></svg>
