<?xml version="1.0" encoding="UTF-8"?>
<svg xmlns="http://www.w3.org/2000/svg" xmlns:xlink="http://www.w3.org/1999/xlink" width="512" height="512" viewBox="0 0 60 60" version="1.1"><!-- Generator: Sketch 51.3 (57544) - http://www.bohemiancoding.com/sketch --><title>048 - Funeral Insurance</title><desc>Created with Sketch.</desc><defs/><g id="Page-1" stroke="none" stroke-width="1" fill="none" fill-rule="evenodd"><g id="048---Funeral-Insurance" transform="translate(-1.000000, 0.000000)" fill="#000000" fill-rule="nonzero"><path d="M60.4,29.129 L46.4,23.082 C46.1472508,22.9730007 45.8607492,22.9730007 45.608,23.082 L39.019,25.928 L40.9,19.076 C41.1130756,18.2918745 40.9982921,17.4548215 40.582,16.757 L31.461,1.473 C30.9146741,0.557421416 29.926185,-0.00238039306 28.86,4.35236021e-16 L13.14,4.35236021e-16 C12.0750266,-0.00368001502 11.0869515,0.554202392 10.54,1.468 L1.421,16.758 C1.00417811,17.4586444 0.890454669,18.2987537 1.106,19.085 L11.746,57.8 C12.1118743,59.0993663 13.2961068,59.9977496 14.646,60 L27.346,60 C28.6960072,59.9980877 29.8804206,59.0995672 30.246,57.8 L32.467,49.725 C33.1849908,50.9273605 34.1428826,51.9689912 35.281,52.785 L44.956,59.673 C45.5761841,60.1142706 46.4078159,60.1142706 47.028,59.673 L56.703,52.785 C59.3883815,50.8826537 60.9889808,47.7999078 61,44.509 L61,30.047 C61.000591,29.648839 60.7649212,29.2882641 60.4,29.129 Z M28.326,57.264 C28.2059371,57.7027665 27.804867,58.0052128 27.35,58 L14.65,58 C14.1957014,58.0054552 13.7948194,57.7039722 13.674,57.266 L3.037,18.564 C2.96184101,18.3006376 2.99798717,18.0179747 3.137,17.782 L12.262,2.488 C12.4467031,2.18040186 12.7812506,1.99445744 13.14,2 L28.86,2 C29.2207303,1.99483582 29.5567164,2.18285076 29.741,2.493 L38.86,17.781 C38.9990948,18.0142254 39.0373594,18.2939899 38.966,18.556 L36.666,26.944 L34.3,27.966 L36.8,18.845 C36.8722152,18.582061 36.8339264,18.3010354 36.694,18.067 L28.6,4.487 C28.4191889,4.18445271 28.0924588,3.99943232 27.74,4 L14.26,4 C13.9078976,3.99978477 13.5816285,4.18475924 13.401,4.487 L5.3,18.067 C5.16007361,18.3010354 5.12178478,18.582061 5.194,18.845 L15.194,55.265 C15.3134817,55.6997577 15.7091236,56.0007896 16.16,56 L25.84,56 C26.2901339,55.9998882 26.6847145,55.6990409 26.804,55.265 L31,39.986 L31,44.509 C31.0043387,45.2307273 31.0864801,45.9498832 31.245,46.654 L28.326,57.264 Z M31.6,29.129 C31.2350788,29.2882641 30.999409,29.648839 31,30.047 L31,32.437 L25.077,54 L16.923,54 L7.237,18.727 L14.828,6 L27.172,6 L34.763,18.727 L31.944,28.982 L31.6,29.129 Z M59,44.509 C58.9902734,47.1503069 57.7057535,49.6243764 55.551,51.152 L46,57.951 L36.449,51.151 C34.294533,49.6235813 33.010049,47.1499534 33,44.509 L33,30.7 L46,25.085 L59,30.7 L59,44.509 Z" id="Shape"/><path d="M45.6,27.439 L35.6,31.759 C35.2350788,31.9182641 34.999409,32.278839 35,32.677 L35,44.509 C35.0097397,46.5028766 35.980878,48.3695623 37.608,49.522 L45.42,55.084 C45.7671643,55.331178 46.2328357,55.331178 46.58,55.084 L54.392,49.523 C56.0191509,48.370133 56.9902511,46.5031483 57,44.509 L57,32.677 C57.000591,32.278839 56.7649212,31.9182641 56.4,31.759 L46.4,27.439 C46.1449495,27.3276869 45.8550505,27.3276869 45.6,27.439 Z M55,33.339 L55,44.509 C54.9926973,45.8587211 54.3337961,47.1217704 53.231,47.9 L46,53.042 L38.769,47.894 C37.6676631,47.117224 37.0089038,45.8566812 37,44.509 L37,33.334 L46,29.446 L55,33.339 Z" id="Shape"/><path d="M40.6,42.2 C40.3141875,41.9856406 39.9357266,41.9400436 39.6071797,42.0803848 C39.2786328,42.2207259 39.0499141,42.5256842 39.0071797,42.8803848 C38.9644453,43.2350853 39.1141875,43.5856406 39.4,43.8 L43.4,46.8 C43.8320438,47.1242308 44.4434866,47.0467489 44.781,46.625 L52.781,36.625 C53.126178,36.1936656 53.0563344,35.564178 52.625,35.219 C52.1936656,34.873822 51.564178,34.9436656 51.219,35.375 L43.819,44.618 L40.6,42.2 Z" id="Shape"/><path d="M28,14 L14,14 C12.8954305,14 12,14.8954305 12,16 L12,26 C12,27.1045695 12.8954305,28 14,28 L28,28 C29.1045695,28 30,27.1045695 30,26 L30,16 C30,14.8954305 29.1045695,14 28,14 Z M14,26 L14,16 L28,16 L28,26 L14,26 Z" id="Shape"/><path d="M25,18 L17,18 C16.4477153,18 16,18.4477153 16,19 C16,19.5522847 16.4477153,20 17,20 L25,20 C25.5522847,20 26,19.5522847 26,19 C26,18.4477153 25.5522847,18 25,18 Z" id="Shape"/><path d="M25,22 L17,22 C16.4477153,22 16,22.4477153 16,23 C16,23.5522847 16.4477153,24 17,24 L25,24 C25.5522847,24 26,23.5522847 26,23 C26,22.4477153 25.5522847,22 25,22 Z" id="Shape"/></g></g></svg>
