<?xml version="1.0" encoding="UTF-8"?>
<svg xmlns="http://www.w3.org/2000/svg" xmlns:xlink="http://www.w3.org/1999/xlink" width="512" height="512" viewBox="0 0 60 60" version="1.1"><!-- Generator: Sketch 51.3 (57544) - http://www.bohemiancoding.com/sketch --><title>049 - Building Insurance</title><desc>Created with Sketch.</desc><defs/><g id="Page-1" stroke="none" stroke-width="1" fill="none" fill-rule="evenodd"><g id="049---Building-Insurance" fill="#000000" fill-rule="nonzero"><path d="M10,40 L10,36 C10,34.8954305 9.1045695,34 8,34 L6,34 C4.8954305,34 4,34.8954305 4,36 L4,40 C4,41.1045695 4.8954305,42 6,42 L8,42 C9.1045695,42 10,41.1045695 10,40 Z M6,40 L6,36 L8,36 L8,40 L6,40 Z" id="Shape"/><path d="M16,42 L18,42 C19.1045695,42 20,41.1045695 20,40 L20,36 C20,34.8954305 19.1045695,34 18,34 L16,34 C14.8954305,34 14,34.8954305 14,36 L14,40 C14,41.1045695 14.8954305,42 16,42 Z M16,36 L18,36 L18,40 L16,40 L16,36 Z" id="Shape"/><path d="M26,42 L28,42 C29.1045695,42 30,41.1045695 30,40 L30,36 C30,34.8954305 29.1045695,34 28,34 L26,34 C24.8954305,34 24,34.8954305 24,36 L24,40 C24,41.1045695 24.8954305,42 26,42 Z M26,36 L28,36 L28,40 L26,40 L26,36 Z" id="Shape"/><path d="M6,32 L8,32 C9.1045695,32 10,31.1045695 10,30 L10,26 C10,24.8954305 9.1045695,24 8,24 L6,24 C4.8954305,24 4,24.8954305 4,26 L4,30 C4,31.1045695 4.8954305,32 6,32 Z M6,26 L8,26 L8,30 L6,30 L6,26 Z" id="Shape"/><path d="M16,32 L18,32 C19.1045695,32 20,31.1045695 20,30 L20,26 C20,24.8954305 19.1045695,24 18,24 L16,24 C14.8954305,24 14,24.8954305 14,26 L14,30 C14,31.1045695 14.8954305,32 16,32 Z M16,26 L18,26 L18,30 L16,30 L16,26 Z" id="Shape"/><path d="M26,32 L28,32 C29.1045695,32 30,31.1045695 30,30 L30,26 C30,24.8954305 29.1045695,24 28,24 L26,24 C24.8954305,24 24,24.8954305 24,26 L24,30 C24,31.1045695 24.8954305,32 26,32 Z M26,26 L28,26 L28,30 L26,30 L26,26 Z" id="Shape"/><path d="M6,22 L8,22 C9.1045695,22 10,21.1045695 10,20 L10,16 C10,14.8954305 9.1045695,14 8,14 L6,14 C4.8954305,14 4,14.8954305 4,16 L4,20 C4,21.1045695 4.8954305,22 6,22 Z M6,16 L8,16 L8,20 L6,20 L6,16 Z" id="Shape"/><path d="M16,22 L18,22 C19.1045695,22 20,21.1045695 20,20 L20,16 C20,14.8954305 19.1045695,14 18,14 L16,14 C14.8954305,14 14,14.8954305 14,16 L14,20 C14,21.1045695 14.8954305,22 16,22 Z M16,16 L18,16 L18,20 L16,20 L16,16 Z" id="Shape"/><path d="M26,22 L28,22 C29.1045695,22 30,21.1045695 30,20 L30,16 C30,14.8954305 29.1045695,14 28,14 L26,14 C24.8954305,14 24,14.8954305 24,16 L24,20 C24,21.1045695 24.8954305,22 26,22 Z M26,16 L28,16 L28,20 L26,20 L26,16 Z" id="Shape"/><path d="M6,12 L8,12 C9.1045695,12 10,11.1045695 10,10 L10,6 C10,4.8954305 9.1045695,4 8,4 L6,4 C4.8954305,4 4,4.8954305 4,6 L4,10 C4,11.1045695 4.8954305,12 6,12 Z M6,6 L8,6 L8,10 L6,10 L6,6 Z" id="Shape"/><path d="M16,12 L18,12 C19.1045695,12 20,11.1045695 20,10 L20,6 C20,4.8954305 19.1045695,4 18,4 L16,4 C14.8954305,4 14,4.8954305 14,6 L14,10 C14,11.1045695 14.8954305,12 16,12 Z M16,6 L18,6 L18,10 L16,10 L16,6 Z" id="Shape"/><path d="M26,12 L28,12 C29.1045695,12 30,11.1045695 30,10 L30,6 C30,4.8954305 29.1045695,4 28,4 L26,4 C24.8954305,4 24,4.8954305 24,6 L24,10 C24,11.1045695 24.8954305,12 26,12 Z M26,6 L28,6 L28,10 L26,10 L26,6 Z" id="Shape"/><path d="M38,36 C38.5522847,36 39,35.5522847 39,35 L39,31 C39,30.4477153 38.5522847,30 38,30 C37.4477153,30 37,30.4477153 37,31 L37,35 C37,35.5522847 37.4477153,36 38,36 Z" id="Shape"/><path d="M43,28 C43.5522847,28 44,27.5522847 44,27 L44,23 C44,22.4477153 43.5522847,22 43,22 C42.4477153,22 42,22.4477153 42,23 L42,27 C42,27.5522847 42.4477153,28 43,28 Z" id="Shape"/><path d="M38,28 C38.5522847,28 39,27.5522847 39,27 L39,23 C39,22.4477153 38.5522847,22 38,22 C37.4477153,22 37,22.4477153 37,23 L37,27 C37,27.5522847 37.4477153,28 38,28 Z" id="Shape"/><path d="M48,28 C48.5522847,28 49,27.5522847 49,27 L49,23 C49,22.4477153 48.5522847,22 48,22 C47.4477153,22 47,22.4477153 47,23 L47,27 C47,27.5522847 47.4477153,28 48,28 Z" id="Shape"/><path d="M59.4,36.49 L54,34.159 L54,20 C54,18.8954305 53.1045695,18 52,18 L34,18 L34,2 C34,0.8954305 33.1045695,6.76353751e-17 32,0 L2,0 C0.8954305,-6.76353751e-17 1.3527075e-16,0.8954305 0,2 L0,58 C1.3527075e-16,59.1045695 0.8954305,60 2,60 L49,60 C49.1198856,59.9975242 49.2383841,59.9738245 49.35,59.93 C49.3866458,59.9140095 49.4223683,59.8959813 49.457,59.876 C49.4994551,59.8583561 49.5405645,59.8376343 49.58,59.814 L57.392,54.254 C59.0192795,53.1012451 59.9904167,51.2341892 60,49.24 L60,37.408 C60.000591,37.009839 59.7649212,36.6492641 59.4,36.49 Z M2,2 L32,2 L32,58 L24,58 L24,49 C23.9966939,46.2399468 21.7600532,44.0033061 19,44 L15,44 C12.2399468,44.0033061 10.0033061,46.2399468 10,49 L10,58 L2,58 L2,2 Z M12,49 C12,47.3431458 13.3431458,46 15,46 L16,46 L16,58 L12,58 L12,49 Z M18,58 L18,46 L19,46 C20.6568542,46 22,47.3431458 22,49 L22,58 L18,58 Z M34,20 L52,20 L52,33.3 L49.4,32.17 C49.2738488,32.1150559 49.1375943,32.0871237 49,32.088 L49,31 C49,30.4477153 48.5522847,30 48,30 C47.4477153,30 47,30.4477153 47,31 L47,32.863 L44,34.163 L44,31 C44,30.4477153 43.5522847,30 43,30 C42.4477153,30 42,30.4477153 42,31 L42,35 C42,35.007 42,35.014 42,35.021 L38.6,36.49 C38.2350788,36.6492641 37.999409,37.009839 38,37.408 L38,58 L34,58 L34,20 Z M40,53.757 C40.1916773,53.9365979 40.3947677,54.1036131 40.608,54.257 L45.871,58 L40,58 L40,53.757 Z M58,49.24 C57.9910962,50.5876812 57.3323369,51.848224 56.231,52.625 L49,57.772 L41.769,52.625 C40.6677915,51.8481115 40.0090695,50.58764 40,49.24 L40,38.065 L48.388,34.441 L49,34.177 L52.59,35.728 L52.632,35.746 L58,38.065 L58,49.24 Z" id="Shape"/><path d="M46.824,49.349 L43.6,46.931 C43.1581722,46.5996292 42.5313708,46.6891722 42.2,47.131 C41.8686292,47.5728278 41.9581722,48.1996292 42.4,48.531 L46.4,51.531 C46.8320438,51.8552308 47.4434866,51.7777489 47.781,51.356 L55.781,41.356 C56.004291,41.0769756 56.0617626,40.700022 55.9317659,40.3671342 C55.8017691,40.0342463 55.5040536,39.7959976 55.1507659,39.7421342 C54.7974781,39.6882707 54.442291,39.8269756 54.219,40.106 L46.824,49.349 Z" id="Shape"/></g></g></svg>
