<?xml version="1.0" encoding="UTF-8"?>
<svg xmlns="http://www.w3.org/2000/svg" xmlns:xlink="http://www.w3.org/1999/xlink" width="512" height="512" viewBox="0 0 60 60" version="1.1"><!-- Generator: Sketch 51.3 (57544) - http://www.bohemiancoding.com/sketch --><title>050 - Student Cover</title><desc>Created with Sketch.</desc><defs/><g id="Page-1" stroke="none" stroke-width="1" fill="none" fill-rule="evenodd"><g id="050---Student-Cover" fill="#000000" fill-rule="nonzero"><path d="M45.4,27.439 C45.1472508,27.3300007 44.8607492,27.3300007 44.608,27.439 L34.608,31.76 C34.2430788,31.9192641 34.007409,32.279839 34.008,32.678 L34.008,44.51 C34.0177397,46.5038766 34.988878,48.3705623 36.616,49.523 L44.428,55.084 C44.7751643,55.331178 45.2408357,55.331178 45.588,55.084 L53.4,49.523 C55.0240926,48.3688205 55.9921031,46.5024219 56,44.51 L56,32.678 C56.000591,32.279839 55.7649212,31.9192641 55.4,31.76 L45.4,27.439 Z M54,44.51 C53.992541,45.8594087 53.3336386,47.1220877 52.231,47.9 L45,53.042 L37.769,47.9 C36.6666189,47.1218625 36.007791,45.8593263 36,44.51 L36,33.335 L45,29.446 L54,33.335 L54,44.51 Z" id="Shape"/><path d="M39.6,42.2 C39.3141875,41.9856406 38.9357266,41.9400436 38.6071797,42.0803848 C38.2786328,42.2207259 38.0499141,42.5256842 38.0071797,42.8803848 C37.9644453,43.2350853 38.1141875,43.5856406 38.4,43.8 L42.4,46.8 C42.8320438,47.1242308 43.4434866,47.0467489 43.781,46.625 L51.781,36.625 C52.126178,36.1936656 52.0563344,35.564178 51.625,35.219 C51.1936656,34.873822 50.564178,34.9436656 50.219,35.375 L42.819,44.618 L39.6,42.2 Z" id="Shape"/><path d="M59.435,13.9 C59.7896485,13.7285718 60.01062,13.3649161 59.9993948,12.9711686 C59.9881695,12.577421 59.7468389,12.226945 59.383,12.076 L30.383,0.076 C30.1376572,-0.0250129446 29.8623428,-0.0250129446 29.617,0.076 L0.617,12.076 C0.253161077,12.226945 0.0118304954,12.577421 0.000605235448,12.9711686 C-0.0106200245,13.3649161 0.210351542,13.7285718 0.565,13.9 L6,16.524 L6,27.89 C6.002149,29.7071211 6.96523461,31.3875762 8.532,32.308 L10,33.15 L10,42 C10,43.6568542 11.3431458,45 13,45 L17,45 C18.6568542,45 20,43.6568542 20,42 L20,38.909 L24.58,41.546 C26.2295012,42.4937095 28.097638,42.9948665 30,43 L30,44.51 C30.0107907,47.7976847 31.6080811,50.8779339 34.289,52.781 L43.964,59.669 C44.5841841,60.1102706 45.4158159,60.1102706 46.036,59.669 L55.711,52.781 C58.3919189,50.8779339 59.9892093,47.7976847 60,44.51 L60,30.048 C60.000591,29.649839 59.7649212,29.2892641 59.4,29.13 L54,26.8 L54,16.524 L59.435,13.9 Z M30,2.082 L56.555,13.07 L30,25.89 L17.586,19.9 L19.925,18.808 L29.565,23.462 C29.839806,23.5947594 30.160194,23.5947594 30.435,23.462 L49.652,14.185 C50.0073361,14.0140064 50.2290035,13.650155 50.2179879,13.2559707 C50.2069724,12.8617865 49.965331,12.5108824 49.601,12.36 L30.383,4.405 C30.1376572,4.30398706 29.8623428,4.30398706 29.617,4.405 L10.4,12.357 C10.035669,12.5078824 9.79402763,12.8587865 9.78301206,13.2529707 C9.7719965,13.647155 9.99366387,14.0110064 10.349,14.182 L17.601,17.682 L15.262,18.773 L3.445,13.07 L30,2.082 Z M30.906,12.582 C30.6723361,12.0816818 30.0773731,11.8654537 29.577,12.099 L19.939,16.599 L13.228,13.36 L30,6.411 L46.772,13.352 L30,21.448 L22.264,17.714 L30.423,13.906 C30.9233182,13.6723361 31.1395463,13.0773731 30.906,12.577 L30.906,12.582 Z M8,27.89 L8,17.49 L14,20.39 L14,29 L13,29 C11.7501246,29.0053599 10.6345325,29.785079 10.2,30.957 L9.537,30.577 C8.58514008,30.0165597 8.00056266,28.9945951 8,27.89 Z M18,42 C18,42.5522847 17.5522847,43 17,43 L16,43 L16,40 C16,39.4477153 15.5522847,39 15,39 C14.4477153,39 14,39.4477153 14,40 L14,43 L13,43 C12.4477153,43 12,42.5522847 12,42 L12,32 C12,31.4477153 12.4477153,31 13,31 L17,31 C17.5522847,31 18,31.4477153 18,32 L18,42 Z M58,44.51 C57.990283,47.1510352 56.7057249,49.6248059 54.551,51.152 L45,57.951 L35.449,51.151 C33.2945616,49.6240107 32.0100395,47.1506817 32,44.51 L32,30.71 L45,25.094 L52.591,28.373 L52.631,28.39 L58,30.705 L58,44.51 Z M52,25.935 L45.4,23.082 C45.1472508,22.9730007 44.8607492,22.9730007 44.608,23.082 L30.608,29.13 C30.2430788,29.2892641 30.007409,29.649839 30.008,30.048 L30.008,40.977 C28.4577922,40.9831277 26.9331992,40.5817194 25.587,39.813 L20,36.6 L20,32 C20,30.3431458 18.6568542,29 17,29 L16,29 L16,21.352 L29.565,27.9 C29.839806,28.0327594 30.160194,28.0327594 30.435,27.9 L52,17.49 L52,25.935 Z" id="Shape"/></g></g></svg>
